<svg xmlns="http://www.w3.org/2000/svg" width="24" height="32"  viewBox="0 0 35 35.72">
    <defs>
        <style>
            .cls-1 {
                fill: #ffda22;
            }

            .cls-2 {
                opacity: 0.35;
            }

            .cls-3 {
                fill: #371a45;
            }

            .cls-4 {
                fill: #fff;
            }

            .cls-5 {
                fill: #ffd243;
            }

            .cls-6 {
                opacity: 0.3;
            }

            .cls-7 {
                fill: #6b184e;
            }

            .cls-8 {
                fill: #33aef2;
            }

            .cls-9 {
                opacity: 0.6;
            }

            .cls-10 {
                fill: #293856;
            }

            .cls-11 {
                fill: #21102b;
            }
        </style>
    </defs>
    <title>stake1-대지 31</title>
    <path class="cls-1"
        d="M31.72,15.33A15.11,15.11,0,0,1,9.26,32.67a15.15,15.15,0,0,1-7-14.24A.87.87,0,0,1,3.86,18a15.14,15.14,0,0,0,4.28,4.07A17.61,17.61,0,0,0,9.73,23a15,15,0,0,0,4.4,1.32,15.2,15.2,0,0,0,3.3.09h.35l.5-.06a16.88,16.88,0,0,0,2.22-.48,16.32,16.32,0,0,0,1.61-.58l.42-.19.6-.29a15.23,15.23,0,0,0,2.29-1.45c.37-.29.73-.59,1.07-.91a14.79,14.79,0,0,0,2.48-3A13.65,13.65,0,0,0,29.75,16c.12-.24.24-.49.34-.74A.87.87,0,0,1,31.72,15.33Z" />
    <g class="cls-2">
        <path class="cls-3"
            d="M9.14,32.06a15.1,15.1,0,0,0,22.93-15.4c-.1-.45-.21-.89-.35-1.33a.86.86,0,0,0-.56-.57,15.12,15.12,0,0,1-4.63,12.81,1.17,1.17,0,0,0-.09-.24c-.5-1.07-2.08-1.32-3.52-.56S20.69,29,21.19,30.09a1.59,1.59,0,0,0,.45.57A15.12,15.12,0,0,1,3.72,25.13a17,17,0,0,1-1.08-1.84,15.06,15.06,0,0,0,6.5,8.77Z" />
    </g>
    <g class="cls-2">
        <path class="cls-4"
            d="M17.62,24.38c-7.55,2.49-13.5-5-14.43-5.13s-.63,2.92-.63,2.92H2.42a14.76,14.76,0,0,1-.1-3.7.87.87,0,0,1,1.57-.41,15.14,15.14,0,0,0,4.28,4.07A15,15,0,0,0,17.62,24.38Z" />
    </g>
    <path class="cls-3"
        d="M17.3,35.19a15.33,15.33,0,0,1-6.58-1.49l0,0-.11-.06-.15-.07-.05,0-.11-.06,0,0-.1,0L10,33.33l0,0h0l-.15-.09h0l-.1-.06,0,0-.07,0L9.46,33,9.37,33h0l-.06,0-.06,0,0,0-.07,0-.07,0v0l-.07,0,0,0-.08-.05-.05,0-.07-.05-.07,0-.12-.08-.16-.11-.07-.05,0,0-.16-.11-.11-.08L8,32l-.1-.08-.06-.05-.07-.05,0,0,0,0-.06-.05,0,0,0,0,0,0,0,0,0-.05h0l0,0h0l-.07-.06,0,0h0l0-.05,0,0,0,0,0,0L7,31.22l-.06,0a.6.6,0,0,0-.08-.08h0L6.81,31,6.75,31h0l-.14-.13-.2-.21-.14-.14-.08-.08,0,0,0,0-.07-.08-.1-.1-.09-.1,0,0-.11-.12,0,0-.08-.1-.06-.07,0-.06,0,0-.1-.12-.28-.36-.21-.29,0,0a.86.86,0,0,1-.07-.1l0,0-.13-.18-.06-.09-.06-.09-.09-.14,0-.05-.06-.09,0,0v0h0l-.08-.13,0,0,0,0v0l-.08-.13,0-.05L4,27.47H4v0a.56.56,0,0,1,0-.08l0-.05h0l0,0h0l0,0c0-.05-.05-.09-.07-.14l0-.05-.06-.13-.06-.11,0-.1,0,0-.06-.12v0a1,1,0,0,0-.07-.15l0,0,0-.09,0-.05,0-.09,0,0h0l0-.1v0l0-.05a.78.78,0,0,0-.05-.14v0l-.05-.1h0v0h0l0,0,0-.09,0-.07v0H3c0-.07,0-.13-.07-.2s0,0,0-.06h0l0-.11v0L2.8,24.7v0s0,0,0-.05l0-.08,0-.08a.14.14,0,0,0,0-.06.44.44,0,0,1,0-.1l0,0,0-.06s0-.06,0-.08v-.07h0l0-.07v-.14c-.07-.27-.14-.55-.2-.82s0-.28-.08-.45l0-.19c0-.07,0-.14,0-.21h0a1.37,1.37,0,0,1,0-.19A13.08,13.08,0,0,1,2,20.1c0-.13,0-.27,0-.42l0-.64c0-.07,0-.14,0-.21s0-.29,0-.42a.09.09,0,0,0,0-.05s0,0,0-.06a1.12,1.12,0,0,1,.18-.42,1.05,1.05,0,0,1,.49-.36,1,1,0,0,1,.45-.07.93.93,0,0,1,.23,0h0l.13.06.06,0A1.08,1.08,0,0,1,4,17.9l.11.14.13.19.09.11.07.1,0,0a14.5,14.5,0,0,0,2.43,2.46l.14.11.15.12.15.11c.3.23.62.44.94.64l.17.11.19.11h0l.19.11.18.1.31.16.24.13h0l.08,0,.15.07.07,0,.05,0,.08,0a14.46,14.46,0,0,0,2.39.85,15,15,0,0,0,10.44-1.06,14.63,14.63,0,0,0,5.08-4.12l.06-.08.09-.12.18-.22.12-.18.11-.16h0v0l.09-.12a.22.22,0,0,1,.05-.08l.09-.14,0,0,.07-.11,0-.05.2-.32.07-.13.08-.13c.14-.25.27-.51.4-.76l.06-.14a2.26,2.26,0,0,0,.11-.22l.06-.13.09-.21,0-.07a1.07,1.07,0,0,1,1.17-.56l.13,0,0,0a1,1,0,0,1,.48.37h0l0,0h0v0h0v0l0,0s0,0,0,0l0,0,0,.09.06.17a3.37,3.37,0,0,0,.1.34c0,.18.09.35.13.52s.05.19.07.28a2.56,2.56,0,0,1,.05.27,3.89,3.89,0,0,1,.09.47c.08.46.14.93.18,1.39,0,.07,0,.14,0,.21s0,.28,0,.42a2.71,2.71,0,0,1,0,.29c0,.22,0,.45,0,.67v.14c0,.2,0,.42,0,.64l0,.31c0,.43-.1.87-.18,1.29l0,.16c0,.21-.09.43-.13.63a1.24,1.24,0,0,0,0,.16l0,.05v0l0,.1c-.06.23-.13.46-.2.68l0,.1a1.72,1.72,0,0,1-.07.21l0,.11c-.08.25-.18.51-.28.76a1,1,0,0,1-.07.15l-.05.12,0,.06-.06.12v0l-.07.16-.07.15-.07.15-.08.15a1.19,1.19,0,0,1-.08.16v0l-.06.12-.09.16-.16.29-.18.3c-.05.1-.12.19-.18.29a4,4,0,0,1-.24.37l-.25.36A15.4,15.4,0,0,1,17.3,35.19ZM10.16,33l0,0,.11.06.1.05,0,0,.1.05,0,0,.14.08.11,0,0,0a14.87,14.87,0,0,0,18.54-4.75c.09-.12.17-.24.24-.35l.24-.36c.06-.1.12-.19.17-.29l.17-.28.16-.29.09-.15.06-.12v0l.08-.15c0-.05.05-.09.07-.14a16211196635497.65,16211196635497.65,0,0,0,.14-.3l.07-.15v0l.06-.12,0,0,.05-.12.06-.15c.1-.24.19-.49.28-.74l0-.11.06-.19,0-.1c.07-.23.14-.45.2-.67l0-.1v-.07c0-.06,0-.11,0-.16s.09-.41.13-.62l0-.15c.08-.42.14-.84.18-1.25,0-.11,0-.21,0-.31s0-.43,0-.63v-.13c0-.21,0-.43,0-.66a2.53,2.53,0,0,1,0-.28c0-.14,0-.27,0-.4s0-.14,0-.21h0A12.45,12.45,0,0,0,32,17.38a3.73,3.73,0,0,0-.09-.46,2,2,0,0,0-.05-.26,2.29,2.29,0,0,0-.07-.28c0-.16-.08-.33-.13-.5l-.09-.33a1.09,1.09,0,0,1,0-.17l0-.06v0l-.05-.08a.55.55,0,0,0-.29-.23l0,0-.08,0a.68.68,0,0,0-.74.35s0,0,0,.05l-.09.21-.06.13c0,.08-.07.16-.11.23l-.07.14a8.46,8.46,0,0,1-.41.79s-.05.08-.07.13l-.08.13-.2.33,0,0-.07.12,0,0-.09.14-.06.08-.08.12,0,0-.12.16-.12.18-.18.23-.09.13-.07.08A15,15,0,0,1,23,23a15.37,15.37,0,0,1-10.72,1.1,15.22,15.22,0,0,1-2.45-.88l-.09,0-.05,0-.07,0-.15-.07-.09,0-.26-.13-.31-.17-.19-.11-.19-.11h0a1.18,1.18,0,0,1-.19-.11l-.19-.11-1-.66-.15-.12-.15-.11-.15-.12a15.28,15.28,0,0,1-2.5-2.52l0-.05L4,18.58l-.09-.12-.14-.19-.1-.14a.66.66,0,0,0-.21-.2l0,0h0l-.06,0h0l-.16,0a.71.71,0,0,0-.29.05.59.59,0,0,0-.31.23.68.68,0,0,0-.11.26v.06l0,.42c0,.07,0,.14,0,.2,0,.21,0,.41,0,.62v.41a15.75,15.75,0,0,0,.14,1.82l0,.19h0l0,.2,0,.2c0,.16.06.3.08.42s.12.54.19.81v0l0,.09,0,.08L3,24a.24.24,0,0,1,0,.08l0,.07v0h0a.37.37,0,0,0,0,.09s0,0,0,.05h0l0,.08,0,.08v.07a1,1,0,0,0,0,.16h0v0a.36.36,0,0,0,0,.11h0l0,.07a1.07,1.07,0,0,1,.07.19h0v0l0,.07,0,.08h0l0,0v0h0a.42.42,0,0,1,0,.1v0l.06.13h0l0,0v0l0,.1h0v0a.36.36,0,0,1,0,.09l0,0,0,.09,0,.05a.61.61,0,0,1,.07.14l.07.14v0l.06.11a.47.47,0,0,0,0,.1l.06.12h0a.08.08,0,0,0,0,0h0c0,.05,0,.09.07.14l0,.05v.05h0l0,.05s0,.05,0,.08l0,0,.09.14,0,0,.08.13,0,0h0v0l0,0h0l.08.12,0,.05.06.09,0,0h0l.09.13a.22.22,0,0,0,0,.08l.09.13.1.15v0l.07.1,0,0,.21.28.27.35.1.12h0l.06.07,0,.06.08.1,0,0,.11.13h0l.08.1.1.1.07.08h0l0,0h0l0,0h0a.46.46,0,0,1,.07.07l.14.14c.06.07.13.13.19.19h0l.07.08.12.11,0,0,0,.05.08.07.06.06.06.05,0,0,0,0,0,0,.06.05,0,0,.07.06h0l0,0h0l0,0h0l0,0,0,0,0,0,0,0h0l.06.05h0l0,0H8l.06,0,0,0,.1.08.1.08.11.08.15.11h0l.14.1.09.07.11.08.08,0,.06,0h0l0,0,.08.05h0l0,0h0l.07.05h0l.06,0,.07,0,0,0,0,0,.12.07h0l.09,0h0l0,0,.07,0h0l.11.06h0l.14.08ZM7.8,31.36ZM7,30.62Zm0,0ZM4.68,27.8Zm-.1-.18ZM31.47,15.24v0Z" />
    <g class="cls-2">
        <ellipse class="cls-3" cx="7.37" cy="25.3" rx="1.45" ry="1.7"
            transform="translate(-18.91 23.44) rotate(-69.72)" />
    </g>
    <ellipse class="cls-1" cx="14.83" cy="26.9" rx="0.79" ry="1.76" transform="translate(-14.3 36.61) rotate(-79.58)" />
    <path class="cls-3"
        d="M16.81,26.14a1.12,1.12,0,0,1,.21.53.76.76,0,0,1,0,.15A.8.8,0,0,1,17,27a1.59,1.59,0,0,1-.12.27,1.45,1.45,0,0,1-.43.39,2,2,0,0,1-.53.21,2.53,2.53,0,0,1-.55.09h-.28l-.28,0a3.37,3.37,0,0,1-.55-.12,2.83,2.83,0,0,1-.52-.21,2.91,2.91,0,0,1-.46-.32,1.51,1.51,0,0,1-.36-.47,1,1,0,0,1-.1-.6,1,1,0,0,1,.27-.54,1.55,1.55,0,0,1,.48-.32,1.14,1.14,0,0,1,.26-.09,1.27,1.27,0,0,1,.28-.06l.27,0h.27a3.06,3.06,0,0,1,.54.07,0,0,0,1,1,0,.09H14.5l-.13,0-.25,0-.25.07-.23.1a1.42,1.42,0,0,0-.39.29.81.81,0,0,0-.19.41.8.8,0,0,0,.09.43,1.36,1.36,0,0,0,.3.38,2.29,2.29,0,0,0,.41.28,3.85,3.85,0,0,0,.47.19,4,4,0,0,0,.5.11,2.85,2.85,0,0,0,1,0,2.38,2.38,0,0,0,.47-.17,1.26,1.26,0,0,0,.38-.3,2.12,2.12,0,0,0,.11-.21s0-.07,0-.11,0-.08,0-.12a1,1,0,0,0-.13-.48s0-.06,0-.07A0,0,0,0,1,16.81,26.14Z" />
    <path class="cls-3"
        d="M14.73,28.51a1.86,1.86,0,0,1-1-.07,2.37,2.37,0,0,1-.46-.2,2.55,2.55,0,0,1-.41-.3,2.18,2.18,0,0,1-.59-.82,1.25,1.25,0,0,1-.11-.5,1,1,0,0,1,.11-.5,0,0,0,0,1,.06,0,.05.05,0,0,1,0,0h0a1.31,1.31,0,0,0,.13.87,2.36,2.36,0,0,0,.57.69,2.51,2.51,0,0,0,.76.48,2.69,2.69,0,0,0,.89.21h0a.05.05,0,0,1,0,.06A.07.07,0,0,1,14.73,28.51Z" />
    <ellipse class="cls-1" cx="6.87" cy="25.66" rx="1.03" ry="1.28"
        transform="translate(-17.77 15.73) rotate(-53.08)" />
    <path class="cls-1" d="M12.54,30.52a1.43,1.43,0,0,0-.09.42,2,2,0,0,0,2,2,2.23,2.23,0,0,0,2.06-1Z" />
    <path class="cls-3"
        d="M12.59,30.54a1.41,1.41,0,0,0-.05.35,1.35,1.35,0,0,0,0,.35,1.62,1.62,0,0,0,.25.64,1.86,1.86,0,0,0,.48.49,2.12,2.12,0,0,0,.62.31,2.44,2.44,0,0,0,1.39,0,2.15,2.15,0,0,0,1.15-.8h0a0,0,0,0,1,.06,0s0,0,0,.05a2,2,0,0,1-.48.61,2.41,2.41,0,0,1-.68.39,2.49,2.49,0,0,1-1.55,0,2.33,2.33,0,0,1-.7-.36,2,2,0,0,1-.53-.59,1.64,1.64,0,0,1-.1-1.52.05.05,0,0,1,.07,0S12.6,30.51,12.59,30.54Z" />
    <path class="cls-5"
        d="M27.69,21.84a4.47,4.47,0,0,1,.54-1.25c.8-1.25,2.06-1.91,2.82-1.49s.73,1.79-.07,3-2.05,1.91-2.81,1.49Z" />
    <path class="cls-3"
        d="M31.3,19.22a1.57,1.57,0,0,1,.31.78,2.88,2.88,0,0,1,0,.83,4.3,4.3,0,0,1-.22.8c-.05.13-.11.26-.17.38a1.14,1.14,0,0,1-.1.19l-.11.18-.11.17-.13.17a2.8,2.8,0,0,1-.28.31,3.09,3.09,0,0,1-.67.52,2.64,2.64,0,0,1-.38.18,2.17,2.17,0,0,1-.42.11,1.3,1.3,0,0,1-.44,0,.9.9,0,0,1-.39-.16,0,0,0,1,1,0-.08h0a1.23,1.23,0,0,0,.37.08,1.65,1.65,0,0,0,.38-.05,1.48,1.48,0,0,0,.35-.13,2.27,2.27,0,0,0,.34-.19,4.38,4.38,0,0,0,1.13-1.06l.12-.16.1-.17a3,3,0,0,0,.17-.36,3.86,3.86,0,0,0,.24-.75,2.58,2.58,0,0,0,.07-.78,1.55,1.55,0,0,0-.25-.73.06.06,0,0,1,.09-.07Z" />
    <path class="cls-1"
        d="M25.55,26.16a2.31,2.31,0,0,1,1.31.75A2.46,2.46,0,0,1,27,29.56a4.84,4.84,0,0,1-1.43,1.78c-1.67,1.3-3.81,1.4-4.79.23A2.26,2.26,0,0,1,20.31,30a4.18,4.18,0,0,1,1.76-2.85Z" />
    <path class="cls-3"
        d="M26.9,26.87a2.1,2.1,0,0,1,.52,1.22,3.13,3.13,0,0,1-.21,1.32,4.27,4.27,0,0,1-.65,1.16,5.57,5.57,0,0,1-.95.93,4.88,4.88,0,0,1-2.45,1,3.27,3.27,0,0,1-1.32-.13,2.3,2.3,0,0,1-1.08-.75,0,0,0,0,1,0-.07s0,0,.06,0a2.69,2.69,0,0,0,.5.39,2.87,2.87,0,0,0,.57.24,3.5,3.5,0,0,0,1.25.07,4.57,4.57,0,0,0,1.2-.34,5.19,5.19,0,0,0,1.09-.64,4.94,4.94,0,0,0,.9-.87A4.47,4.47,0,0,0,27,29.32a2.86,2.86,0,0,0,.24-1.22,2.16,2.16,0,0,0-.1-.61,2.11,2.11,0,0,0-.3-.55,0,0,0,0,1,0-.07.06.06,0,0,1,.08,0Z" />
    <path class="cls-3"
        d="M6.91,26.68a1.93,1.93,0,0,0,1,0,1.43,1.43,0,0,0,.82-.52A1.23,1.23,0,0,0,9,25.27a1.56,1.56,0,0,0-.46-.84A1.87,1.87,0,0,0,6.66,24a1.33,1.33,0,0,0-.78.57,1.67,1.67,0,0,0-.12.23A1.05,1.05,0,0,0,5.7,25a1.11,1.11,0,0,0,0,.26,2.13,2.13,0,0,0,0,.25h0s0,.05,0,.05a.05.05,0,0,1,0,0,2.61,2.61,0,0,1-.06-.27.89.89,0,0,1,0-.28,1.33,1.33,0,0,1,.15-.55,1.52,1.52,0,0,1,.87-.72,2.14,2.14,0,0,1,.56-.11,2.76,2.76,0,0,1,.57.06,2.62,2.62,0,0,1,.53.2,2.69,2.69,0,0,1,.47.34,1.82,1.82,0,0,1,.54,1A1.47,1.47,0,0,1,9,26.34a1.59,1.59,0,0,1-.44.38,2.17,2.17,0,0,1-.54.19,2,2,0,0,1-1.1-.12.05.05,0,0,1,0-.07.07.07,0,0,1,.07,0Z" />
    <path class="cls-3"
        d="M5.64,23.79a1.82,1.82,0,0,0-.54.83,2.1,2.1,0,0,0-.06.24L5,25a.56.56,0,0,0,0,.13,1.92,1.92,0,0,0,0,.24s0,.08,0,.12l0,.12,0,.06a.14.14,0,0,0,0,.06l0,.12a1.17,1.17,0,0,0,0,.11l.05.12a2.63,2.63,0,0,0,.27.41,2.58,2.58,0,0,0,.75.64,2.76,2.76,0,0,0,1.93.33,2.29,2.29,0,0,0,.9-.4,1.93,1.93,0,0,0,.61-.8h0a0,0,0,0,1,.06,0s0,0,0,.05a2,2,0,0,1-.58.91,2.31,2.31,0,0,1-1,.5,2.67,2.67,0,0,1-1.09.05,2.93,2.93,0,0,1-1-.36,2.86,2.86,0,0,1-.83-.72,2.31,2.31,0,0,1-.47-1,2.05,2.05,0,0,1,.1-1.1,1.93,1.93,0,0,1,.67-.85.06.06,0,1,1,.07.09Z" />
    <g class="cls-6">
        <ellipse class="cls-7" cx="14.57" cy="31.07" rx="1.24" ry="1.5"
            transform="translate(-19.63 33.97) rotate(-69.72)" />
    </g>
    <path class="cls-1"
        d="M15.7,31.68a1.25,1.25,0,0,1-1.26.56A1.33,1.33,0,0,1,13.16,31a1.09,1.09,0,0,1,0-.25,1.57,1.57,0,0,1,1.09-.28A1.52,1.52,0,0,1,15.7,31.68Z" />
    <path class="cls-3"
        d="M14.7,29.87a1.48,1.48,0,0,0-.75.21,1.11,1.11,0,0,0-.5.55.92.92,0,0,0,0,.71,1.19,1.19,0,0,0,.48.54,1.42,1.42,0,0,0,1.45,0,1,1,0,0,0,.47-.58,1,1,0,0,0,0-.76,0,0,0,0,1,0-.06.06.06,0,0,1,.06,0h0a1.13,1.13,0,0,1,.15.86,1.29,1.29,0,0,1-.51.74,1.64,1.64,0,0,1-1.73.09,1.48,1.48,0,0,1-.62-.69A1.25,1.25,0,0,1,13.1,31a1,1,0,0,1,.11-.46,1.08,1.08,0,0,1,.26-.37,1.6,1.6,0,0,1,.38-.26,1.51,1.51,0,0,1,.86-.13.06.06,0,0,1,0,.06.06.06,0,0,1-.06.05Z" />
    <g class="cls-2">
        <ellipse class="cls-3" cx="23.82" cy="29.22" rx="2.9" ry="2.11"
            transform="translate(-11.58 16.24) rotate(-30.68)" />
    </g>
    <ellipse class="cls-1" cx="23.85" cy="29.83" rx="2.46" ry="1.55"
        transform="translate(-10.67 13.48) rotate(-26.02)" />
    <path class="cls-3"
        d="M22.49,31.63a2,2,0,0,1-.4-.11,1.36,1.36,0,0,1-.37-.21,1.52,1.52,0,0,1-.54-.66,1.72,1.72,0,0,1-.15-.84,2.34,2.34,0,0,1,.19-.83,3.6,3.6,0,0,1,1-1.36,4.25,4.25,0,0,1,1.47-.82,2.71,2.71,0,0,1,.41-.09,3,3,0,0,1,.42-.05,2.43,2.43,0,0,1,.85.11,1.88,1.88,0,0,1,.75.46,1.58,1.58,0,0,1,.43.75,2.08,2.08,0,0,1,0,.86,2.65,2.65,0,0,1-.28.79,3.52,3.52,0,0,1-1.09,1.24s-.05,0-.06,0,0-.05,0-.06a3.83,3.83,0,0,0,1-1.25,2.51,2.51,0,0,0,.22-.74,1.76,1.76,0,0,0,0-.76,1.41,1.41,0,0,0-.38-.63,1.48,1.48,0,0,0-.64-.37,2.63,2.63,0,0,0-1.52,0,3.62,3.62,0,0,0-1.35.76,3.35,3.35,0,0,0-.94,1.23,2.45,2.45,0,0,0-.19.74,1.71,1.71,0,0,0,.1.75,1.43,1.43,0,0,0,.45.61,1.76,1.76,0,0,0,.7.34h0a.07.07,0,0,1,0,.07A.06.06,0,0,1,22.49,31.63Z" />
    <g class="cls-2">
        <path class="cls-3"
            d="M30.62,21.45a3.12,3.12,0,0,1-.78,1,1.4,1.4,0,0,1-1.06.37c-.6-.12-.74-.91-.32-1.78a2.18,2.18,0,0,1,1.76-1.38h.08C30.9,19.78,31,20.58,30.62,21.45Z" />
    </g>
    <ellipse class="cls-1" cx="29.13" cy="21.89" rx="1.41" ry="0.78"
        transform="translate(-7.05 26.24) rotate(-43.77)" />
    <path class="cls-3"
        d="M28.21,21.62a2.46,2.46,0,0,1,.34-.9c.09-.14.19-.26.29-.39A2.9,2.9,0,0,1,29.2,20a1.67,1.67,0,0,1,.43-.25,1.15,1.15,0,0,1,.52-.1.79.79,0,0,1,.52.22.9.9,0,0,1,.24.5,1.74,1.74,0,0,1,0,.51,2.42,2.42,0,0,1-.13.48c0,.08-.07.16-.1.23l-.12.22-.07.1-.07.1a1.39,1.39,0,0,1-.15.19,2.81,2.81,0,0,1-.35.34,2.23,2.23,0,0,1-.41.27,1.32,1.32,0,0,1-.48.13.77.77,0,0,1-.49-.1,0,0,0,0,1,0-.06,0,0,0,0,1,.06,0h0a.67.67,0,0,0,.42,0,1.29,1.29,0,0,0,.41-.16,1.88,1.88,0,0,0,.36-.27,2.35,2.35,0,0,0,.3-.33,3,3,0,0,0,.25-.37c0-.06.06-.13.1-.2a1.8,1.8,0,0,0,.08-.21,2,2,0,0,0,.11-.42,1.48,1.48,0,0,0,0-.42.77.77,0,0,0-.16-.34.55.55,0,0,0-.33-.14.92.92,0,0,0-.39.07,1.41,1.41,0,0,0-.38.21,2.51,2.51,0,0,0-.63.63,3,3,0,0,0-.42.81h0a.05.05,0,0,1-.07,0S28.2,21.65,28.21,21.62Z" />
    <g class="cls-2">
        <path class="cls-3"
            d="M26.26,23.63c.08.66-1.43,1.4-3.38,1.64a6.73,6.73,0,0,1-3.08-.2,4.22,4.22,0,0,0-2.05-.29l-.12,0a4.05,4.05,0,0,0-1.64.59,5.87,5.87,0,0,1-1.77.66,6,6,0,0,1-.74.14l-.26,0-.3,0c-.22,0-.43,0-.64,0-1.51.05-2.67-.28-2.73-.84s.51-.85,1.41-1.19a8.13,8.13,0,0,1,1.3-.35h.08a15.21,15.21,0,0,0,10.58-1.08h0C24.73,22.66,26.18,23,26.26,23.63Z" />
    </g>
    <path class="cls-4"
        d="M13.21,14.61c-.81.1-4.74.11-4.76-2.9,0-2.26,1.87-2.86,3.8-3.27,1.41-.31,2.08-.57,2.68-.19s1.06,2.06-.82,3.27c-1.59,1-1.18,1.13-1.18,1.13" />
    <path class="cls-4"
        d="M24.18,15.88a6.78,6.78,0,0,1,0,1.1C24,19,20.43,19.3,18.36,19.3s-2.21-4.67-2.22-5.93c0-1.53,2.94-2.85,4.91-2.85a2.36,2.36,0,0,1,1.33.32C23.2,11.42,24,13.89,24.18,15.88Z" />
    <g class="cls-2">
        <path class="cls-3"
            d="M23.56,16a2.73,2.73,0,0,0,.62-.14,6.78,6.78,0,0,1,0,1.1C24,19,20.43,19.3,18.36,19.3s-2.21-4.67-2.22-5.93c0-1.53,2.94-2.85,4.91-2.85C22.62,12.57,22.55,16.15,23.56,16Z" />
    </g>
    <g class="cls-2">
        <path class="cls-3" d="M24.87,15.06l0-.2A.62.62,0,0,1,24.87,15.06Z" />
    </g>
    <path class="cls-3"
        d="M21.06,10.52a2.35,2.35,0,0,1,1.32.32c1,.69,2,4.09,1.81,6.14s-3.75,2.32-5.82,2.32h0c-2.07,0-2.21-4.67-2.22-5.93,0-1.53,2.94-2.85,4.92-2.85m0-.39v0h0a7.35,7.35,0,0,0-4.63,1.77,2.12,2.12,0,0,0-.69,1.48c0,2.36.4,6.31,2.62,6.31h0c3.93,0,6.08-.92,6.22-2.68a11.34,11.34,0,0,0-.5-3.72,5.86,5.86,0,0,0-1.49-2.77,2.62,2.62,0,0,0-1.54-.39Z" />
    <path class="cls-4"
        d="M25,23.17c.17,1.32-3.26,1.71-4.31,1-.42-.28-.45-1.44-.46-2.25a1.66,1.66,0,0,0-.46-1.29c-1.46-1.14-4.69,0-5.08.79s.39,2.32-.33,3.3-4,1.31-4.26.26c-.2-.79.95-1.26.95-1.26a9.13,9.13,0,0,1-.36-3.15,3.83,3.83,0,0,1,1.46-2.51,4.18,4.18,0,0,0,.39-.88A4.58,4.58,0,0,0,12.68,16a8.63,8.63,0,0,0-.48-2.54l8.4-3.11a32.64,32.64,0,0,1,1.26,4c.14.53.24,1,.32,1.33s.15.7.15.7c1.81,2.36,1.32,5.69,1.38,5.73S24.89,22.4,25,23.17Z" />
    <g class="cls-2">
        <path class="cls-3"
            d="M25,23.43c-.29,1.11-3.32,1.4-4.3.76-.42-.28-.45-1.44-.46-2.25a1.66,1.66,0,0,0-.46-1.29c-1.46-1.14-4.69,0-5.08.79s.39,2.32-.33,3.3S10.39,26,10.08,25a3.75,3.75,0,0,0,3.63-1c.84-1.15.12-2.68.44-3.77s4.36-2.12,5.83-.74a1.41,1.41,0,0,1,.58,1.18,5.79,5.79,0,0,0,.54,2.63C21.83,24.32,23.73,23.87,25,23.43Z" />
    </g>
    <path class="cls-3"
        d="M11.59,25.82a3.2,3.2,0,0,1-.72-.07c-.7-.13-.92-.46-1-.71-.18-.75.57-1.23.92-1.41a8.92,8.92,0,0,1-.33-3.07A4.07,4.07,0,0,1,12,17.94c.47-.82.83-2,0-4.47a.19.19,0,1,1,.37-.12c.87,2.65.45,3.93-.08,4.83l0,0,0,0a3.69,3.69,0,0,0-1.37,2.38,9.41,9.41,0,0,0,.36,3.06l0,.17-.16.06s-1,.41-.84,1c.06.26.45.37.68.42,1.07.21,2.83-.19,3.23-.75a2.42,2.42,0,0,0,.22-1.75,2.79,2.79,0,0,1,.09-1.51,3.52,3.52,0,0,1,2.23-1.23,4,4,0,0,1,3.15.36,1.78,1.78,0,0,1,.54,1.45c0,.6,0,1.85.37,2.08a4.4,4.4,0,0,0,3.59-.17q.46-.29.42-.66c-.07-.52-.84-.83-1.13-.91h-.05c-.11-.06-.11-.14-.1-.42a8,8,0,0,0-1.34-5.36l0,0v0a40.77,40.77,0,0,0-1.71-6,.2.2,0,0,1,.37-.15,40.39,40.39,0,0,1,1.72,6.06,7,7,0,0,1,1.29,3.23,11.68,11.68,0,0,1,.11,2.34v.09c.35.12,1.19.48,1.28,1.21a1,1,0,0,1-.6,1,4.74,4.74,0,0,1-4,.16C20.08,24,20,23,20,21.94a1.4,1.4,0,0,0-.39-1.13,3.39,3.39,0,0,0-2.81-.3,3.3,3.3,0,0,0-2,1,2.47,2.47,0,0,0-.06,1.29,2.8,2.8,0,0,1-.29,2A4.14,4.14,0,0,1,11.59,25.82Zm.54-7.74Z" />
    <path class="cls-4"
        d="M25.39,10.57c-.29.28-.59.54-.89.78s-.43.32-.64.47a12.91,12.91,0,0,1-3,1.51l-1.58-2.87a18.36,18.36,0,0,0,2.86-1.8l.69-.47h0c1.27-.84,2.49-1.5,3.21-1.14C27.05,7.52,26.54,9.46,25.39,10.57Z" />
    <g class="cls-2">
        <path class="cls-3"
            d="M25.39,10.57c-.29.28-.59.54-.89.78s-.43.32-.64.47a12.91,12.91,0,0,1-3,1.51h0a.64.64,0,0,1,.29-.89,10,10,0,0,0,3.29-1.83,5,5,0,0,0,2-3.16C26.83,8.22,26.32,9.67,25.39,10.57Z" />
    </g>
    <path class="cls-3"
        d="M20.9,13.53a.21.21,0,0,1-.19-.14.2.2,0,0,1,.13-.25,12.59,12.59,0,0,0,4.41-2.71A3.5,3.5,0,0,0,26.37,7.8.72.72,0,0,0,26,7.22c-.83-.42-2.67.87-4.14,1.9a13.91,13.91,0,0,1-2.46,1.52.2.2,0,0,1-.26-.11.2.2,0,0,1,.11-.26A13.11,13.11,0,0,0,21.63,8.8c1.72-1.21,3.5-2.46,4.54-1.94a1.13,1.13,0,0,1,.6.88,3.93,3.93,0,0,1-1.24,3A13,13,0,0,1,21,13.52Z" />
    <g class="cls-2">
        <path class="cls-3"
            d="M15,17.33a2.83,2.83,0,0,1-2.4,0,.73.73,0,0,1-.09-.12A4.58,4.58,0,0,0,12.68,16a2.59,2.59,0,0,0,2,.06A1.39,1.39,0,0,1,15,17.33Z" />
    </g>
    <g class="cls-2">
        <path class="cls-3"
            d="M22.18,15.66a5.36,5.36,0,0,1-3,1.33A.91.91,0,0,1,19,15.7a4,4,0,0,0,2.87-1.37C22,14.86,22.1,15.31,22.18,15.66Z" />
    </g>
    <path class="cls-4"
        d="M12.5,15.34a1,1,0,0,0-.21.62,1,1,0,0,0,.25.81,2.8,2.8,0,0,0,2.4,0,1.39,1.39,0,0,0-.32-1.32A2.51,2.51,0,0,1,12.5,15.34Z" />
    <g class="cls-2">
        <path class="cls-3"
            d="M15,16.36a1.77,1.77,0,0,1-.05.43,2.8,2.8,0,0,1-2.4,0,1,1,0,0,1-.25-.81,1.13,1.13,0,0,1,.15-.54v.1a1,1,0,0,0,.8,1A3.55,3.55,0,0,0,15,16.36Z" />
    </g>
    <path class="cls-3"
        d="M13.62,17.2a2.09,2.09,0,0,1-1.18-.28h0a1.41,1.41,0,0,1-.06-1.69l.11-.12.13.09a2.33,2.33,0,0,0,2,.11l.1,0,.08.07a1.59,1.59,0,0,1,.38,1.51l0,.09L15,17A4.44,4.44,0,0,1,13.62,17.2Zm-1-.57a2.69,2.69,0,0,0,2.12,0,1.18,1.18,0,0,0-.2-1,2.63,2.63,0,0,1-2-.08.73.73,0,0,0-.09.38A.91.91,0,0,0,12.66,16.63Z" />
    <rect class="cls-4" x="13.64" y="14.14" width="5.63" height="3.79" rx="0.85"
        transform="translate(-2.06 2.43) rotate(-7.94)" />
    <path class="cls-4"
        d="M18.39,16.81a.85.85,0,0,1-.72,1l-3.06.42a.84.84,0,0,1-.79-.73v0l-.28-2a.85.85,0,0,1,.72-1L17.3,14a.85.85,0,0,1,.77.58.8.8,0,0,1,0,.15Z" />
    <g class="cls-2">
        <path class="cls-3"
            d="M18.39,16.81a.85.85,0,0,1-.72,1l-3.06.42a.84.84,0,0,1-.79-.73v0A4.79,4.79,0,0,0,16.46,17a3.05,3.05,0,0,0,1.61-2.4.8.8,0,0,1,0,.15Z" />
    </g>
    <path class="cls-3"
        d="M14.62,18.37h0a1,1,0,0,1-1-.88l-.29-2.08a1,1,0,0,1,.87-1.16l3.08-.42h0a1,1,0,0,1,1,.88l.29,2.08a1,1,0,0,1-.2.76,1,1,0,0,1-.68.39Zm2.69-4.18-3,.42a.66.66,0,0,0-.56.75L14,17.44a.65.65,0,0,0,.61.57l3-.42a.67.67,0,0,0,.44-.26.63.63,0,0,0,.13-.49h0l-.29-2.07A.66.66,0,0,0,17.31,14.19Z" />
    <path class="cls-3"
        d="M14.66,18.39h-.05l0-.39,3.05-.43a.64.64,0,0,0,.43-.25.69.69,0,0,0,.13-.48l-.29-2.08a.65.65,0,0,0-.62-.55v-.4l.84-.12a1,1,0,0,1,.77.21,1,1,0,0,1,.41.68l.29,2.08a1,1,0,0,1-.21.78l0,0h0l-.07.08-.11.1-.09.05-.08.05a1.71,1.71,0,0,1-.3.09l-3.9.54h-.14ZM18,14.11a1,1,0,0,1,.3.6l.29,2.07a1,1,0,0,1-.15.69l.2,0a.6.6,0,0,0,.19-.06l.05,0,.05,0,.08-.06,0-.05h0a.62.62,0,0,0,.13-.49h0l-.29-2.07a.64.64,0,0,0-.73-.55Z" />
    <path class="cls-4"
        d="M19.39,16.69a.84.84,0,0,1-.72.95l-3.9.55h-.16l3.06-.42a.85.85,0,0,0,.72-1l-.24-1.71,0-.36a.84.84,0,0,0-.8-.73l.85-.12a.84.84,0,0,1,1,.72l.08.57Z" />
    <g class="cls-2">
        <path class="cls-3"
            d="M19.39,16.69a.84.84,0,0,1-.72.95l-3.9.55h-.16l3.06-.42a.85.85,0,0,0,.72-1l-.24-1.71c.17.21.41.42.65.39a.6.6,0,0,0,.38-.31Z" />
    </g>
    <path class="cls-3"
        d="M14.66,18.37h-.05l0-.36,3.05-.42a.67.67,0,0,0,.44-.26.63.63,0,0,0,.13-.49l-.29-2.08a.65.65,0,0,0-.63-.57v-.36l.84-.12a1,1,0,0,1,.76.2,1,1,0,0,1,.4.68l.29,2.07a1,1,0,0,1-.2.77l0,0h0l-.07.08-.11.09-.08.06-.09,0a.8.8,0,0,1-.3.09l-3.89.54h-.14ZM18,14.1a1,1,0,0,1,.32.61l.29,2.08a1,1,0,0,1-.16.71l.23,0a.59.59,0,0,0,.19-.05l.06,0,.05,0,.08-.06,0-.05h0v0a.65.65,0,0,0,.13-.5h0l-.29-2.07a.67.67,0,0,0-.75-.57Z" />
    <path class="cls-4"
        d="M21.9,13.63a.83.83,0,0,1,.45.58,1,1,0,0,1-.13.79,4.94,4.94,0,0,1-3.13,1.45.91.91,0,0,1-.17-1.29S21.09,15.08,21.9,13.63Z" />
    <g class="cls-2">
        <path class="cls-3"
            d="M22.37,14.29a1,1,0,0,1-.15.71,4.94,4.94,0,0,1-3.13,1.45.94.94,0,0,1-.3-1.08h0a.63.63,0,0,0,.72.48,4.63,4.63,0,0,0,2.76-1.39A.76.76,0,0,0,22.37,14.29Z" />
    </g>
    <path class="cls-3"
        d="M19.17,16.61a.43.43,0,0,1-.32-.14,1,1,0,0,1-.16-1.29A.44.44,0,0,1,19,15a3.66,3.66,0,0,0,2.59-1.23h0a.44.44,0,0,1,.33-.18.43.43,0,0,1,.34.13,1,1,0,0,1,.25.48,1.18,1.18,0,0,1-.17.94,5,5,0,0,1-3.12,1.49ZM21.9,14a4.07,4.07,0,0,1-2.85,1.38l-.06,0a.68.68,0,0,0,.13.86l.06,0a4.72,4.72,0,0,0,2.89-1.36.82.82,0,0,0,.11-.65.73.73,0,0,0-.16-.3.07.07,0,0,0-.06,0l-.06,0Z" />
    <path class="cls-8"
        d="M16.72,16c0,.07.18.6.18.6l.39-.05a.57.57,0,0,0,.39-.69c-.05-.34-.3-.58-.57-.54l-.38.06A5.79,5.79,0,0,0,16.72,16Z" />
    <g class="cls-2">
        <path class="cls-3"
            d="M16.72,16c0,.07.18.6.18.6l.39-.05a.57.57,0,0,0,.39-.69c-.05-.34-.3-.58-.57-.54l-.38.06A5.79,5.79,0,0,0,16.72,16Z" />
    </g>
    <path class="cls-3"
        d="M16.9,16.72a.11.11,0,0,1-.1-.08,6.45,6.45,0,0,1-.19-.62c0-.12,0-.56,0-.65a.13.13,0,0,1,.1-.11l.39,0a.67.67,0,0,1,.69.64.77.77,0,0,1-.09.52.51.51,0,0,1-.39.29l-.39.06ZM16.83,16l.15.48.29,0a.29.29,0,0,0,.23-.17.61.61,0,0,0,.07-.38c0-.28-.24-.48-.44-.45l-.29.05C16.83,15.67,16.83,15.92,16.83,16Z" />
    <ellipse class="cls-8" cx="16.82" cy="15.99" rx="0.49" ry="0.62" transform="translate(-2.13 2.59) rotate(-8.27)" />
    <g class="cls-9">
        <path class="cls-4"
            d="M16.46,16.3a.56.56,0,0,1,.39-.68.43.43,0,0,1,.42.2.52.52,0,0,0-.54-.44.55.55,0,0,0-.39.68.74.74,0,0,0,.14.34A.3.3,0,0,1,16.46,16.3Z" />
    </g>
    <g class="cls-2">
        <path class="cls-3"
            d="M17.3,15.92a.83.83,0,0,0-.19-.4v0a.57.57,0,0,1-.4.68.45.45,0,0,1-.38-.15.56.56,0,0,0,.56.51A.56.56,0,0,0,17.3,15.92Z" />
    </g>
    <path class="cls-3"
        d="M16.85,16.72a.7.7,0,0,1-.63-.64.86.86,0,0,1,.09-.53.6.6,0,0,1,.4-.29.58.58,0,0,1,.46.16.82.82,0,0,1,.24.48.69.69,0,0,1-.49.82Zm-.07-1.23h0a.32.32,0,0,0-.23.17.6.6,0,0,0-.06.38c0,.28.24.48.44.45a.45.45,0,0,0,.29-.55.58.58,0,0,0-.17-.35A.32.32,0,0,0,16.78,15.49Z" />
    <path class="cls-4"
        d="M11.44,11.79a6.16,6.16,0,0,0,2.81,1.39c.22,0,.44.08.66.1l.33,0a6.65,6.65,0,0,0,1,0,7.43,7.43,0,0,0,.82-.16,5.21,5.21,0,0,0,.94-.32,2.3,2.3,0,0,0,.32-.15A6.23,6.23,0,0,0,15.79.85a6,6,0,0,0-1.91.21l-.22.06-.55.2A7.1,7.1,0,0,0,11.93,2a6.5,6.5,0,0,0-1,.89c-.1.1-.19.21-.28.32a4.87,4.87,0,0,0-.37.52,6.23,6.23,0,0,0,1.16,8.09Z" />
    <path class="cls-4"
        d="M11.44,11.79a6.16,6.16,0,0,0,2.81,1.39c.22,0,.44.08.66.1l.33,0a6.65,6.65,0,0,0,1,0,7.43,7.43,0,0,0,.82-.16,5.21,5.21,0,0,0,.94-.32,2.3,2.3,0,0,0,.32-.15A6.23,6.23,0,0,0,15.79.85a6,6,0,0,0-1.91.21l-.22.06-.55.2A7.1,7.1,0,0,0,11.93,2a6.5,6.5,0,0,0-1,.89c-.1.1-.19.21-.28.32a4.87,4.87,0,0,0-.37.52,6.23,6.23,0,0,0,1.16,8.09Z" />
    <g class="cls-2">
        <path class="cls-3"
            d="M11.51,12.41a6.14,6.14,0,0,0,2.82,1.39,4.77,4.77,0,0,0,.66.1l.33,0a6.45,6.45,0,0,0,1,0,5.77,5.77,0,0,0,.83-.15,6,6,0,0,0,.93-.32l.33-.15a6.24,6.24,0,0,0-2.53-11.8A6.44,6.44,0,0,0,14,1.69l-.21.06a5.14,5.14,0,0,0-.55.2A5.9,5.9,0,0,0,12,2.6a6.43,6.43,0,0,0-1,.88l-.28.32a5,5,0,0,0-.37.53,6.15,6.15,0,0,0-1,3.1A6.21,6.21,0,0,0,11.51,12.41Z" />
    </g>
    <path class="cls-4"
        d="M11.44,11.79a6.16,6.16,0,0,0,2.81,1.39c.22,0,.44.08.66.1l.33,0a6.65,6.65,0,0,0,1,0,7.43,7.43,0,0,0,.82-.16,5.21,5.21,0,0,0,.94-.32,2.3,2.3,0,0,0,.32-.15A6.23,6.23,0,0,0,15.79.85a6,6,0,0,0-1.91.21l-.22.06-.55.2A7.1,7.1,0,0,0,11.93,2a6.5,6.5,0,0,0-1,.89c-.1.1-.19.21-.28.32a4.87,4.87,0,0,0-.37.52,6.23,6.23,0,0,0,1.16,8.09Z" />
    <path class="cls-3"
        d="M15.52,13.46h-.28l-.34,0c-.23,0-.46-.06-.68-.11a6.3,6.3,0,0,1-2.88-1.42h0a6.38,6.38,0,0,1-1.19-8.28q.18-.27.39-.54a4.09,4.09,0,0,1,.28-.33,6.33,6.33,0,0,1,1-.9,6.7,6.7,0,0,1,1.2-.67l.57-.2.22-.07a6.39,6.39,0,0,1,4.55,11.87l-.33.15a6.06,6.06,0,0,1-1,.33,6.31,6.31,0,0,1-.85.15A5.84,5.84,0,0,1,15.52,13.46Zm-4-1.79A6.06,6.06,0,0,0,14.28,13c.21,0,.43.08.65.1l.32,0a6.29,6.29,0,0,0,1,0A5.37,5.37,0,0,0,17,13a6.22,6.22,0,0,0,.92-.31l.31-.15A6.09,6.09,0,0,0,13.92,1.2l-.21.07a4.93,4.93,0,0,0-.54.19A5.9,5.9,0,0,0,12,2.1,6.64,6.64,0,0,0,11,3l-.27.31c-.13.17-.26.34-.37.51a6.12,6.12,0,0,0-1,3,6,6,0,0,0,2.1,4.86Z" />
    <g class="cls-2">
        <path class="cls-3"
            d="M11.44,11.79a6.16,6.16,0,0,0,2.81,1.39c.22,0,.44.08.66.1l.33,0a6.65,6.65,0,0,0,1,0,7.43,7.43,0,0,0,.82-.16,6.51,6.51,0,0,0,.94-.32,2.3,2.3,0,0,0,.32-.15,6.24,6.24,0,0,0,2.57-8.72A6.21,6.21,0,0,1,21,5.42a5.1,5.1,0,0,1-.86,2.13,6.51,6.51,0,0,1-2.56,3.17l-.33.15a5.78,5.78,0,0,1-.94.32,6.06,6.06,0,0,1-1.81.18l-.33,0a4.55,4.55,0,0,1-.66-.1A6.24,6.24,0,0,1,10.7,9.86,6.51,6.51,0,0,1,9.4,8.3,6.29,6.29,0,0,0,11.44,11.79Z" />
    </g>
    <path class="cls-10"
        d="M15.52,13.52h-.29l-.34,0c-.23,0-.46-.06-.68-.11A6.37,6.37,0,0,1,11.3,12h0a6.46,6.46,0,0,1-1.2-8.37,6.55,6.55,0,0,1,.39-.53,3.07,3.07,0,0,1,.29-.34,6.85,6.85,0,0,1,1-.91A6.29,6.29,0,0,1,13,1.13L13.6.92l.22-.06a6.28,6.28,0,0,1,2-.22,6.45,6.45,0,0,1,2.62,12.19l-.34.16a6.52,6.52,0,0,1-1,.33,6.31,6.31,0,0,1-.85.15A6,6,0,0,1,15.52,13.52Zm-3.95-1.89A6.11,6.11,0,0,0,14.29,13c.21,0,.43.08.64.1l.32,0a7.64,7.64,0,0,0,1,0,5.62,5.62,0,0,0,.8-.15,6,6,0,0,0,.9-.31,2.3,2.3,0,0,0,.32-.15,6,6,0,0,0-4.3-11.19l-.2.06c-.18.06-.36.12-.54.2a5.44,5.44,0,0,0-1.13.63,5.64,5.64,0,0,0-1,.85,3.88,3.88,0,0,0-.26.31,5.86,5.86,0,0,0-.37.5,6.14,6.14,0,0,0-.95,3,6,6,0,0,0,2.07,4.82Z" />
    <path class="cls-3"
        d="M15.52,13.52h-.29l-.34,0c-.23,0-.46-.06-.68-.11A6.37,6.37,0,0,1,11.3,12h0a6.46,6.46,0,0,1-1.2-8.37,6.55,6.55,0,0,1,.39-.53,3.07,3.07,0,0,1,.29-.34,6.85,6.85,0,0,1,1-.91A6.29,6.29,0,0,1,13,1.13L13.6.92l.22-.06a6.28,6.28,0,0,1,2-.22,6.45,6.45,0,0,1,2.62,12.19l-.34.16a6.52,6.52,0,0,1-1,.33,6.31,6.31,0,0,1-.85.15A6,6,0,0,1,15.52,13.52Zm-3.95-1.89A6.11,6.11,0,0,0,14.29,13c.21,0,.43.08.64.1l.32,0a7.64,7.64,0,0,0,1,0,5.62,5.62,0,0,0,.8-.15,6,6,0,0,0,.9-.31,2.3,2.3,0,0,0,.32-.15,6,6,0,0,0-4.3-11.19l-.2.06c-.18.06-.36.12-.54.2a5.44,5.44,0,0,0-1.13.63,5.64,5.64,0,0,0-1,.85,3.88,3.88,0,0,0-.26.31,5.86,5.86,0,0,0-.37.5,6.14,6.14,0,0,0-.95,3,6,6,0,0,0,2.07,4.82Z" />
    <path class="cls-3"
        d="M12.77,12.67c4.31,1.1,8.32-2.35,7-6.56a5.49,5.49,0,0,0-7.08-3.19c-2,.75-3.56,2.34-3.23,5.71a6.3,6.3,0,0,0,1.11,2.26,14.32,14.32,0,0,0,1.59,1.45Z" />
    <path class="cls-11"
        d="M9.83,9.06a1.86,1.86,0,0,0,.1.25,14.65,14.65,0,0,0,1,1.88l.45.51c3.73,2.43,8.64.46,8.77-3.95a5.69,5.69,0,0,0-.06-.83c-1.49,3.62-6.25,4.91-10,2.45Z" />
    <path class="cls-3"
        d="M15.52,13.46h-.28l-.34,0c-.23,0-.46-.06-.68-.11a6.3,6.3,0,0,1-2.88-1.42h0a6.38,6.38,0,0,1-1.19-8.28v0h0A6.23,6.23,0,0,1,12.4,2.2a6.57,6.57,0,0,1,5.15.28,5.67,5.67,0,0,1,3,3.39,5.73,5.73,0,0,1-.4,4.53,6.34,6.34,0,0,1-3.88,3h0A5.84,5.84,0,0,1,15.52,13.46Zm-4-1.79A6.06,6.06,0,0,0,14.28,13c.21,0,.43.08.65.1l.32,0a7.7,7.7,0,0,0,1,0,6.1,6.1,0,0,0,3.69-2.86A5.43,5.43,0,0,0,20.27,6a5.32,5.32,0,0,0-2.85-3.21,6.24,6.24,0,0,0-4.91-.27A5.7,5.7,0,0,0,10.4,3.79a6.07,6.07,0,0,0,1.14,7.88Z" />
    <path class="cls-3"
        d="M14.39,13a6.37,6.37,0,0,1-1.66-.22h0l-.62-.35A15.6,15.6,0,0,1,10.48,11,6.28,6.28,0,0,1,9.34,8.67v0c-.29-2.94.83-4.92,3.32-5.87A5.92,5.92,0,0,1,17.24,3a5.12,5.12,0,0,1,1.53,8.18A6,6,0,0,1,14.39,13Zm-1.57-.5A5.9,5.9,0,0,0,18.56,11a4.83,4.83,0,0,0-1.45-7.7,5.64,5.64,0,0,0-4.35-.24C10.41,4,9.36,5.82,9.63,8.6a5.87,5.87,0,0,0,1.07,2.19,13.61,13.61,0,0,0,1.56,1.42Z" />
    <ellipse class="cls-4" cx="21.07" cy="6.53" rx="1.62" ry="2.23" transform="translate(-0.77 3.44) rotate(-9.16)" />
    <g class="cls-2">
        <path class="cls-3"
            d="M21.53,8.71c-.86.23-1.77-.56-2-1.76v0a.59.59,0,0,0,.5.26A2.3,2.3,0,0,0,20.9,5c-.06-.23,1.48,0,1.73,1.14A2.11,2.11,0,0,1,21.53,8.71Z" />
    </g>
    <path class="cls-3"
        d="M21.23,8.9a1.56,1.56,0,0,1-.79-.23A2.6,2.6,0,0,1,19.35,7a2.26,2.26,0,0,1,1.21-2.77,1.44,1.44,0,0,1,1.13.19,2.6,2.6,0,0,1,1.09,1.69h0a2.26,2.26,0,0,1-1.21,2.77A1.32,1.32,0,0,1,21.23,8.9ZM20.9,4.47l-.27,0a2,2,0,0,0-1,2.42,2.31,2.31,0,0,0,1,1.49,1.17,1.17,0,0,0,.9.16,2,2,0,0,0,1-2.42h0a2.31,2.31,0,0,0-1-1.49A1.16,1.16,0,0,0,20.9,4.47Z" />
    <ellipse class="cls-4" cx="21.61" cy="6.56" rx="1.22" ry="1.82"
        transform="matrix(0.99, -0.16, 0.16, 0.99, -0.77, 3.52)" />
    <path class="cls-3"
        d="M21.77,8.52a1.1,1.1,0,0,1-.59-.18,2.22,2.22,0,0,1-.9-1.43,1.87,1.87,0,0,1,.92-2.27,1,1,0,0,1,.84.14,2.19,2.19,0,0,1,.9,1.43h0A1.88,1.88,0,0,1,22,8.48,1.27,1.27,0,0,1,21.77,8.52Zm-.31-3.61a.5.5,0,0,0-.18,0c-.58.16-.89,1-.7,1.92a1.92,1.92,0,0,0,.76,1.24.79.79,0,0,0,.61.1c.57-.16.89-1,.7-1.92h0A1.93,1.93,0,0,0,21.88,5,.84.84,0,0,0,21.46,4.91Z" />
    <g class="cls-9">
        <ellipse class="cls-4" cx="17.48" cy="6" rx="0.8" ry="0.93" transform="translate(-0.51 1.77) rotate(-5.72)" />
    </g>
    <g class="cls-9">
        <ellipse class="cls-4" cx="18.1" cy="7.93" rx="0.33" ry="0.38"
            transform="translate(-0.12 0.28) rotate(-0.88)" />
    </g>
    <g class="cls-9">
        <path class="cls-4"
            d="M10.7,8.76s-1-2.74.23-4a4,4,0,0,1,3.15-1.18,5.25,5.25,0,0,0-2.83,2.78A10.59,10.59,0,0,0,10.7,8.76Z" />
    </g>
    <g class="cls-2">
        <path class="cls-3"
            d="M20.52,7.54a2.06,2.06,0,0,1-.21-1,1,1,0,0,0,1.63.32,1.85,1.85,0,0,0,.55-1.34.83.83,0,0,1,.07.13,2.25,2.25,0,0,1-.22,2.43A1.19,1.19,0,0,1,20.52,7.54Z" />
    </g>
    <path class="cls-4"
        d="M12.37,13.07c-1.64-.58.15-.53,1.74-1.55,1.88-1.21,1.29-3,.82-3.27s-1.27-.12-2.68.19c-1.93.41-3.81,1-3.8,3.27,0,2.6,3,2.95,4.27,2.93,0,0,.59-.23.18-.65A1.8,1.8,0,0,1,12.37,13.07Z" />
    <g class="cls-2">
        <path class="cls-3"
            d="M12.72,14.64c-1.31,0-4.2-.33-4.27-2.86.4,1.66,2.47,2.09,3.85,2.18a.48.48,0,0,1,.42.68Z" />
    </g>
    <g class="cls-2">
        <path class="cls-3"
            d="M14.11,11.52c-1.44.92-3,1-2.13,1.39-2-.92.22-1.29,1.92-2.11a2.18,2.18,0,0,0,1.43-1.89A2.33,2.33,0,0,1,14.11,11.52Z" />
    </g>
    <path class="cls-3"
        d="M12.73,14.81a7,7,0,0,1-1.37-.09A5.07,5.07,0,0,1,10,14.34a3.14,3.14,0,0,1-1.15-.83,2.7,2.7,0,0,1-.59-1.31,4.18,4.18,0,0,1,0-.71,3.38,3.38,0,0,1,.1-.7,3.27,3.27,0,0,1,.28-.67,2.46,2.46,0,0,1,.45-.56,3.77,3.77,0,0,1,1.19-.76,8.56,8.56,0,0,1,1.3-.42q.33-.09.66-.15l.65-.15.66-.15a4.06,4.06,0,0,1,.71-.08,1.65,1.65,0,0,1,.38.05l.19.07.09,0,.08.05.05,0,0,0a.6.6,0,0,0,.08.08l.06.08a.24.24,0,0,1,.06.08,1.54,1.54,0,0,1,.17.34,2.12,2.12,0,0,1,0,1.45,2.31,2.31,0,0,1-.32.65,3.48,3.48,0,0,1-.48.53,4.3,4.3,0,0,1-.57.41c-.2.12-.4.23-.61.33a13.19,13.19,0,0,1-1.26.5l-.29.12-.08,0h0v-.05h0l.1.08.13.08.29.15h0a.1.1,0,0,1-.06.19,1.89,1.89,0,0,1-.34-.09L11.83,13a.8.8,0,0,1-.18-.12.3.3,0,0,1-.09-.15.24.24,0,0,1,0-.12v0l0,0a.24.24,0,0,1,.1-.1l.08-.06.33-.15c.21-.08.42-.15.62-.24a5.42,5.42,0,0,0,.6-.26A4.63,4.63,0,0,0,14.42,11a2.24,2.24,0,0,0,.69-1,1.83,1.83,0,0,0,0-1.18A1.46,1.46,0,0,0,15,8.59a.21.21,0,0,1,0-.06l0,0a.08.08,0,0,1,0,0h0l0,0-.06,0-.06,0-.13,0a.92.92,0,0,0-.29,0,3.57,3.57,0,0,0-.62.07c-.21,0-.43.09-.64.15l-.66.14-.65.15a8.55,8.55,0,0,0-1.24.4,3.46,3.46,0,0,0-1.07.67,2.3,2.3,0,0,0-.62,1.05,3.1,3.1,0,0,0-.09.61,3.25,3.25,0,0,0,0,.63,2.15,2.15,0,0,0,.49,1.11,2.85,2.85,0,0,0,1,.73,4.61,4.61,0,0,0,1.23.37,7.07,7.07,0,0,0,1.3.12h0a.17.17,0,0,1,.17.17A.16.16,0,0,1,12.73,14.81Z" />
    <path class="cls-3"
        d="M12.68,12.36h0A2.6,2.6,0,0,1,11,11a2.7,2.7,0,0,1,0-2.3.15.15,0,0,1,.21-.07.16.16,0,0,1,.06.21h0a2.41,2.41,0,0,0,0,2,2.29,2.29,0,0,0,1.49,1.22.16.16,0,0,1,.12.18A.16.16,0,0,1,12.68,12.36Z" />
    <path class="cls-3"
        d="M13.19,22.28a5.32,5.32,0,0,1-2.63-.54.15.15,0,0,1-.05-.2.15.15,0,0,1,.21-.05,6.25,6.25,0,0,0,3.8.4.14.14,0,0,1,.17.12.15.15,0,0,1-.13.17A9.93,9.93,0,0,1,13.19,22.28Z" />
    <path class="cls-3"
        d="M20.12,21.38a.16.16,0,0,1-.15-.14.16.16,0,0,1,.14-.16,5.48,5.48,0,0,0,3.44-1.2.17.17,0,0,1,.22,0,.16.16,0,0,1,0,.22,5.72,5.72,0,0,1-3.64,1.29Z" />
    <path class="cls-3"
        d="M16,18.15a.16.16,0,0,1-.15-.12l-.21-1.32s0,0,0-.05l-.51-.23a.35.35,0,0,1-.21-.28l-.25-1.76a.14.14,0,0,1,.12-.17.15.15,0,0,1,.17.12l.25,1.76a0,0,0,0,0,0,0l.51.24a.36.36,0,0,1,.21.27L16.13,18a.15.15,0,0,1-.12.17Z" />
    <path class="cls-4" d="M25.26,8.15a11.17,11.17,0,0,0-.82.84L24,8l.17-.29s.74-.6,1.16-.4S25.48,7.89,25.26,8.15Z" />
    <path class="cls-3"
        d="M24.07,7.63a2.81,2.81,0,0,1,.31-.29,1.79,1.79,0,0,1,.38-.22A.86.86,0,0,1,25,7.06a.67.67,0,0,1,.28,0l.13,0,.06,0,.06,0a.54.54,0,0,1,.17.26.61.61,0,0,1,0,.3.8.8,0,0,1-.1.23,1.21,1.21,0,0,1-.29.34,2.6,2.6,0,0,1-.32.26,3.81,3.81,0,0,1-.32.24h0a.06.06,0,0,1-.09,0,.08.08,0,0,1,0-.08,5.39,5.39,0,0,1,.51-.63L25.18,8l.09-.15a.42.42,0,0,0,.05-.24l-.05-.07h0l0,0,0,0h0a.48.48,0,0,0-.29,0,3.67,3.67,0,0,0-.71.27h0a.06.06,0,0,1-.08,0S24.06,7.65,24.07,7.63Z" />
    <path class="cls-3"
        d="M25,11.06h0c-1.72-.32-1.84-3-1.84-3.15a.14.14,0,0,1,.14-.16.15.15,0,0,1,.16.15s.11,2.59,1.59,2.87a.14.14,0,0,1,.12.17A.14.14,0,0,1,25,11.06Z" />
    <path class="cls-3"
        d="M23.41,16.9a.55.55,0,0,1-.28-.07c-.34-.18-.55-.69-.69-1.68a.44.44,0,0,1,.26-.46l.69-.3a.43.43,0,0,1,.35,0,.41.41,0,0,1,.23.27c.2.68.43,1.86-.22,2.15A.73.73,0,0,1,23.41,16.9ZM22.82,15a.13.13,0,0,0-.08.13c.05.32.18,1.28.53,1.47a.42.42,0,0,0,.36,0c.37-.17.27-1,.05-1.8a.13.13,0,0,0-.07-.08.09.09,0,0,0-.1,0Z" />
</svg>