<svg width="24" height="32" xmlns="http://www.w3.org/2000/svg" xmlns:xlink="http://www.w3.org/1999/xlink"
    viewBox="0 0 35 35.71">
    <defs>
        <style>
            .cls-1 {
                fill: none;
            }

            .cls-2 {
                clip-path: url(#clip-path);
            }

            .cls-3 {
                fill: #ec1c24;
            }

            .cls-4 {
                fill: #ec1d24;
            }

            .cls-5 {
                fill: #ec1e24;
            }

            .cls-6 {
                fill: #ec1f24;
            }

            .cls-7 {
                fill: #ec2024;
            }

            .cls-8 {
                fill: #ed2124;
            }

            .cls-9 {
                fill: #ed2224;
            }

            .cls-10 {
                fill: #ed2324;
            }

            .cls-11 {
                fill: #ed2424;
            }

            .cls-12 {
                fill: #ed2524;
            }

            .cls-13 {
                fill: #ed2624;
            }

            .cls-14 {
                fill: #ed2724;
            }

            .cls-15 {
                fill: #ed2824;
            }

            .cls-16 {
                fill: #ed2924;
            }

            .cls-17 {
                fill: #ed2a24;
            }

            .cls-18 {
                fill: #ee2a24;
            }

            .cls-19 {
                fill: #ee2b24;
            }

            .cls-20 {
                fill: #ee2c24;
            }

            .cls-21 {
                fill: #ee2d24;
            }

            .cls-22 {
                fill: #ee2e24;
            }

            .cls-23 {
                fill: #ee2f24;
            }

            .cls-24 {
                fill: #ee3024;
            }

            .cls-25 {
                fill: #ee3124;
            }

            .cls-26 {
                fill: #ee3224;
            }

            .cls-27 {
                fill: #ee3225;
            }

            .cls-28 {
                fill: #ef3325;
            }

            .cls-29 {
                fill: #ef3425;
            }

            .cls-30 {
                fill: #ef3525;
            }

            .cls-31 {
                fill: #ef3625;
            }

            .cls-32 {
                fill: #ef3725;
            }

            .cls-33 {
                fill: #ef3825;
            }

            .cls-34 {
                fill: #ef3925;
            }

            .cls-35 {
                fill: #ef3a25;
            }

            .cls-36 {
                fill: #ef3b25;
            }

            .cls-37 {
                fill: #ef3c25;
            }

            .cls-38 {
                fill: #f03d25;
            }

            .cls-39 {
                fill: #f03e25;
            }

            .cls-40 {
                fill: #f03f25;
            }

            .cls-41 {
                fill: #f04025;
            }

            .cls-42 {
                fill: #f04125;
            }

            .cls-43 {
                fill: #f04225;
            }

            .cls-44 {
                fill: #f04325;
            }

            .cls-45 {
                fill: #f04425;
            }

            .cls-46 {
                fill: #f04525;
            }

            .cls-47 {
                fill: #f14625;
            }

            .cls-48 {
                fill: #f14725;
            }

            .cls-49 {
                fill: #f14825;
            }

            .cls-50 {
                fill: #f14925;
            }

            .cls-51 {
                fill: #f14a25;
            }

            .cls-52 {
                fill: #f14b25;
            }

            .cls-53 {
                fill: #f14c25;
            }

            .cls-54 {
                fill: #f14d25;
            }

            .cls-55 {
                fill: #f14e25;
            }

            .cls-56 {
                fill: #f24f25;
            }

            .cls-57 {
                fill: #f25025;
            }

            .cls-58 {
                fill: #f25125;
            }

            .cls-59 {
                fill: #f25225;
            }

            .cls-60 {
                fill: #f25325;
            }

            .cls-61 {
                fill: #f25425;
            }

            .cls-62 {
                fill: #f25525;
            }

            .cls-63 {
                fill: #f25625;
            }

            .cls-64 {
                fill: #f25725;
            }

            .cls-65 {
                fill: #f35825;
            }

            .cls-66 {
                fill: #f35925;
            }

            .cls-67 {
                fill: #f35a25;
            }

            .cls-68 {
                fill: #f35c25;
            }

            .cls-69 {
                fill: #f35d25;
            }

            .cls-70 {
                fill: #f35e26;
            }

            .cls-71 {
                fill: #f35f26;
            }

            .cls-72 {
                fill: #f36026;
            }

            .cls-73 {
                fill: #f46126;
            }

            .cls-74 {
                fill: #f46226;
            }

            .cls-75 {
                fill: #f46426;
            }

            .cls-76 {
                fill: #f46526;
            }

            .cls-77 {
                fill: #f46626;
            }

            .cls-78 {
                fill: #f46726;
            }

            .cls-79 {
                fill: #f46826;
            }

            .cls-80 {
                fill: #f46a26;
            }

            .cls-81 {
                fill: #f56b26;
            }

            .cls-82 {
                fill: #f56c26;
            }

            .cls-83 {
                fill: #f56d26;
            }

            .cls-84 {
                fill: #f56f26;
            }

            .cls-85 {
                fill: #f57026;
            }

            .cls-86 {
                fill: #f57126;
            }

            .cls-87 {
                fill: #f57226;
            }

            .cls-88 {
                fill: #f67426;
            }

            .cls-89 {
                fill: #f67526;
            }

            .cls-90 {
                fill: #f67626;
            }

            .cls-91 {
                fill: #f67726;
            }

            .cls-92 {
                fill: #f67926;
            }

            .cls-93 {
                fill: #f67a26;
            }

            .cls-94 {
                fill: #f67b26;
            }

            .cls-95 {
                fill: #f77d26;
            }

            .cls-96 {
                fill: #f77e26;
            }

            .cls-97 {
                fill: #f77f26;
            }

            .cls-98 {
                fill: #f78126;
            }

            .cls-99 {
                fill: #f78226;
            }

            .cls-100 {
                fill: #f78426;
            }

            .cls-101 {
                fill: #f78526;
            }

            .cls-102 {
                fill: #f88626;
            }

            .cls-103 {
                fill: #f88826;
            }

            .cls-104 {
                fill: #f88927;
            }

            .cls-105 {
                fill: #f88a27;
            }

            .cls-106 {
                fill: #f88c27;
            }

            .cls-107 {
                fill: #f88d27;
            }

            .cls-108 {
                fill: #f98f27;
            }

            .cls-109 {
                fill: #f99027;
            }

            .cls-110 {
                fill: #f99227;
            }

            .cls-111 {
                fill: #f99327;
            }

            .cls-112 {
                fill: #f99427;
            }

            .cls-113 {
                fill: #f99627;
            }

            .cls-114 {
                fill: #f99727;
            }

            .cls-115 {
                fill: #fa9927;
            }

            .cls-116 {
                fill: #fa9a27;
            }

            .cls-117 {
                fill: #fa9c27;
            }

            .cls-118 {
                fill: #fa9d27;
            }

            .cls-119 {
                fill: #fa9f27;
            }

            .cls-120 {
                fill: #faa027;
            }

            .cls-121 {
                fill: #fba227;
            }

            .cls-122 {
                fill: #fba327;
            }

            .cls-123 {
                fill: #fba527;
            }

            .cls-124 {
                fill: #fba627;
            }

            .cls-125 {
                fill: #fba827;
            }

            .cls-126 {
                fill: #fbaa27;
            }

            .cls-127 {
                fill: #fcab27;
            }

            .cls-128 {
                fill: #fcad27;
            }

            .cls-129 {
                fill: #fcae27;
            }

            .cls-130 {
                fill: #fcb027;
            }

            .cls-131 {
                fill: #fcb127;
            }

            .cls-132 {
                fill: #fcb327;
            }

            .cls-133 {
                fill: #fdb528;
            }

            .cls-134 {
                fill: #fdb628;
            }

            .cls-135 {
                fill: #fdb828;
            }

            .cls-136 {
                fill: #fdb928;
            }

            .cls-137 {
                fill: #fdbb28;
            }

            .cls-138 {
                fill: #febd28;
            }

            .cls-139 {
                fill: #febe28;
            }

            .cls-140 {
                fill: #fec028;
            }

            .cls-141 {
                fill: #fec228;
            }

            .cls-142 {
                fill: #fec328;
            }

            .cls-143 {
                fill: #fec528;
            }

            .cls-144 {
                fill: #ffc728;
            }

            .cls-145 {
                fill: #ffc828;
            }

            .cls-146 {
                fill: #ffca28;
            }

            .cls-147 {
                opacity: 0.5;
            }

            .cls-148 {
                fill: #fff;
            }

            .cls-149 {
                opacity: 0.3;
            }

            .cls-150 {
                fill: #371a45;
            }

            .cls-151 {
                fill: #ffd553;
            }

            .cls-152 {
                opacity: 0.25;
            }

            .cls-153 {
                opacity: 0.35;
            }

            .cls-154 {
                fill: #0af;
            }

            .cls-155 {
                opacity: 0.6;
            }

            .cls-156 {
                fill: url(#무제_그라디언트_11);
            }

            .cls-157 {
                fill: #d25658;
            }

            .cls-158 {
                fill: url(#무제_그라디언트_11-2);
            }

            .cls-159 {
                fill: url(#무제_그라디언트_11-3);
            }

            .cls-160 {
                fill: url(#무제_그라디언트_11-4);
            }

            .cls-161 {
                fill: #6bd6f0;
            }

            .cls-162 {
                opacity: 0.2;
            }

            .cls-163 {
                fill: url(#무제_그라디언트_11-5);
            }

            .cls-164 {
                opacity: 0.7;
            }

            .cls-165 {
                fill: #111a28;
            }

            .cls-166 {
                fill: #22a7f0;
            }
        </style>
        <clipPath id="clip-path">
            <path id="SVGID" class="cls-1"
                d="M1.66,33.32c3.64-1.58,4.8.94,7.11-.06s1.72-3.68,1.72-3.68-1.55-2.26-3.86-1.26S5.3,31.74,1.66,33.32Z" />
        </clipPath>
        <linearGradient id="무제_그라디언트_11" x1="7.78" y1="25.18" x2="13.43" y2="25.18" gradientUnits="userSpaceOnUse">
            <stop offset="0" stop-color="#fec300" />
            <stop offset="1" stop-color="#ffe812" />
        </linearGradient>
        <linearGradient id="무제_그라디언트_11-2" x1="11.92" y1="33.29" x2="16.07" y2="33.29" xlink:href="#무제_그라디언트_11" />
        <linearGradient id="무제_그라디언트_11-3" x1="25.01" y1="23.46" x2="32.02" y2="23.46" xlink:href="#무제_그라디언트_11" />
        <linearGradient id="무제_그라디언트_11-4" x1="20.11" y1="24.93" x2="25.71" y2="24.93" xlink:href="#무제_그라디언트_11" />
        <linearGradient id="무제_그라디언트_11-5" x1="9.89" y1="29.02" x2="14.71" y2="29.02" xlink:href="#무제_그라디언트_11" />
    </defs>
    <title>stake1-대지 21</title>
    <g class="cls-2">
        <polygon class="cls-3" points="1.66 33.32 2.16 34.26 1.66 34.26 1.66 33.32" />
        <polygon class="cls-3" points="1.66 33.2 2.22 34.26 2.16 34.26 1.66 33.32 1.66 33.2" />
        <polygon class="cls-3" points="1.66 33.09 2.28 34.26 2.22 34.26 1.66 33.2 1.66 33.09" />
        <polygon class="cls-3" points="1.66 32.97 2.35 34.26 2.28 34.26 1.66 33.09 1.66 32.97" />
        <polygon class="cls-3" points="1.66 32.85 2.41 34.26 2.35 34.26 1.66 32.97 1.66 32.85" />
        <polygon class="cls-3" points="1.66 32.73 2.47 34.26 2.41 34.26 1.66 32.85 1.66 32.73" />
        <polygon class="cls-3" points="1.66 32.62 2.53 34.26 2.47 34.26 1.66 32.73 1.66 32.62" />
        <polygon class="cls-4" points="1.66 32.5 2.6 34.26 2.53 34.26 1.66 32.62 1.66 32.5" />
        <polygon class="cls-4" points="1.66 32.38 2.66 34.26 2.6 34.26 1.66 32.5 1.66 32.38" />
        <polygon class="cls-4" points="1.66 32.27 2.72 34.26 2.66 34.26 1.66 32.38 1.66 32.27" />
        <polygon class="cls-4" points="1.66 32.15 2.78 34.26 2.72 34.26 1.66 32.27 1.66 32.15" />
        <polygon class="cls-4" points="1.66 32.03 2.84 34.26 2.78 34.26 1.66 32.15 1.66 32.03" />
        <polygon class="cls-5" points="1.66 31.92 2.9 34.26 2.84 34.26 1.66 32.03 1.66 31.92" />
        <polygon class="cls-5" points="1.66 31.8 2.97 34.26 2.9 34.26 1.66 31.92 1.66 31.8" />
        <polygon class="cls-5" points="1.66 31.68 3.03 34.26 2.97 34.26 1.66 31.8 1.66 31.68" />
        <polygon class="cls-6" points="1.66 31.57 3.09 34.26 3.03 34.26 1.66 31.68 1.66 31.57" />
        <polygon class="cls-6" points="1.66 31.45 3.15 34.26 3.09 34.26 1.66 31.57 1.66 31.45" />
        <polygon class="cls-6" points="1.66 31.33 3.22 34.26 3.15 34.26 1.66 31.45 1.66 31.33" />
        <polygon class="cls-7" points="1.66 31.22 3.28 34.26 3.22 34.26 1.66 31.33 1.66 31.22" />
        <polygon class="cls-7" points="1.66 31.1 3.34 34.26 3.28 34.26 1.66 31.22 1.66 31.1" />
        <polygon class="cls-7" points="1.66 30.98 3.4 34.26 3.34 34.26 1.66 31.1 1.66 30.98" />
        <polygon class="cls-8" points="1.66 30.86 3.46 34.26 3.4 34.26 1.66 30.98 1.66 30.86" />
        <polygon class="cls-8" points="1.66 30.75 3.53 34.26 3.46 34.26 1.66 30.86 1.66 30.75" />
        <polygon class="cls-8" points="1.66 30.63 3.59 34.26 3.53 34.26 1.66 30.75 1.66 30.63" />
        <polygon class="cls-9" points="1.66 30.61 1.7 30.59 3.65 34.26 3.59 34.26 1.66 30.63 1.66 30.61" />
        <polygon class="cls-9" points="1.7 30.59 1.75 30.56 3.71 34.26 3.65 34.26 1.7 30.59" />
        <polygon class="cls-10" points="1.75 30.56 1.79 30.53 3.78 34.26 3.71 34.26 1.75 30.56" />
        <polygon class="cls-10" points="1.79 30.53 1.84 30.51 3.84 34.26 3.78 34.26 1.79 30.53" />
        <polygon class="cls-11" points="1.84 30.51 1.89 30.48 3.9 34.26 3.84 34.26 1.84 30.51" />
        <polygon class="cls-11" points="1.89 30.48 1.94 30.46 3.96 34.26 3.9 34.26 1.89 30.48" />
        <polygon class="cls-12" points="1.94 30.46 1.99 30.43 4.02 34.26 3.96 34.26 1.94 30.46" />
        <polygon class="cls-12" points="1.99 30.43 2.04 30.41 4.09 34.26 4.02 34.26 1.99 30.43" />
        <polygon class="cls-13" points="2.04 30.41 2.09 30.38 4.15 34.26 4.09 34.26 2.04 30.41" />
        <polygon class="cls-13" points="2.09 30.38 2.13 30.35 4.21 34.26 4.15 34.26 2.09 30.38" />
        <polygon class="cls-14" points="2.13 30.35 2.18 30.33 4.27 34.26 4.21 34.26 2.13 30.35" />
        <polygon class="cls-14" points="2.18 30.33 2.23 30.3 4.33 34.26 4.27 34.26 2.18 30.33" />
        <polygon class="cls-15" points="2.23 30.3 2.28 30.28 4.4 34.26 4.33 34.26 2.23 30.3" />
        <polygon class="cls-15" points="2.28 30.28 2.33 30.25 4.46 34.26 4.4 34.26 2.28 30.28" />
        <polygon class="cls-16" points="2.33 30.25 2.38 30.23 4.52 34.26 4.46 34.26 2.33 30.25" />
        <polygon class="cls-17" points="2.38 30.23 2.42 30.2 4.58 34.26 4.52 34.26 2.38 30.23" />
        <polygon class="cls-18" points="2.42 30.2 2.47 30.17 4.65 34.26 4.58 34.26 2.42 30.2" />
        <polygon class="cls-19" points="2.47 30.17 2.52 30.15 4.71 34.26 4.65 34.26 2.47 30.17" />
        <polygon class="cls-19" points="2.52 30.15 2.57 30.12 4.77 34.26 4.71 34.26 2.52 30.15" />
        <polygon class="cls-20" points="2.57 30.12 2.62 30.1 4.83 34.26 4.77 34.26 2.57 30.12" />
        <polygon class="cls-21" points="2.62 30.1 2.67 30.07 4.89 34.26 4.83 34.26 2.62 30.1" />
        <polygon class="cls-21" points="2.67 30.07 2.71 30.05 4.96 34.26 4.89 34.26 2.67 30.07" />
        <polygon class="cls-22" points="2.71 30.05 2.76 30.02 5.02 34.26 4.96 34.26 2.71 30.05" />
        <polygon class="cls-23" points="2.76 30.02 2.81 29.99 5.08 34.26 5.02 34.26 2.76 30.02" />
        <polygon class="cls-23" points="2.81 29.99 2.86 29.97 5.14 34.26 5.08 34.26 2.81 29.99" />
        <polygon class="cls-24" points="2.86 29.97 2.91 29.94 5.21 34.26 5.14 34.26 2.86 29.97" />
        <polygon class="cls-25" points="2.91 29.94 2.96 29.92 5.27 34.26 5.21 34.26 2.91 29.94" />
        <polygon class="cls-26" points="2.96 29.92 3.01 29.89 5.33 34.26 5.27 34.26 2.96 29.92" />
        <polygon class="cls-27" points="3.01 29.89 3.06 29.86 5.39 34.26 5.33 34.26 3.01 29.89" />
        <polygon class="cls-28" points="3.06 29.86 3.1 29.84 5.45 34.26 5.39 34.26 3.06 29.86" />
        <polygon class="cls-29" points="3.1 29.84 3.15 29.81 5.52 34.26 5.45 34.26 3.1 29.84" />
        <polygon class="cls-30" points="3.15 29.81 3.2 29.79 5.58 34.26 5.52 34.26 3.15 29.81" />
        <polygon class="cls-30" points="3.2 29.79 3.25 29.76 5.64 34.26 5.58 34.26 3.2 29.79" />
        <polygon class="cls-31" points="3.25 29.76 3.3 29.74 5.7 34.26 5.64 34.26 3.25 29.76" />
        <polygon class="cls-32" points="3.3 29.74 3.35 29.71 5.76 34.26 5.7 34.26 3.3 29.74" />
        <polygon class="cls-33" points="3.35 29.71 3.39 29.68 5.83 34.26 5.76 34.26 3.35 29.71" />
        <polygon class="cls-34" points="3.39 29.68 3.44 29.66 5.89 34.26 5.83 34.26 3.39 29.68" />
        <polygon class="cls-34" points="3.44 29.66 3.49 29.63 5.95 34.26 5.89 34.26 3.44 29.66" />
        <polygon class="cls-35" points="3.49 29.63 3.54 29.61 6.01 34.26 5.95 34.26 3.49 29.63" />
        <polygon class="cls-36" points="3.54 29.61 3.59 29.58 6.08 34.26 6.01 34.26 3.54 29.61" />
        <polygon class="cls-37" points="3.59 29.58 3.64 29.55 6.14 34.26 6.08 34.26 3.59 29.58" />
        <polygon class="cls-38" points="3.64 29.55 3.68 29.53 6.2 34.26 6.14 34.26 3.64 29.55" />
        <polygon class="cls-39" points="3.68 29.53 3.73 29.5 6.26 34.26 6.2 34.26 3.68 29.53" />
        <polygon class="cls-39" points="3.73 29.5 3.78 29.48 6.32 34.26 6.26 34.26 3.73 29.5" />
        <polygon class="cls-40" points="3.78 29.48 3.83 29.45 6.39 34.26 6.32 34.26 3.78 29.48" />
        <polygon class="cls-41" points="3.83 29.45 3.88 29.43 6.45 34.26 6.39 34.26 3.83 29.45" />
        <polygon class="cls-42" points="3.88 29.43 3.93 29.4 6.51 34.26 6.45 34.26 3.88 29.43" />
        <polygon class="cls-43" points="3.93 29.4 3.98 29.38 6.57 34.26 6.51 34.26 3.93 29.4" />
        <polygon class="cls-44" points="3.98 29.38 4.02 29.35 6.63 34.26 6.57 34.26 3.98 29.38" />
        <polygon class="cls-45" points="4.02 29.35 4.07 29.32 6.7 34.26 6.63 34.26 4.02 29.35" />
        <polygon class="cls-46" points="4.07 29.32 4.12 29.3 6.76 34.26 6.7 34.26 4.07 29.32" />
        <polygon class="cls-47" points="4.12 29.3 4.17 29.27 6.82 34.26 6.76 34.26 4.12 29.3" />
        <polygon class="cls-48" points="4.17 29.27 4.22 29.25 6.88 34.26 6.82 34.26 4.17 29.27" />
        <polygon class="cls-49" points="4.22 29.25 4.27 29.22 6.95 34.26 6.88 34.26 4.22 29.25" />
        <polygon class="cls-50" points="4.27 29.22 4.31 29.19 7.01 34.26 6.95 34.26 4.27 29.22" />
        <polygon class="cls-51" points="4.31 29.19 4.36 29.17 7.07 34.26 7.01 34.26 4.31 29.19" />
        <polygon class="cls-52" points="4.36 29.17 4.41 29.14 7.13 34.26 7.07 34.26 4.36 29.17" />
        <polygon class="cls-53" points="4.41 29.14 4.46 29.12 7.19 34.26 7.13 34.26 4.41 29.14" />
        <polygon class="cls-54" points="4.46 29.12 4.51 29.09 7.26 34.26 7.19 34.26 4.46 29.12" />
        <polygon class="cls-55" points="4.51 29.09 4.56 29.07 7.32 34.26 7.26 34.26 4.51 29.09" />
        <polygon class="cls-56" points="4.56 29.07 4.61 29.04 7.38 34.26 7.32 34.26 4.56 29.07" />
        <polygon class="cls-57" points="4.61 29.04 4.65 29.01 7.44 34.26 7.38 34.26 4.61 29.04" />
        <polygon class="cls-58" points="4.65 29.01 4.7 28.99 7.5 34.26 7.44 34.26 4.65 29.01" />
        <polygon class="cls-59" points="4.7 28.99 4.75 28.96 7.57 34.26 7.5 34.26 4.7 28.99" />
        <polygon class="cls-60" points="4.75 28.96 4.8 28.94 7.62 34.23 7.57 34.26 7.57 34.26 4.75 28.96" />
        <rect class="cls-61" x="6.2" y="28.57" width="0.05" height="6" transform="translate(-14.09 6.62) rotate(-28)" />
        <rect class="cls-62" x="6.25" y="28.55" width="0.05" height="6"
            transform="translate(-14.08 6.64) rotate(-28)" />
        <rect class="cls-63" x="6.3" y="28.52" width="0.05" height="6" transform="translate(-14.06 6.66) rotate(-28)" />
        <rect class="cls-64" x="6.35" y="28.5" width="0.05" height="6" transform="translate(-14.04 6.68) rotate(-28)" />
        <rect class="cls-65" x="6.4" y="28.47" width="0.05" height="6" transform="translate(-14.02 6.7) rotate(-28)" />
        <rect class="cls-66" x="6.45" y="28.44" width="0.05" height="6"
            transform="translate(-14.01 6.72) rotate(-28)" />
        <rect class="cls-67" x="6.49" y="28.42" width="0.05" height="6"
            transform="translate(-13.99 6.74) rotate(-28)" />
        <rect class="cls-68" x="6.54" y="28.39" width="0.05" height="6"
            transform="translate(-13.97 6.76) rotate(-28)" />
        <rect class="cls-69" x="6.59" y="28.37" width="0.05" height="6"
            transform="translate(-13.95 6.78) rotate(-28)" />
        <rect class="cls-70" x="6.64" y="28.34" width="0.05" height="6" transform="translate(-13.93 6.8) rotate(-28)" />
        <rect class="cls-71" x="6.69" y="28.32" width="0.05" height="6"
            transform="translate(-13.92 6.82) rotate(-28)" />
        <rect class="cls-72" x="6.74" y="28.29" width="0.05" height="6" transform="translate(-13.9 6.84) rotate(-28)" />
        <rect class="cls-73" x="6.79" y="28.26" width="0.05" height="6"
            transform="translate(-13.88 6.86) rotate(-28)" />
        <rect class="cls-74" x="6.83" y="28.24" width="0.05" height="6"
            transform="translate(-13.86 6.88) rotate(-28)" />
        <rect class="cls-75" x="6.88" y="28.21" width="0.05" height="6" transform="translate(-13.85 6.9) rotate(-28)" />
        <rect class="cls-76" x="6.93" y="28.19" width="0.05" height="6"
            transform="translate(-13.83 6.92) rotate(-28)" />
        <rect class="cls-77" x="6.98" y="28.16" width="0.05" height="6"
            transform="translate(-13.81 6.94) rotate(-28)" />
        <rect class="cls-78" x="7.03" y="28.13" width="0.05" height="6"
            transform="translate(-13.79 6.96) rotate(-28)" />
        <rect class="cls-79" x="7.08" y="28.11" width="0.05" height="6"
            transform="translate(-13.77 6.98) rotate(-28)" />
        <rect class="cls-80" x="7.12" y="28.08" width="0.05" height="6" transform="translate(-13.76 7) rotate(-28)" />
        <rect class="cls-81" x="7.17" y="28.06" width="0.05" height="6"
            transform="translate(-13.74 7.02) rotate(-28)" />
        <rect class="cls-82" x="7.22" y="28.03" width="0.05" height="6"
            transform="translate(-13.72 7.04) rotate(-28)" />
        <rect class="cls-83" x="7.27" y="28.01" width="0.05" height="6" transform="translate(-13.7 7.06) rotate(-28)" />
        <rect class="cls-84" x="7.32" y="27.98" width="0.05" height="6"
            transform="translate(-13.69 7.08) rotate(-28)" />
        <rect class="cls-85" x="7.37" y="27.95" width="0.05" height="6" transform="translate(-13.67 7.1) rotate(-28)" />
        <rect class="cls-86" x="7.42" y="27.93" width="0.05" height="6"
            transform="translate(-13.65 7.11) rotate(-28)" />
        <rect class="cls-87" x="7.46" y="27.9" width="0.05" height="6" transform="translate(-13.63 7.14) rotate(-28)" />
        <rect class="cls-88" x="7.51" y="27.88" width="0.05" height="6"
            transform="translate(-13.61 7.15) rotate(-28)" />
        <rect class="cls-89" x="7.56" y="27.85" width="0.05" height="6" transform="translate(-13.6 7.17) rotate(-28)" />
        <rect class="cls-90" x="7.61" y="27.83" width="0.05" height="6"
            transform="translate(-13.58 7.19) rotate(-28)" />
        <rect class="cls-91" x="7.66" y="27.8" width="0.05" height="6" transform="translate(-13.56 7.21) rotate(-28)" />
        <rect class="cls-92" x="7.71" y="27.77" width="0.05" height="6"
            transform="translate(-13.54 7.23) rotate(-28)" />
        <rect class="cls-93" x="7.75" y="27.75" width="0.05" height="6"
            transform="translate(-13.53 7.25) rotate(-28)" />
        <rect class="cls-94" x="7.8" y="27.72" width="0.05" height="6" transform="translate(-13.51 7.27) rotate(-28)" />
        <rect class="cls-95" x="7.85" y="27.7" width="0.05" height="6" transform="translate(-13.49 7.29) rotate(-28)" />
        <rect class="cls-96" x="7.9" y="27.67" width="0.05" height="6" transform="translate(-13.47 7.31) rotate(-28)" />
        <rect class="cls-97" x="7.95" y="27.65" width="0.05" height="6"
            transform="translate(-13.45 7.33) rotate(-28)" />
        <rect class="cls-98" x="8" y="27.62" width="0.05" height="6" transform="translate(-13.44 7.35) rotate(-28)" />
        <rect class="cls-99" x="8.04" y="27.59" width="0.05" height="6"
            transform="translate(-13.42 7.37) rotate(-28)" />
        <rect class="cls-100" x="8.09" y="27.57" width="0.05" height="6"
            transform="translate(-13.4 7.39) rotate(-28)" />
        <rect class="cls-101" x="8.14" y="27.54" width="0.05" height="6"
            transform="translate(-13.38 7.41) rotate(-28)" />
        <rect class="cls-102" x="8.19" y="27.52" width="0.05" height="6"
            transform="translate(-13.37 7.43) rotate(-28)" />
        <rect class="cls-103" x="8.24" y="27.49" width="0.05" height="6"
            transform="translate(-13.35 7.45) rotate(-28)" />
        <rect class="cls-104" x="8.29" y="27.46" width="0.05" height="6"
            transform="translate(-13.33 7.47) rotate(-28)" />
        <rect class="cls-105" x="8.34" y="27.44" width="0.05" height="6"
            transform="translate(-13.31 7.49) rotate(-28)" />
        <rect class="cls-106" x="8.38" y="27.41" width="0.05" height="6"
            transform="translate(-13.29 7.51) rotate(-28)" />
        <rect class="cls-107" x="8.43" y="27.39" width="0.05" height="6"
            transform="translate(-13.28 7.53) rotate(-28)" />
        <rect class="cls-108" x="8.48" y="27.36" width="0.05" height="6"
            transform="translate(-13.26 7.55) rotate(-28)" />
        <rect class="cls-109" x="8.53" y="27.34" width="0.05" height="6"
            transform="translate(-13.24 7.57) rotate(-28)" />
        <rect class="cls-110" x="8.58" y="27.31" width="0.05" height="6"
            transform="translate(-13.22 7.59) rotate(-28)" />
        <rect class="cls-111" x="8.63" y="27.28" width="0.05" height="6"
            transform="translate(-13.21 7.61) rotate(-28)" />
        <rect class="cls-112" x="8.67" y="27.26" width="0.05" height="6"
            transform="translate(-13.19 7.63) rotate(-28)" />
        <rect class="cls-113" x="8.72" y="27.23" width="0.05" height="6"
            transform="translate(-13.17 7.65) rotate(-28)" />
        <rect class="cls-114" x="8.77" y="27.21" width="0.05" height="6"
            transform="translate(-13.15 7.67) rotate(-28)" />
        <rect class="cls-115" x="8.82" y="27.18" width="0.05" height="6"
            transform="translate(-13.13 7.69) rotate(-28)" />
        <rect class="cls-116" x="8.87" y="27.16" width="0.05" height="6"
            transform="translate(-13.12 7.71) rotate(-28)" />
        <rect class="cls-117" x="8.92" y="27.13" width="0.05" height="6"
            transform="translate(-13.1 7.73) rotate(-28)" />
        <rect class="cls-118" x="8.97" y="27.1" width="0.05" height="6"
            transform="translate(-13.08 7.75) rotate(-28)" />
        <rect class="cls-119" x="9.01" y="27.08" width="0.05" height="6"
            transform="translate(-13.06 7.77) rotate(-28)" />
        <rect class="cls-120" x="9.06" y="27.05" width="0.05" height="6"
            transform="translate(-13.05 7.79) rotate(-28)" />
        <rect class="cls-121" x="9.11" y="27.03" width="0.05" height="6"
            transform="translate(-13.03 7.81) rotate(-28)" />
        <rect class="cls-122" x="9.16" y="27" width="0.05" height="6" transform="translate(-13.01 7.83) rotate(-28)" />
        <polygon class="cls-123" points="7.8 27.34 7.83 27.32 7.86 27.32 10.67 32.61 10.62 32.64 7.8 27.34" />
        <polygon class="cls-124" points="7.92 27.32 10.72 32.59 10.67 32.61 7.86 27.32 7.92 27.32" />
        <polygon class="cls-125" points="7.98 27.32 10.77 32.56 10.72 32.59 7.92 27.32 7.98 27.32" />
        <polygon class="cls-126" points="8.04 27.32 10.81 32.53 10.77 32.56 7.98 27.32 8.04 27.32" />
        <polygon class="cls-127" points="8.1 27.32 10.86 32.51 10.81 32.53 8.04 27.32 8.1 27.32" />
        <polygon class="cls-128" points="8.17 27.32 10.91 32.48 10.86 32.51 8.1 27.32 8.17 27.32" />
        <polygon class="cls-129" points="8.23 27.32 10.96 32.46 10.91 32.48 8.17 27.32 8.23 27.32" />
        <polygon class="cls-130" points="8.29 27.32 11.01 32.43 10.96 32.46 8.23 27.32 8.29 27.32" />
        <polygon class="cls-131" points="8.35 27.32 11.05 32.41 11.01 32.43 8.29 27.32 8.35 27.32" />
        <polygon class="cls-132" points="8.41 27.32 11.08 32.33 11.08 32.39 11.05 32.41 8.35 27.32 8.41 27.32" />
        <polygon class="cls-133" points="8.48 27.32 11.08 32.22 11.08 32.33 8.41 27.32 8.48 27.32" />
        <polygon class="cls-134" points="8.54 27.32 11.08 32.1 11.08 32.22 8.48 27.32 8.54 27.32" />
        <polygon class="cls-135" points="8.6 27.32 11.08 31.98 11.08 32.1 8.54 27.32 8.6 27.32" />
        <polygon class="cls-136" points="8.66 27.32 11.08 31.87 11.08 31.98 8.6 27.32 8.66 27.32" />
        <polygon class="cls-137" points="8.73 27.32 11.08 31.75 11.08 31.87 8.66 27.32 8.73 27.32" />
        <polygon class="cls-138" points="8.79 27.32 11.08 31.63 11.08 31.75 8.73 27.32 8.79 27.32" />
        <polygon class="cls-139" points="8.85 27.32 11.08 31.52 11.08 31.63 8.79 27.32 8.85 27.32" />
        <polygon class="cls-140" points="8.91 27.32 11.08 31.4 11.08 31.52 8.85 27.32 8.91 27.32" />
        <polygon class="cls-141" points="8.97 27.32 11.08 31.28 11.08 31.4 8.91 27.32 8.97 27.32" />
        <polygon class="cls-142" points="9.04 27.32 11.08 31.16 11.08 31.28 8.97 27.32 9.04 27.32" />
        <polygon class="cls-143" points="9.1 27.32 11.08 31.05 11.08 31.16 9.04 27.32 9.1 27.32" />
        <polygon class="cls-144" points="9.16 27.32 11.08 30.93 11.08 31.05 9.1 27.32 9.16 27.32" />
        <polygon class="cls-145" points="9.22 27.32 11.08 30.81 11.08 30.93 9.16 27.32 9.22 27.32" />
        <polygon class="cls-146" points="9.29 27.32 11.08 30.7 11.08 30.81 9.22 27.32 9.29 27.32" />
        <polygon class="cls-146" points="11.08 30.7 9.29 27.32 11.08 27.32 11.08 30.7" />
    </g>
    <g class="cls-147">
        <path class="cls-148"
            d="M3.34,32.83c1.68-1.46,1.43-3.16,3.27-4,2.31-1,3.86,1.26,3.86,1.26a4.49,4.49,0,0,1,.07.61,4.24,4.24,0,0,0,0-1.16s-1.55-2.26-3.86-1.26-1.33,3.42-5,5A6.55,6.55,0,0,1,3.34,32.83Z" />
    </g>
    <g class="cls-149">
        <path class="cls-150"
            d="M10.44,31.28a2.81,2.81,0,0,1-1.3,1.09c-1.91.83-3-.75-5.42-.43a6.18,6.18,0,0,1-2.06,1.38c3.64-1.58,4.8.94,7.11-.06A2.79,2.79,0,0,0,10.44,31.28Z" />
    </g>
    <path class="cls-151"
        d="M4.54,32.12c2.12-.91,3.55.55,4.9,0s.85-2.47.85-2.47-1-1.63-2.38-1.05S6.66,31.21,4.54,32.12Z" />
    <path class="cls-150"
        d="M7.61,33.7A5.87,5.87,0,0,1,6,33.39a5.56,5.56,0,0,0-4.33.17.21.21,0,0,1-.26-.11.17.17,0,0,1,0-.07.18.18,0,0,1,.12-.18,5.77,5.77,0,0,0,3.11-3,4,4,0,0,1,2-2.08,3.06,3.06,0,0,1,3,.27,4.59,4.59,0,0,1,1.12,1.06l0,.07a4.68,4.68,0,0,1,0,1.54A3.13,3.13,0,0,1,7.61,33.7ZM3.94,32.63A7.43,7.43,0,0,1,6.07,33a3.54,3.54,0,0,0,2.62.07,3.05,3.05,0,0,0,1.61-3.42A3,3,0,0,0,6.71,28.5a3.61,3.61,0,0,0-1.77,1.91A6.52,6.52,0,0,1,3.13,32.7,4.75,4.75,0,0,1,3.94,32.63Z" />
    <path class="cls-148" d="M22.37,17.8s2.55,1.07,3,1.73-1.16.68-1.16.68" />
    <path class="cls-150"
        d="M24.2,20.44a.26.26,0,0,1-.18-.09l-1.83-2.42a.22.22,0,0,1,0-.27.24.24,0,0,1,.27-.07c.27.11,2.63,1.12,3.09,1.82a.49.49,0,0,1,.05.55c-.23.43-1.12.47-1.39.48Zm-1.11-2.07L24.31,20c.43,0,.84-.12.89-.23s0-.05,0-.09A7,7,0,0,0,23.09,18.37Z" />
    <path class="cls-148"
        d="M11.67,12.18c-1,.74-1.9,4.28-1.67,6.38s3.95,2.27,6.08,2.2,2.13-4.88,2.1-6.18C18.13,12.57,13.13,11.08,11.67,12.18Z" />
    <g class="cls-152">
        <path class="cls-150"
            d="M16.08,20.76c-2.13.07-5.85-.09-6.08-2.2a8.2,8.2,0,0,1,0-.89,1,1,0,0,0,1.51-.51c.61-3.49,1.91-4.83,2.54-5.29,1.92.27,4.14,1.37,4.17,2.72S18.21,20.69,16.08,20.76Z" />
    </g>
    <path class="cls-150"
        d="M15.34,21c-2.57,0-5.36-.46-5.57-2.41s.63-5.74,1.76-6.59,3.33-.4,4.91.37c1.25.61,1.95,1.39,2,2.21.06,2.36-.18,6.34-2.31,6.41Zm-2.16-9a2.4,2.4,0,0,0-1.38.33h0c-.91.69-1.8,4.15-1.58,6.18s3.76,2.06,5.86,2C17.93,20.48,18,16,18,14.59c0-.63-.64-1.29-1.71-1.81A7.35,7.35,0,0,0,13.18,12Zm-1.51.15Z" />
    <path class="cls-148"
        d="M11.88,15.71l-1-.37a.38.38,0,0,0-.51.26c-.2.76-.51,2.35.26,2.68.94.39,1.27-.69,1.43-2.17A.38.38,0,0,0,11.88,15.71Z" />
    <g class="cls-152">
        <path class="cls-150"
            d="M12.11,16.11c-.16,1.48-.49,2.56-1.42,2.17-.39-.16-.5-.64-.5-1.17a.75.75,0,0,0,.34.34c.84.35,1.19-.48,1.37-1.72A.36.36,0,0,1,12.11,16.11Z" />
    </g>
    <path class="cls-150"
        d="M11.05,18.57a1.21,1.21,0,0,1-.44-.1c-.86-.36-.69-1.79-.4-2.92a.57.57,0,0,1,.31-.38.58.58,0,0,1,.48,0l.95.38a.59.59,0,0,1,.37.61c-.15,1.36-.4,2.06-.86,2.33A.81.81,0,0,1,11.05,18.57Zm-.26-3.05-.08,0a.13.13,0,0,0-.09.11c-.27,1-.37,2.22.15,2.43a.48.48,0,0,0,.48,0c.47-.27.61-1.58.65-2a.17.17,0,0,0-.1-.18l-1-.38Z" />
    <path class="cls-150"
        d="M11.53,12.18l1.11.52c.37.17.74.34,1.11.53a.11.11,0,0,1,.05.15.11.11,0,0,1-.14.06h0L12.51,13l-1.15-.41h0a.23.23,0,0,1-.14-.29.22.22,0,0,1,.29-.13Z" />
    <path class="cls-148"
        d="M28.65,11.5c-.37,1.25-3.16,3.58-7.17,3.69-.38,0-.78,0-1.19,0l-.36-1.52-.28-1.23s.62-.11,1.47-.33a18.51,18.51,0,0,0,2.25-.75,6.68,6.68,0,0,0,1.85-1.08s0-1.25.39-1.38.75.72.75.72,1-1,1.57-.91C28.79,8.82,29.05,10.13,28.65,11.5Z" />
    <g class="cls-153">
        <path class="cls-150"
            d="M28.83,10.48a4.87,4.87,0,0,1-.18,1c-.41,1.38-3.72,4-8.36,3.66l-.64-2.75.51-.1.75,1.45C24.74,14.92,28.2,11.89,28.83,10.48Z" />
    </g>
    <path class="cls-150"
        d="M21.17,15.42l-.9,0a.23.23,0,0,1-.21-.25.23.23,0,0,1,.25-.2c4.57.36,7.76-2.29,8.12-3.5a2.93,2.93,0,0,0-.07-2.2.69.69,0,0,0-.47-.34c-.32-.05-1,.47-1.36.85l-.26.26-.12-.34c-.1-.27-.33-.63-.46-.59a2.29,2.29,0,0,0-.24,1.18v.09l-.07.07c-1.62,1.46-5.53,2.19-5.69,2.22a.24.24,0,0,1-.27-.18.23.23,0,0,1,.19-.27s3.83-.71,5.39-2c0-.47.11-1.34.53-1.5s.74.25.91.56c.36-.33,1-.84,1.53-.76a1.17,1.17,0,0,1,.78.55,3.32,3.32,0,0,1,.11,2.56C28.45,13,25.42,15.42,21.17,15.42Zm4.52-6.34" />
    <path class="cls-148"
        d="M24.49,20.59s-5.61,2.17-7.57,2-4.09-.47-4.2-4.2a11.27,11.27,0,0,1,1.95-6,14.87,14.87,0,0,1,1-1.37l5.41.28s0,.28.07.76c0,.29.06.66.11,1.08.06.6.15,1.3.25,2a32.92,32.92,0,0,0,.65,3.34C22.25,19,24.09,19.09,24.49,20.59Z" />
    <path class="cls-150"
        d="M21.36,13.68a15.54,15.54,0,0,1,.44,2c.12.66.22,1.33.36,2,0,.16.07.33.11.49l.06.25,0,.06h0s0,0,0,0l.18.11.22.1.47.22a3.62,3.62,0,0,1,.9.62,2.42,2.42,0,0,1,.34.45,2.2,2.2,0,0,1,.22.53l.05.2-.19.07c-.89.34-1.78.65-2.69.95s-1.82.57-2.75.79c-.46.1-.93.2-1.42.26a6.11,6.11,0,0,1-.75,0h-.18l-.18,0-.36,0a6,6,0,0,1-1.43-.31,3.89,3.89,0,0,1-.68-.33,3.14,3.14,0,0,1-.59-.49,3.38,3.38,0,0,1-.45-.62,5.15,5.15,0,0,1-.3-.69l0-.09,0-.09L12.69,20l0-.18,0-.09,0-.09,0-.18a1.1,1.1,0,0,1,0-.18c0-.13,0-.25,0-.37a7.92,7.92,0,0,1,0-1.46A10,10,0,0,1,12.8,16a13.49,13.49,0,0,1,1.09-2.67,11.91,11.91,0,0,1,.72-1.25,4.68,4.68,0,0,1,1-1.07s.09,0,.11,0a.08.08,0,0,1,0,.08h0A9.75,9.75,0,0,1,15,12.32c-.24.4-.5.79-.72,1.2a12.26,12.26,0,0,0-1,2.58A9.06,9.06,0,0,0,13,17.46a7,7,0,0,0,0,1.37c0,.12,0,.23,0,.35a1.11,1.11,0,0,0,0,.17l0,.17v.08l0,.08,0,.17,0,.16,0,.08,0,.08a3.42,3.42,0,0,0,.27.62,2.45,2.45,0,0,0,.38.53A2.66,2.66,0,0,0,15,22a5.35,5.35,0,0,0,1.33.29l.35,0h.18l.17,0h.33l.34,0A13.65,13.65,0,0,0,19,22.1c.91-.22,1.81-.49,2.71-.78s1.79-.61,2.67-.94l-.14.27a1.78,1.78,0,0,0-.44-.78,2.83,2.83,0,0,0-.78-.53l-.45-.22L22.36,19a1.22,1.22,0,0,1-.26-.16s-.05,0-.07-.06l0,0a.1.1,0,0,1,0-.05.43.43,0,0,1-.05-.12l0-.06-.06-.25-.12-.5c-.08-.34-.15-.67-.22-1s-.11-.67-.16-1a10,10,0,0,1-.12-2.05s0-.08.08-.07A.07.07,0,0,1,21.36,13.68Z" />
    <path class="cls-154"
        d="M13.26,32l-1,.15a1.21,1.21,0,0,1-1.15-.46h0a7.34,7.34,0,0,1-1.43-3.62h0a1.23,1.23,0,0,1,.52-1.12l.82-.56" />
    <g class="cls-155">
        <path class="cls-148"
            d="M11.22,26.93l-.81.55A1.25,1.25,0,0,0,10,28a1.27,1.27,0,0,0-.12.7,5.39,5.39,0,0,0,.08.56,7,7,0,0,1-.21-1.11A1.24,1.24,0,0,1,10.23,27l.82-.55Z" />
    </g>
    <g class="cls-153">
        <path class="cls-150"
            d="M10.32,30.07h0a8.08,8.08,0,0,0,.7,1.12,1.22,1.22,0,0,0,1.15.47l.91-.15-2-5.14-.18.12,1.51,3.81-1,.15A1.21,1.21,0,0,1,10.32,30.07Zm1.87-.24-1.32-3.34.06,0,1.33,3.37Z" />
    </g>
    <path class="cls-156" d="M13.43,24.88c-.5-1-2.23-2.29-5.63-.14a.06.06,0,0,0,0,.11c.57.1,3.23.55,3.72,1.94" />
    <g class="cls-155">
        <path class="cls-148"
            d="M8.37,24.9c-.24-.06-.43-.09-.55-.11a.06.06,0,0,1,0-.11c3.4-2.15,5.13-.85,5.63.14l-.2.21C12.58,24.19,11,23.42,8.37,24.9Z" />
    </g>
    <path class="cls-150"
        d="M11.54,27a.22.22,0,0,1-.22-.15c-.16-.46-.83-1.31-3.51-1.78h0a.3.3,0,0,1-.23-.22.3.3,0,0,1,.13-.3c1.65-1.05,3.09-1.41,4.28-1.09a2.63,2.63,0,0,1,1.67,1.32.22.22,0,0,1-.09.3.23.23,0,0,1-.31-.09,2.14,2.14,0,0,0-1.39-1.09,4.84,4.84,0,0,0-3.55.81c2.44.5,3.23,1.36,3.46,2a.23.23,0,0,1-.14.29Z" />
    <path class="cls-157" d="M16,31.33c.31,1.07,0,3.26-4,4a.06.06,0,0,1-.06-.09c.34-.46,2-2.67,1.36-4" />
    <path class="cls-158"
        d="M12,35.34a.06.06,0,0,1-.06-.09A10.51,10.51,0,0,0,13,33.51a3,3,0,0,0,.31-2.26v0h0l2.67.1a2.38,2.38,0,0,1,0,1.11C15.81,33.51,14.83,34.8,12,35.34Z" />
    <g class="cls-153">
        <path class="cls-150"
            d="M13,33.51a3,3,0,0,0,.31-2.26v0l2.67.1a2.38,2.38,0,0,1,0,1.11A5.18,5.18,0,0,1,13,33.51Z" />
    </g>
    <path class="cls-150"
        d="M12,35.57a.29.29,0,0,1-.23-.46c.44-.59,1.85-2.62,1.34-3.79A.21.21,0,0,1,13.2,31a.23.23,0,0,1,.3.11C14,32.33,13,34.06,12.37,35a4.78,4.78,0,0,0,3.11-1.84,2.27,2.27,0,0,0,.28-1.8.23.23,0,0,1,.44-.12,2.75,2.75,0,0,1-.33,2.16A5.46,5.46,0,0,1,12,35.56Zm0-.45Z" />
    <path class="cls-148"
        d="M32,21.33s-.89,5.65-8.21,9.14C17.51,33.45,13.2,32,13.2,32a8.59,8.59,0,0,1-1.88-3.37A8.86,8.86,0,0,1,11,26.37a11.84,11.84,0,0,1,3.56-3.6l.27-.19a19.22,19.22,0,0,1,3.78-1.93l1.12-.39h.05a18.74,18.74,0,0,1,4.29-.83h.12A12.19,12.19,0,0,1,32,21.33Z" />
    <path class="cls-159"
        d="M28.22,27.53A21,21,0,0,0,25,19.39a11.83,11.83,0,0,1,7,1.94A11.83,11.83,0,0,1,28.22,27.53Z" />
    <g class="cls-155">
        <path class="cls-148"
            d="M31.93,21.68a3.58,3.58,0,0,0,.09-.41,11.83,11.83,0,0,0-7-1.94l.31.48A12.09,12.09,0,0,1,31.93,21.68Z" />
    </g>
    <path class="cls-150"
        d="M28.07,28,28,27.57a20.45,20.45,0,0,0-3.18-8l-.23-.35H25a12.66,12.66,0,0,1,6.76,1.72.82.82,0,0,1,.37.93,12.8,12.8,0,0,1-3.76,5.88Zm-2.64-8.37a21.21,21.21,0,0,1,2.94,7.46A12,12,0,0,0,31.7,21.7a.38.38,0,0,0-.17-.43A12.23,12.23,0,0,0,25.43,19.62Z" />
    <path class="cls-150"
        d="M16.16,32.57a10.26,10.26,0,0,1-3-.37l-.06,0,0,0a8.65,8.65,0,0,1-1.65-2.67,8.81,8.81,0,0,1-.62-3.08v-.06l0-.05a9.63,9.63,0,0,1,1.94-2.33,18.12,18.12,0,0,1,6.92-3.89,17.66,17.66,0,0,1,5.3-.88h.12l.07.1a21,21,0,0,1,3.24,8.21l0,.12-.11.1a18.15,18.15,0,0,1-4.47,3,18.1,18.1,0,0,1-7.71,1.89Zm-2.77-.78a10.19,10.19,0,0,0,2.83.33,17.75,17.75,0,0,0,7.49-1.85A17.4,17.4,0,0,0,28,27.45a20.76,20.76,0,0,0-3.09-7.83,17.54,17.54,0,0,0-5,.86c-6,1.92-8.31,5.49-8.58,5.95a8.5,8.5,0,0,0,2.12,5.36Z" />
    <path class="cls-150"
        d="M12.11,32.38A1.45,1.45,0,0,1,11,31.81a7.49,7.49,0,0,1-1.47-3.74,1.42,1.42,0,0,1,.62-1.33l.81-.55a.22.22,0,1,1,.25.37l-.81.55a1,1,0,0,0-.42.91,7,7,0,0,0,1.38,3.51,1,1,0,0,0,.94.38l1-.15a.23.23,0,0,1,.26.19.24.24,0,0,1-.19.26l-1,.15Z" />
    <g class="cls-153">
        <circle class="cls-150" cx="22.84" cy="25.31" r="3.11" />
    </g>
    <circle class="cls-160" cx="22.91" cy="24.93" r="2.8" />
    <g class="cls-155">
        <path class="cls-148"
            d="M25.67,24.48l-.07-.18a2.8,2.8,0,0,0-5.36,1.54A2.8,2.8,0,0,1,25.52,24,5.08,5.08,0,0,1,25.67,24.48Z" />
    </g>
    <g class="cls-153">
        <path class="cls-150"
            d="M23.94,27.53A2.79,2.79,0,0,1,20.31,26a2.76,2.76,0,0,1-.18-1.38,2.64,2.64,0,0,0,.17.61,2.8,2.8,0,0,0,5.38-.68A2.8,2.8,0,0,1,23.94,27.53Z" />
    </g>
    <path class="cls-150"
        d="M22.91,28a3.11,3.11,0,0,1-1.2-.25,3,3,0,1,1,2.4-5.56,3,3,0,0,1,1.62,1.67,3,3,0,0,1,0,2.31A3,3,0,0,1,24,27.74h0A2.85,2.85,0,0,1,22.91,28Zm0-5.61a2.62,2.62,0,0,0-.95.18,2.56,2.56,0,0,0-1.41,1.37,2.5,2.5,0,0,0,0,2,2.57,2.57,0,0,0,3.34,1.45h0A2.53,2.53,0,0,0,25.27,26a2.57,2.57,0,0,0-1.34-3.38A2.4,2.4,0,0,0,22.91,22.35Z" />
    <circle class="cls-161" cx="22.93" cy="24.89" r="1.78" />
    <g class="cls-149">
        <path class="cls-148"
            d="M23.58,26.54a1.78,1.78,0,0,1-2.31-1,1.61,1.61,0,0,1-.12-.6l0,0a1.78,1.78,0,0,0,3.44-.7A1.78,1.78,0,0,1,23.58,26.54Z" />
    </g>
    <g class="cls-153">
        <path class="cls-150"
            d="M24.73,25l0-.09a1.78,1.78,0,0,0-3.44.62,1.78,1.78,0,0,1,3.35-1.22A1.83,1.83,0,0,1,24.73,25Z" />
    </g>
    <path class="cls-150"
        d="M22.93,26.89a2,2,0,0,1-1.87-1.27,2,2,0,1,1,2.61,1.13A1.91,1.91,0,0,1,22.93,26.89Zm0-3.56a1.41,1.41,0,0,0-.57.11,1.55,1.55,0,0,0-.05,2.87,1.53,1.53,0,0,0,1.19,0h0a1.55,1.55,0,0,0-.57-3Z" />
    <g class="cls-162">
        <path class="cls-148"
            d="M28.74,21.06c0-.42-.89-.75-1.39-.75s-.83.09-.83.34.4.48.87.5S28.76,21.59,28.74,21.06Z" />
    </g>
    <g class="cls-162">
        <path class="cls-148"
            d="M30,21.6a1,1,0,0,0-.71-.74c-.26,0-.4,0-.39.25a.51.51,0,0,0,.45.48C29.56,21.62,30.08,22.06,30,21.6Z" />
    </g>
    <g class="cls-153">
        <path class="cls-150"
            d="M13.14,31.56s4.31,1.47,10.55-1.5,7.86-7.66,8.15-8.86l.08.05c-.09-.06-.24-.16-.46-.28a14.94,14.94,0,0,1-7.62,7.34,18,18,0,0,1-7.3,1.87,5.18,5.18,0,0,1-5.11-3.69v0c0-.09-.05-.18-.08-.27l0-.11V26h0a3.84,3.84,0,0,0-.24.39,8.15,8.15,0,0,0,.27,2A8.63,8.63,0,0,0,13.14,31.56Z" />
    </g>
    <path class="cls-163"
        d="M12.84,30a5.25,5.25,0,0,1-2.95,0v0A5.14,5.14,0,0,1,12,28a3.87,3.87,0,0,1,2.64.11h0A3.92,3.92,0,0,1,12.84,30Z" />
    <g class="cls-155">
        <path class="cls-148"
            d="M14.77,28.17s0,.09-.11.22a3.81,3.81,0,0,0-2.48,0,4.83,4.83,0,0,0-2,1.79L10,30.08v0a5.26,5.26,0,0,1,2.14-2,3.87,3.87,0,0,1,2.64.11Z" />
    </g>
    <g class="cls-153">
        <path class="cls-150" d="M12.84,30a5.25,5.25,0,0,1-2.95,0v0l4.77-1.9h0A3.92,3.92,0,0,1,12.84,30Z" />
    </g>
    <path class="cls-150"
        d="M11.51,30.48a6,6,0,0,1-1.69-.25l-.27-.08.14-.24A5.36,5.36,0,0,1,12,27.78a4.14,4.14,0,0,1,2.85.12l.2.1-.08.2a4.09,4.09,0,0,1-2,2A3.88,3.88,0,0,1,11.51,30.48Zm-1.27-.6a4.69,4.69,0,0,0,2.51-.06,3.47,3.47,0,0,0,1.64-1.58,3.54,3.54,0,0,0-2.27,0A4.7,4.7,0,0,0,10.24,29.88ZM9.89,30Z" />
    <g class="cls-152">
        <path class="cls-150"
            d="M19.22,25.41c.18.25,1.41,2.33.42,3.16A2.39,2.39,0,0,1,16.32,28a3.51,3.51,0,0,1-.64-2.28,3.37,3.37,0,0,0-.21-2.09,4,4,0,0,0-.93-.89l.27-.19a19.22,19.22,0,0,1,3.78-1.93,3.31,3.31,0,0,1,.82.56,3,3,0,0,1,.33,3.57Z" />
    </g>
    <path class="cls-148"
        d="M19.78,24.84c.18.26,1.41,2.34.42,3.16a2.37,2.37,0,0,1-3.31-.53,3.52,3.52,0,0,1-.64-2.28,3.39,3.39,0,0,0-.21-2.1c-.44-.66-2.16-.91-3-1.89a4.33,4.33,0,0,1-.73-2.9,11.2,11.2,0,0,1,.13-1.23,11.94,11.94,0,0,1,2.84-5.74s.65,2.59,1.33,4.9a15.05,15.05,0,0,0,1.26,3.42.18.18,0,0,0,.1.08,4.05,4.05,0,0,1,1.13.32,3.1,3.1,0,0,1,.89.6,3,3,0,0,1,.32,3.56Z" />
    <g class="cls-152">
        <path class="cls-150"
            d="M20.52,27.53a1,1,0,0,1-.32.47,2.37,2.37,0,0,1-3.31-.53,3.52,3.52,0,0,1-.64-2.28,3.46,3.46,0,0,0-.21-2.1c-.44-.66-2.16-.91-3-1.88a4.38,4.38,0,0,1-.73-2.91v0s0-.08,0-.13a.49.49,0,0,1,0-.12V18l0-.29c0-.05,0-.1,0-.15s0-.06,0-.09a.28.28,0,0,1,0-.09.59.59,0,0,1,0-.13c0-.05,0-.1,0-.15h0l.09-.09a3.65,3.65,0,0,0,.54.18,13.43,13.43,0,0,0,3.3.34l0-.86a.45.45,0,0,1,.27-.41.27.27,0,0,1,.12,0l1-.11,1.48,3.59-1.37,0-1,0a.43.43,0,0,1-.41-.42v-.43A7.3,7.3,0,0,1,13,18.71a3.54,3.54,0,0,0,.71,2.06c.85,1,2.13.46,3,1.47.54.63.26,1.74.22,2.51a3.44,3.44,0,0,0,.27,2.39C18,28.14,19.55,28.05,20.52,27.53Z" />
    </g>
    <g class="cls-152">
        <path class="cls-150"
            d="M23.37,11.33a6,6,0,0,1-2.14,1.83,6.31,6.31,0,0,1-1.3.48,6.15,6.15,0,0,1-4-.4A1.5,1.5,0,0,0,14,14a10.74,10.74,0,0,0-.9,3.17,3.65,3.65,0,0,1-.54-.18l-.09.09a11.94,11.94,0,0,1,2.84-5.74l0,.17c.21-.29.35-.46.35-.46l5.41.28s0,.28.07.76A18.51,18.51,0,0,0,23.37,11.33Z" />
    </g>
    <path class="cls-150"
        d="M18.07,19.67a2.59,2.59,0,0,1,.87.13,2.78,2.78,0,0,1,.82.38,3.27,3.27,0,0,1,.37.28,2.6,2.6,0,0,1,.3.36,3,3,0,0,1,.4.84,3.84,3.84,0,0,1,.14.89,3.47,3.47,0,0,1-.08.91,2.19,2.19,0,0,1-.39.87L20,25v-.27l.12.19.1.18c.07.13.13.25.19.38a5.48,5.48,0,0,1,.3.8,2.73,2.73,0,0,1,.13.87,1.83,1.83,0,0,1-.07.46,1.14,1.14,0,0,1-.24.43l0,.05-.05,0-.09.09-.19.13-.19.11-.21.09a2.71,2.71,0,0,1-.88.15,2.67,2.67,0,0,1-.88-.15,2.34,2.34,0,0,1-.77-.43L17,28l-.16-.16-.14-.17-.13-.18a3.31,3.31,0,0,1-.38-.78,4.15,4.15,0,0,1-.18-.85c0-.14,0-.28,0-.43v-.21L16,25c0-.27,0-.54,0-.8a2.09,2.09,0,0,0-.11-.72l0-.08a.2.2,0,0,1,0-.08l-.05-.07,0-.06a1.4,1.4,0,0,0-.26-.21,4.6,4.6,0,0,0-.7-.36,8.1,8.1,0,0,1-1.48-.78,2.84,2.84,0,0,1-.64-.61,3.22,3.22,0,0,1-.39-.79,5.9,5.9,0,0,1-.2-.83,7.93,7.93,0,0,1-.07-.84,9.33,9.33,0,0,1,.13-1.67,12.16,12.16,0,0,1,1.05-3.15,13.68,13.68,0,0,1,.82-1.44,4.82,4.82,0,0,1,1.14-1.2.07.07,0,0,1,.11,0,.08.08,0,0,1,0,.08h0c-.26.49-.57.92-.86,1.37a14.74,14.74,0,0,0-.82,1.38,11.06,11.06,0,0,0-1,3,8.35,8.35,0,0,0-.12,1.58,5.12,5.12,0,0,0,.06.78,4.56,4.56,0,0,0,.18.75,2.46,2.46,0,0,0,.33.67,2.14,2.14,0,0,0,.53.51,8.54,8.54,0,0,0,1.41.74,6.61,6.61,0,0,1,.75.38,1.74,1.74,0,0,1,.36.31l.08.1.06.1.06.11s0,.07,0,.11a1.67,1.67,0,0,1,.11.44,3.37,3.37,0,0,1,0,.44c0,.29,0,.56,0,.83v.2a1.21,1.21,0,0,0,0,.19c0,.13,0,.26,0,.39a3.76,3.76,0,0,0,.16.74,2.57,2.57,0,0,0,.83,1.23,2.22,2.22,0,0,0,.64.35,2.61,2.61,0,0,0,.73.13,2.18,2.18,0,0,0,.72-.12l.17-.08.15-.08.15-.11.06-.05,0,0,0,0a1,1,0,0,0,.21-.61,2.76,2.76,0,0,0-.11-.74,6.46,6.46,0,0,0-.28-.73l-.18-.35-.09-.17L19.6,25l-.1-.14.11-.13.54-.66a1.83,1.83,0,0,0,.3-.68,3.06,3.06,0,0,0-.09-1.56,2.5,2.5,0,0,0-.33-.7,1.76,1.76,0,0,0-.24-.3,1.41,1.41,0,0,0-.29-.25,4,4,0,0,0-.69-.42,6.36,6.36,0,0,0-.76-.31h0a.09.09,0,0,1-.05-.1A.08.08,0,0,1,18.07,19.67Z" />
    <path class="cls-150"
        d="M16.27,23.87a.17.17,0,0,1-.17-.15,3,3,0,0,1,1.4-3.18A2.35,2.35,0,0,1,20,20.42a.17.17,0,0,1,0,.24.18.18,0,0,1-.24,0,2,2,0,0,0-2.1.13,2.7,2.7,0,0,0-1.24,2.85.17.17,0,0,1-.15.19Z" />
    <path class="cls-150"
        d="M20.09,24.81a.34.34,0,0,1-.06.06l-.05,0-.12.08a1.3,1.3,0,0,1-.26.14,1.73,1.73,0,0,1-.56.16,1.42,1.42,0,0,1-.58-.05.92.92,0,0,1-.47-.32,2.32,2.32,0,0,0,.51,0l.24,0L19,24.9a3.25,3.25,0,0,0,.43-.18l.21-.12.1-.07.09-.06h0a.24.24,0,0,1,.32.06A.23.23,0,0,1,20.09,24.81Z" />
    <path class="cls-148"
        d="M24.43,8.64h0a.12.12,0,0,1-.13-.12L24.07,5a.14.14,0,0,1,.12-.13h0a1.29,1.29,0,0,1,1.36,1.2l.08,1.2A1.3,1.3,0,0,1,24.43,8.64Z" />
    <path class="cls-150"
        d="M24.42,8.66a.15.15,0,0,1-.15-.14L24.05,5a.15.15,0,0,1,.14-.15,1.29,1.29,0,0,1,1.38,1.22l.08,1.2a1.3,1.3,0,0,1-1.22,1.38h0Zm0,0ZM24.27,4.9h-.08a.09.09,0,0,0-.07,0,.14.14,0,0,0,0,.07l.22,3.51a.09.09,0,0,0,.11.09,1.25,1.25,0,0,0,.86-.42,1.27,1.27,0,0,0,.31-.91l-.08-1.2a1.25,1.25,0,0,0-.42-.86A1.22,1.22,0,0,0,24.27,4.9Z" />
    <g class="cls-153">
        <path class="cls-150"
            d="M25.59,6.72l0,.56a1.3,1.3,0,0,1-1.2,1.36.12.12,0,0,1-.13-.12l-.06-.93a.12.12,0,0,0,.11.07h.09A1.28,1.28,0,0,0,25.59,6.72Z" />
    </g>
    <path class="cls-150"
        d="M24.42,8.86a.35.35,0,0,1-.35-.32L23.85,5a.35.35,0,0,1,.32-.37,1.49,1.49,0,0,1,1.6,1.41l.08,1.19a1.5,1.5,0,0,1-.37,1.09,1.47,1.47,0,0,1-1,.51h0Zm0-.22Zm-.12-3.53.21,3.29a1.06,1.06,0,0,0,.88-1.11l-.08-1.2A1.06,1.06,0,0,0,25,5.37,1.09,1.09,0,0,0,24.31,5.11Z" />
    <path class="cls-148"
        d="M12.6,5.62h0a.12.12,0,0,1,.13.12L13,9.25a.12.12,0,0,1-.11.13h0a1.28,1.28,0,0,1-1.36-1.2L11.4,7A1.29,1.29,0,0,1,12.6,5.62Z" />
    <path class="cls-150"
        d="M12.76,9.41a1.3,1.3,0,0,1-.86-.33,1.26,1.26,0,0,1-.44-.9L11.38,7a1.31,1.31,0,0,1,.32-1,1.3,1.3,0,0,1,.9-.44h0a.15.15,0,0,1,.15.14L13,9.25a.13.13,0,0,1,0,.1.12.12,0,0,1-.1.05ZM12.6,5.65a1.25,1.25,0,0,0-.86.42,1.27,1.27,0,0,0-.31.91l.07,1.2a1.3,1.3,0,0,0,.43.86,1.21,1.21,0,0,0,.91.31.11.11,0,0,0,.07,0,.14.14,0,0,0,0-.07l-.22-3.51a.1.1,0,0,0-.11-.09Z" />
    <g class="cls-153">
        <path class="cls-150"
            d="M12.89,8.27l.06,1a.12.12,0,0,1-.11.13,1.29,1.29,0,0,1-1.36-1.2l0-.5a1.26,1.26,0,0,0,1.21.67h.13A.14.14,0,0,0,12.89,8.27Z" />
    </g>
    <path class="cls-150"
        d="M12.76,9.61A1.52,1.52,0,0,1,11.25,8.2L11.18,7a1.5,1.5,0,0,1,1.41-1.6h0a.35.35,0,0,1,.37.32l.22,3.51a.31.31,0,0,1-.09.26.3.3,0,0,1-.24.11Zm-.25-3.75A1.05,1.05,0,0,0,11.63,7l.08,1.2a1,1,0,0,0,.35.72,1,1,0,0,0,.66.26Z" />
    <circle class="cls-148" cx="18.52" cy="7.13" r="5.99" />
    <path class="cls-150"
        d="M18.52,13.15h-.05a6,6,0,0,1,0-12h0a6,6,0,0,1,0,12Zm0-12a6,6,0,1,0,4.26,1.78,6,6,0,0,0-4.26-1.78Z" />
    <g class="cls-153">
        <path class="cls-150"
            d="M24.46,6.34a7.55,7.55,0,0,1,.05.83,6,6,0,1,1-12-.08,2.81,2.81,0,0,1,0-.29,6,6,0,0,0,11.93-.46Z" />
    </g>
    <path class="cls-150"
        d="M18.52,13.35h-.05A6.22,6.22,0,0,1,14.15,2.7a6.22,6.22,0,1,1,8.73,8.86A6.15,6.15,0,0,1,18.52,13.35Zm0-12a5.77,5.77,0,0,0-4.1,9.82,5.77,5.77,0,0,0,9.87-4,5.77,5.77,0,0,0-5.72-5.81Z" />
    <path class="cls-150"
        d="M24.49,7.33a5.35,5.35,0,0,1-1,3.17,7,7,0,0,1-5,1.92,7,7,0,0,1-4.89-1.84,5.41,5.41,0,0,1-1.06-3.16C12.55,4.32,15.21,3,18.5,3S24.46,4.22,24.49,7.33Z" />
    <path class="cls-150"
        d="M18.41,12.55a7,7,0,0,1-4.89-1.89,5.5,5.5,0,0,1-1.08-3.24,3.91,3.91,0,0,1,1.78-3.48A7.78,7.78,0,0,1,18.5,2.85a7.79,7.79,0,0,1,4.29,1,3.89,3.89,0,0,1,1.83,3.46h0a5.48,5.48,0,0,1-1,3.25,7.09,7.09,0,0,1-5.06,2Zm.18-9.43H18.5c-1.75,0-5.82.46-5.79,4.3a5.3,5.3,0,0,0,1,3.08,6.86,6.86,0,0,0,4.68,1.78h.1a6.91,6.91,0,0,0,4.85-1.86,5.25,5.25,0,0,0,1-3.09h0C24.32,3.55,20.38,3.12,18.59,3.12Z" />
    <g class="cls-164">
        <ellipse class="cls-148" cx="22.55" cy="6.92" rx="1.06" ry="0.77"
            transform="matrix(0.17, -0.99, 0.99, 0.17, 11.89, 27.96)" />
    </g>
    <g class="cls-164">
        <ellipse class="cls-148" cx="21.63" cy="9.03" rx="0.49" ry="0.42"
            transform="translate(6.43 26.87) rotate(-72.24)" />
    </g>
    <g class="cls-153">
        <path class="cls-165"
            d="M23.31,4.44a3.85,3.85,0,0,1,1.18,2.89,5.35,5.35,0,0,1-1,3.17,7,7,0,0,1-5,1.92,7.51,7.51,0,0,1-2.46-.4c3.05-.12,5.48-1.59,6.08-2.43a6.83,6.83,0,0,0,1.28-4A6.64,6.64,0,0,0,23.31,4.44Z" />
    </g>
    <path class="cls-150"
        d="M13.18,4.91l-.35-.28.16.13-.18-.12c1.06-1.57,3.11-2.49,5.65-2.51a6.79,6.79,0,0,1,5.68,2.34.24.24,0,0,1,0,.29.23.23,0,0,1-.32,0l0,0c-1-1.39-2.94-2.17-5.31-2.15s-4.3.86-5.27,2.31ZM13,4.77Z" />
    <g class="cls-164">
        <path class="cls-148"
            d="M13.93,9.26s-1-3.06.65-4.29a5.69,5.69,0,0,1,4-1.09,6,6,0,0,0-3.63,2.74A12,12,0,0,0,13.93,9.26Z" />
    </g>
    <path class="cls-148"
        d="M22.3,15.92l.16,1.25.13,1a.52.52,0,0,1-.41.57l-.62.11a19.41,19.41,0,0,1-3.38.3.52.52,0,0,1-.5-.5L17.62,16a.51.51,0,0,1,.52-.52c.88,0,2.63.05,3.61,0A.52.52,0,0,1,22.3,15.92Z" />
    <path class="cls-148" d="M18.1,15.51l-1,.11a.44.44,0,0,0-.39.45l.08,2.56a.43.43,0,0,0,.41.42l.95.06" />
    <g class="cls-152">
        <path class="cls-150" d="M18.1,15.51l-1,.11a.44.44,0,0,0-.39.45l.08,2.56a.43.43,0,0,0,.41.42l.95.06" />
    </g>
    <path class="cls-150"
        d="M18.39,19.32h-.21a.72.72,0,0,1-.7-.7L17.42,16a.67.67,0,0,1,.2-.52.73.73,0,0,1,.52-.21c.93,0,2.63,0,3.59,0a.7.7,0,0,1,.77.61l.28,2.23a.7.7,0,0,1-.56.78A19.88,19.88,0,0,1,18.39,19.32Zm-.27-3.61a.27.27,0,0,0-.21.09.25.25,0,0,0-.09.23l.06,2.58a.32.32,0,0,0,.3.31,19.83,19.83,0,0,0,4-.41.31.31,0,0,0,.25-.34l-.29-2.23a.32.32,0,0,0-.33-.27c-1,.09-2.7.07-3.64,0h0Z" />
    <path class="cls-150"
        d="M18.12,19.31h0l-1-.06a.63.63,0,0,1-.59-.61l-.08-2.57a.64.64,0,0,1,.57-.65l1-.1a.19.19,0,0,1,.22.17.2.2,0,0,1-.18.22l-1,.11a.25.25,0,0,0-.21.24L17,18.63a.23.23,0,0,0,.22.22l.95.06a.21.21,0,0,1,.19.21A.21.21,0,0,1,18.12,19.31Z" />
    <path class="cls-150"
        d="M20.28,19.22a.21.21,0,0,1-.2-.19L20,17.72l-.67-.44a.19.19,0,0,1-.08-.15l-.11-1.58a.2.2,0,0,1,.18-.22.22.22,0,0,1,.22.19l.1,1.48.66.45a.16.16,0,0,1,.09.15L20.48,19a.19.19,0,0,1-.18.21Z" />
    <path class="cls-166"
        d="M22.15,17.11c0,.08,0,.73,0,.73l-.45.05a.75.75,0,0,1-.15-1.44L22,16.4S22.13,17,22.15,17.11Z" />
    <path class="cls-148"
        d="M22.15,17.11c0,.08,0,.73,0,.73h0c0-.18,0-.41,0-.45s-.19-.71-.19-.71l-.45.05a.56.56,0,0,0-.46.44.65.65,0,0,1,.49-.72L22,16.4S22.14,17,22.15,17.11Z" />
    <path class="cls-150"
        d="M21.61,18.06a.85.85,0,0,1-.76-.81.84.84,0,0,1,.64-1l.32,0a.32.32,0,0,1,.35.24c.14.49.15.57.16.6h0a5.37,5.37,0,0,1,0,.63A.34.34,0,0,1,22,18l-.31,0Zm.23-1.47-.31,0c-.22,0-.37.29-.34.59s.24.53.45.51l.31,0c0-.36,0-.53,0-.56S21.93,16.92,21.84,16.59Z" />
    <ellipse class="cls-166" cx="22.04" cy="17.12" rx="0.57" ry="0.72"
        transform="translate(-1.65 2.37) rotate(-5.94)" />
    <path class="cls-148"
        d="M22.6,17.06a.38.38,0,0,1,0,.15.61.61,0,0,0-.61-.52.62.62,0,0,0-.49.63l0-.14a.58.58,0,1,1,1.13-.12Z" />
    <path class="cls-150"
        d="M22.06,18a.67.67,0,0,1-.49-.23,1,1,0,0,1-.13-1.22.69.69,0,0,1,.5-.34.65.65,0,0,1,.56.23,1,1,0,0,1,.27.59h0a1,1,0,0,1-.14.63.68.68,0,0,1-.5.33Zm0-1.45h0a.32.32,0,0,0-.25.18.69.69,0,0,0-.09.41.73.73,0,0,0,.17.4.37.37,0,0,0,.28.11.33.33,0,0,0,.25-.17.59.59,0,0,0,.09-.42h0a.66.66,0,0,0-.17-.39A.35.35,0,0,0,22,16.57Z" />
    <path class="cls-148"
        d="M12.52,16.42a11.33,11.33,0,0,0,4.57.5.66.66,0,0,1,0,1c-.59.47-3.91.73-4.79-.22C11.74,17.12,12.52,16.42,12.52,16.42Z" />
    <g class="cls-152">
        <path class="cls-150"
            d="M17.09,18c-.59.47-3.91.73-4.79-.22a.73.73,0,0,1-.12-.85.61.61,0,0,0,.12.16c.88,1,4.2.69,4.79.22a1.06,1.06,0,0,0,.15-.15A.6.6,0,0,1,17.09,18Z" />
    </g>
    <path class="cls-150"
        d="M14.75,18.57a3.87,3.87,0,0,1-2.6-.71.87.87,0,0,1-.25-.66,1.55,1.55,0,0,1,.49-.93l.09-.09.12.05a11.16,11.16,0,0,0,4.48.49h.08l.07.05a1.09,1.09,0,0,1,.32.74.8.8,0,0,1-.34.6,5,5,0,0,1-2.41.46Zm-2.18-1.92a1.05,1.05,0,0,0-.27.57.48.48,0,0,0,.14.37c.82.88,4,.6,4.52.2a.42.42,0,0,0,.19-.3.59.59,0,0,0-.15-.37A12.43,12.43,0,0,1,12.57,16.65Z" />
    <g class="cls-152">
        <path class="cls-150"
            d="M24.09,21.16a2.69,2.69,0,0,1-2.87.63c-.7-.44-.72-1.06-1.21-1.42l-.25-.12a18.74,18.74,0,0,1,4.29-.83A1.24,1.24,0,0,1,24.09,21.16Z" />
    </g>
    <path class="cls-148"
        d="M17.35,13.76C19.1,16,22,17.29,23.71,18.85c.95.85.8,1.26.33,1.83a2.08,2.08,0,0,1-2.46.63c-.69-.44-.74-.86-1.23-1.22a10.18,10.18,0,0,1-5.08-3.69" />
    <g class="cls-152">
        <path class="cls-150"
            d="M24,20.68a2.08,2.08,0,0,1-2.46.63c-.69-.44-.74-.86-1.23-1.22a10.18,10.18,0,0,1-5.08-3.69l0,0c1.94,2,4,2.16,5.31,3.2a11.09,11.09,0,0,0,1.23.93,2.06,2.06,0,0,0,2.45-.62l.09-.12A1,1,0,0,1,24,20.68Z" />
    </g>
    <path class="cls-150"
        d="M17.41,13.72a12,12,0,0,1,1,.84l1,.86q.51.4,1.05.78c.36.26.73.5,1.09.75s.74.5,1.1.76l.27.2.27.2c.17.14.35.27.52.43a5.47,5.47,0,0,1,.5.47l.12.14.11.15.05.08,0,0s0,0,0,0l0,.09a.42.42,0,0,1,0,.1,1,1,0,0,1,0,.43,1.44,1.44,0,0,1-.15.38l-.21.3-.12.14A1.59,1.59,0,0,0,24,21a3,3,0,0,1-.59.41,2.3,2.3,0,0,1-.68.24,1.89,1.89,0,0,1-.75,0l-.09,0-.1,0-.18-.08-.17-.09a1.21,1.21,0,0,1-.14-.1,1.56,1.56,0,0,1-.28-.23,3.07,3.07,0,0,1-.25-.26,5.56,5.56,0,0,0-.41-.49l-.05-.05-.05,0,0,0h-.06l-.31-.12-.62-.25a11,11,0,0,1-2.33-1.37c-.18-.14-.35-.29-.52-.44s-.33-.3-.49-.47a2.85,2.85,0,0,1-.23-.26,1.47,1.47,0,0,1-.1-.13l-.1-.14a3,3,0,0,1-.16-.31,1.17,1.17,0,0,1-.11-.33.08.08,0,0,1,.06-.09.07.07,0,0,1,.06,0h0a2.88,2.88,0,0,1,.27.22l.23.23.11.11.11.12.1.12.11.12c.14.16.29.32.45.47s.32.28.49.41a10.2,10.2,0,0,0,2.23,1.31l.61.25.31.12,0,0,0,0,0,0h0l0,0,.14.12a6.14,6.14,0,0,1,.44.53,1.9,1.9,0,0,0,.44.41l.13.09.12.06a.52.52,0,0,0,.13.06H22l.07,0a1.37,1.37,0,0,0,.57,0,2.27,2.27,0,0,0,1.05-.55.52.52,0,0,0,.11-.1,1.25,1.25,0,0,0,.09-.12,1.88,1.88,0,0,0,.18-.24.61.61,0,0,0,.09-.23.45.45,0,0,0,0-.23,1.32,1.32,0,0,0-.3-.47,3.82,3.82,0,0,0-.46-.43,6.4,6.4,0,0,0-.5-.41l-.26-.2-.27-.19c-.35-.26-.72-.51-1.08-.75l-1.1-.76c-.36-.25-.72-.52-1.08-.79a8.47,8.47,0,0,1-1-.88,3.8,3.8,0,0,1-.8-1.09.07.07,0,0,1,0-.1.06.06,0,0,1,.07,0Z" />
    <path class="cls-150"
        d="M17.48,18.85h0a.21.21,0,0,1-.15-.25c0-.11.68-2.71,2.5-2.71h0a.2.2,0,0,1,.2.2.22.22,0,0,1-.21.2h0c-1.51,0-2.11,2.39-2.11,2.41A.2.2,0,0,1,17.48,18.85Z" />
    <path class="cls-150"
        d="M24.89,14.72l-.1,0c-1-.57-1.08-3.3-1.09-3.6a.21.21,0,0,1,.2-.21h0a.2.2,0,0,1,.2.2c0,.77.2,2.87.88,3.26a.19.19,0,0,1,.08.27A.21.21,0,0,1,24.89,14.72Z" />
    <path class="cls-150"
        d="M26.54,9.61a.11.11,0,0,0,0,.05v.06a.53.53,0,0,0,0,.13,1.07,1.07,0,0,0,0,.25c0,.09,0,.17,0,.26a2.33,2.33,0,0,1,.05.28.57.57,0,0,1-.24-.19.94.94,0,0,1-.09-.12c0-.05-.05-.09-.07-.14a1.4,1.4,0,0,1-.09-.29c0-.05,0-.1,0-.16V9.58a.18.18,0,0,1,.2-.15.19.19,0,0,1,.16.15Z" />
</svg>