<svg xmlns="http://www.w3.org/2000/svg" width="338" height="112" fill="none" viewBox="0 0 338 112"><g clip-path="url(#clip0)"><ellipse fill="#606063" rx="29.536" ry="14.011" transform="matrix(-0.868567 -0.495572 -0.495572 0.868567 58.4087 88.5519)"/><path fill="#606063" d="M80.8233 106.135L92.6086 98.9086L32.0914 64.3797L32.0065 78.2823L80.8233 106.135Z"/><path fill="#606063" d="M35.025 67.5011L6.02426 50.9544C5.33932 50.5636 4.46674 50.8247 4.10904 51.5275L2.49584 54.6971C1.67432 56.3112 2.23969 58.2857 3.79099 59.2205L33.7946 77.2986L35.025 67.5011Z"/><ellipse fill="url(#paint0_linear)" rx="35.595" ry="16.283" transform="matrix(-0.868567 -0.495572 -0.495572 0.868567 64.0387 78.685)"/><path stroke="#606063" stroke-width="1.381" d="M84.9131 100.661C85.8838 93.7458 77.8829 83.5317 65.352 76.382C52.8211 69.2324 39.957 67.5417 34.4979 71.8959"/><path stroke="#979797" stroke-width="1.381" d="M33.7218 61.3873C31.709 64.9149 32.9286 70.1007 37.0321 75.809C41.0966 81.4631 47.8401 87.3944 56.3116 92.2279C64.783 97.0614 73.3203 99.8488 80.2559 100.471C87.258 101.099 92.3428 99.5103 94.3556 95.9827C96.3683 92.455 95.1488 87.2693 91.0452 81.5609C86.9807 75.9068 80.2373 69.9755 71.7658 65.142C63.2943 60.3085 54.757 57.5212 47.8215 56.899C40.8193 56.2709 35.7345 57.8597 33.7218 61.3873Z"/><path stroke="url(#paint1_linear)" stroke-width="2.047" d="M30.9265 64.4478L30.7002 76.5107"/><mask id="path-8-outside-1" width="106.225" height="64.962" x="-4.736" y="47.316" fill="#000" maskUnits="userSpaceOnUse"><rect width="106.225" height="64.962" x="-4.736" y="47.316" fill="#fff"/><path fill-rule="evenodd" d="M51.4654 100.721C39.0173 93.6182 31.0394 83.4916 31.8863 76.5791C31.9157 76.3393 31.8085 76.1017 31.6015 75.977L3.79069 59.22C2.23939 58.2853 1.67403 56.3107 2.49555 54.6966L4.10875 51.527C4.46644 50.8242 5.33902 50.5631 6.02397 50.9539L31.8375 65.6822C31.9471 65.7447 32.0834 65.666 32.0842 65.5399C32.0752 65.2684 32.0768 65.0005 32.0891 64.7365L32.0912 64.3922C32.0912 64.3868 32.097 64.3835 32.1017 64.3861C32.1062 64.3887 32.1118 64.3857 32.1123 64.3806C32.2136 63.1766 32.5445 62.0567 33.122 61.0446C37.5786 53.2338 55.0332 54.7995 72.108 64.5418C89.1828 74.284 99.4119 88.5136 94.9553 96.3244C94.3779 97.3365 93.5822 98.1911 92.5974 98.891C92.5931 98.894 92.5934 98.9005 92.598 98.9031C92.6027 98.9058 92.6028 98.9126 92.5982 98.9154L92.1442 99.1938C92.0834 99.232 92.0219 99.2697 91.9599 99.3068L82.2536 105.259C76.7574 109.547 63.9461 107.842 51.4654 100.721Z" clip-rule="evenodd"/></mask><path fill="url(#paint2_linear)" d="M51.4654 100.721L50.4508 102.499L51.4654 100.721ZM3.79069 59.22L4.84737 57.4663L4.84737 57.4663L3.79069 59.22ZM2.49555 54.6966L4.32027 55.6253L4.32027 55.6253L2.49555 54.6966ZM4.10875 51.527L2.28403 50.5983L2.28403 50.5983L4.10875 51.527ZM6.02397 50.9539L5.0093 52.7323L6.02397 50.9539ZM32.0891 64.7365L34.1343 64.8313L34.1362 64.7902L34.1365 64.749L32.0891 64.7365ZM33.122 61.0446L34.9004 62.0593L34.9004 62.0593L33.122 61.0446ZM72.108 64.5418L71.0933 66.3201L72.108 64.5418ZM94.9553 96.3244L93.177 95.3097L93.177 95.3097L94.9553 96.3244ZM92.1442 99.1938L91.0739 97.4483L91.0645 97.4541L91.055 97.4601L92.1442 99.1938ZM91.9599 99.3068L90.9083 97.55L90.8989 97.5556L90.8896 97.5614L91.9599 99.3068ZM82.2536 105.259L81.1833 103.513L81.0849 103.574L80.994 103.645L82.2536 105.259ZM92.5982 98.9154L93.6685 100.661L92.5982 98.9154ZM92.5974 98.891L91.4114 97.222L92.5974 98.891ZM32.0912 64.3922L34.1386 64.4047L32.0912 64.3922ZM31.8375 65.6822L30.8228 67.4605L31.8375 65.6822ZM32.1123 64.3806L30.072 64.2088L32.1123 64.3806ZM31.8863 76.5791L29.8541 76.3302L31.8863 76.5791ZM31.6015 75.977L32.6582 74.2233L31.6015 75.977ZM29.8541 76.3302C29.3297 80.6098 31.5276 85.4259 35.0947 89.8617C38.7249 94.3761 44.0408 98.8417 50.4508 102.499L52.4801 98.9423C46.4418 95.4971 41.5448 91.3482 38.2858 87.2955C34.9636 83.1643 33.596 79.4609 33.9186 76.8281L29.8541 76.3302ZM2.73402 60.9737L30.5449 77.7307L32.6582 74.2233L4.84737 57.4663L2.73402 60.9737ZM0.670827 53.7679C-0.637863 56.3392 0.262764 59.4847 2.73402 60.9737L4.84737 57.4663C4.21602 57.0858 3.98592 56.2822 4.32027 55.6253L0.670827 53.7679ZM2.28403 50.5983L0.670827 53.7679L4.32027 55.6253L5.93347 52.4557L2.28403 50.5983ZM7.03863 49.1755C5.33823 48.2054 3.17203 48.8536 2.28403 50.5983L5.93347 52.4557C5.76086 52.7948 5.33981 52.9208 5.0093 52.7323L7.03863 49.1755ZM32.8522 63.9038L7.03863 49.1755L5.0093 52.7323L30.8228 67.4605L32.8522 63.9038ZM30.0438 64.6416C30.029 64.9616 30.0272 65.2836 30.0378 65.6072L34.1305 65.4727C34.1233 65.2533 34.1247 65.0395 34.1343 64.8313L30.0438 64.6416ZM30.0438 64.3797L30.0416 64.724L34.1365 64.749L34.1386 64.4047L30.0438 64.3797ZM31.3436 60.0299C30.6064 61.322 30.1962 62.7338 30.072 64.2088L34.1525 64.5524C34.231 63.6195 34.4826 62.7914 34.9004 62.0593L31.3436 60.0299ZM73.1227 62.7634C64.3898 57.7807 55.4755 54.8361 48.0661 54.1715C40.8541 53.5246 34.2111 55.0043 31.3436 60.0299L34.9004 62.0593C36.4895 59.274 40.8021 57.6313 47.7002 58.25C54.4009 58.8511 62.7514 61.5605 71.0933 66.3201L73.1227 62.7634ZM96.7337 97.3391C99.6011 92.3135 97.4949 85.8417 93.2684 79.9623C88.9262 73.9219 81.8555 67.7461 73.1227 62.7634L71.0933 66.3201C79.4352 71.0797 86.0165 76.8898 89.9434 82.3525C93.986 87.976 94.7661 92.5245 93.177 95.3097L96.7337 97.3391ZM93.7834 100.56C94.99 99.7025 95.9965 98.6311 96.7337 97.3391L93.177 95.3097C92.7593 96.0419 92.1744 96.6797 91.4114 97.222L93.7834 100.56ZM93.2145 100.939L93.6685 100.661L91.5279 97.17L91.0739 97.4483L93.2145 100.939ZM93.0114 101.064C93.0859 101.019 93.16 100.974 93.2335 100.927L91.055 97.4601C91.0069 97.4903 90.958 97.5203 90.9083 97.55L93.0114 101.064ZM83.3239 107.004L93.0302 101.052L90.8896 97.5614L81.1833 103.513L83.3239 107.004ZM50.4508 102.499C56.8773 106.166 63.4441 108.472 69.1885 109.295C74.8316 110.103 80.1053 109.532 83.5131 106.873L80.994 103.645C78.9056 105.274 75.0257 105.994 69.769 105.242C64.6135 104.503 58.5342 102.397 52.4801 98.9423L50.4508 102.499ZM91.5831 100.681C90.2359 99.9124 90.2055 97.9809 91.5279 97.17L93.6685 100.661C95.0001 99.8443 94.9695 97.8991 93.6129 97.1248L91.5831 100.681ZM91.4114 97.222C90.1957 98.0859 90.2708 99.9323 91.5831 100.681L93.6129 97.1248C94.916 97.8686 94.9906 99.7021 93.7834 100.56L91.4114 97.222ZM34.1386 64.4047C34.1291 65.9653 32.4425 66.9379 31.0871 66.1645L33.1164 62.6078C31.7516 61.8291 30.0533 62.8084 30.0438 64.3797L34.1386 64.4047ZM30.8228 67.4605C32.2925 68.2991 34.1213 67.2445 34.1316 65.5524L30.0367 65.5274C30.0455 64.0876 31.6016 63.1903 32.8522 63.9038L30.8228 67.4605ZM31.0871 66.1645C32.3995 66.9133 34.0274 66.0385 34.1525 64.5524L30.072 64.2088C30.1963 62.733 31.8129 61.8641 33.1164 62.6078L31.0871 66.1645ZM33.9186 76.8281C34.0395 75.841 33.6026 74.7923 32.6582 74.2233L30.5449 77.7307C30.0145 77.4111 29.7919 76.8375 29.8541 76.3302L33.9186 76.8281Z" mask="url(#path-8-outside-1)"/><mask id="path-10-outside-2" width="62.225" height="62.225" x="59.955" y="26.232" fill="#000" maskUnits="userSpaceOnUse"><rect width="62.225" height="62.225" x="59.955" y="26.232" fill="#fff"/><path fill-rule="evenodd" d="M73.8695 72.1137C73.8694 72.1137 73.8694 72.1136 73.8694 72.1136C68.4872 66.7315 71.2637 55.2288 80.0709 46.4217C88.878 37.6146 100.381 34.8381 105.763 40.2202C105.77 40.227 105.776 40.2339 105.783 40.2408L108.243 42.7009C113.626 48.0831 110.849 59.5857 102.042 68.3929C93.2348 77.2 81.7322 79.9765 76.35 74.5944L73.8694 72.1138L73.8695 72.1137Z" clip-rule="evenodd"/></mask><path fill="#612F01" d="M73.8695 72.1137L75.3275 70.6558L76.7854 72.1137L75.3275 73.5717L73.8695 72.1137ZM105.783 40.2408L104.325 41.6987L104.32 41.6938L105.783 40.2408ZM76.35 74.5944L74.8921 76.0523L76.35 74.5944ZM73.8694 72.1138L72.4115 73.5717L70.9535 72.1138L72.4115 70.6558L73.8694 72.1138ZM75.3273 70.6556L75.3273 70.6556L75.3273 70.6556L75.3273 70.6556L75.3273 70.6556L75.3273 70.6556L75.3273 70.6556L75.3273 70.6556L75.3273 70.6556L75.3273 70.6556L75.3273 70.6556L75.3273 70.6556L75.3273 70.6556L75.3273 70.6556L75.3273 70.6556L75.3273 70.6556L75.3273 70.6556L75.3273 70.6556L75.3273 70.6556L75.3273 70.6556L75.3273 70.6557L75.3273 70.6557L75.3273 70.6557L75.3274 70.6557L75.3274 70.6557L75.3274 70.6557L75.3274 70.6557L75.3274 70.6557L75.3274 70.6557L75.3274 70.6557C75.3274 70.6557 75.3274 70.6557 75.3274 70.6557C75.3274 70.6557 75.3274 70.6557 75.3274 70.6557C75.3274 70.6557 75.3274 70.6557 75.3274 70.6557C75.3274 70.6557 75.3274 70.6557 75.3274 70.6557C75.3274 70.6557 75.3274 70.6557 75.3274 70.6557C75.3274 70.6557 75.3274 70.6557 75.3274 70.6557C75.3274 70.6557 75.3274 70.6557 75.3274 70.6557C75.3274 70.6557 75.3274 70.6557 75.3274 70.6557C75.3274 70.6557 75.3274 70.6557 75.3274 70.6557C75.3274 70.6557 75.3274 70.6557 75.3274 70.6557C75.3274 70.6557 75.3274 70.6557 75.3274 70.6557C75.3274 70.6557 75.3274 70.6557 75.3274 70.6557C75.3274 70.6557 75.3274 70.6557 75.3274 70.6557C75.3274 70.6557 75.3274 70.6557 75.3274 70.6557C75.3274 70.6557 75.3274 70.6557 75.3274 70.6557C75.3274 70.6557 75.3274 70.6557 75.3274 70.6557C75.3274 70.6557 75.3274 70.6557 75.3274 70.6557C75.3274 70.6557 75.3274 70.6557 75.3274 70.6557C75.3274 70.6557 75.3274 70.6557 75.3274 70.6557C75.3274 70.6557 75.3274 70.6557 75.3274 70.6557C75.3274 70.6557 75.3274 70.6557 75.3274 70.6557C75.3274 70.6557 75.3274 70.6557 75.3274 70.6557C75.3274 70.6557 75.3274 70.6557 75.3274 70.6557C75.3274 70.6557 75.3274 70.6557 75.3274 70.6557C75.3274 70.6557 75.3274 70.6557 75.3274 70.6557C75.3274 70.6557 75.3274 70.6557 75.3274 70.6557C75.3274 70.6557 75.3274 70.6557 75.3274 70.6557C75.3274 70.6557 75.3274 70.6557 75.3274 70.6557C75.3274 70.6557 75.3274 70.6557 75.3274 70.6557C75.3274 70.6557 75.3274 70.6557 75.3274 70.6557C75.3274 70.6557 75.3274 70.6557 75.3274 70.6557C75.3274 70.6557 75.3274 70.6557 75.3274 70.6557C75.3274 70.6557 75.3274 70.6557 75.3274 70.6557C75.3274 70.6557 75.3274 70.6557 75.3274 70.6557C75.3274 70.6557 75.3274 70.6557 75.3274 70.6557C75.3274 70.6557 75.3274 70.6557 75.3274 70.6557C75.3274 70.6557 75.3274 70.6557 75.3274 70.6557C75.3274 70.6557 75.3274 70.6557 75.3274 70.6557C75.3274 70.6557 75.3274 70.6557 75.3274 70.6557C75.3274 70.6557 75.3274 70.6557 75.3274 70.6557C75.3274 70.6557 75.3274 70.6557 75.3274 70.6557C75.3274 70.6557 75.3274 70.6557 75.3274 70.6557C75.3274 70.6557 75.3274 70.6557 75.3274 70.6557C75.3274 70.6557 75.3274 70.6557 75.3274 70.6557C75.3274 70.6557 75.3274 70.6557 75.3274 70.6557C75.3274 70.6557 75.3274 70.6557 75.3274 70.6557C75.3274 70.6557 75.3274 70.6557 75.3274 70.6557C75.3274 70.6557 75.3274 70.6557 75.3274 70.6557C75.3274 70.6557 75.3274 70.6557 75.3274 70.6557C75.3274 70.6557 75.3274 70.6557 75.3274 70.6557C75.3274 70.6557 75.3274 70.6557 75.3274 70.6557C75.3274 70.6557 75.3274 70.6557 75.3274 70.6557C75.3274 70.6557 75.3274 70.6557 75.3274 70.6557C75.3274 70.6557 75.3274 70.6557 75.3274 70.6557C75.3274 70.6557 75.3274 70.6557 75.3274 70.6557C75.3274 70.6557 75.3274 70.6557 75.3274 70.6557C75.3274 70.6557 75.3274 70.6557 75.3274 70.6557C75.3274 70.6557 75.3274 70.6557 75.3274 70.6557C75.3274 70.6557 75.3274 70.6557 75.3274 70.6557C75.3274 70.6557 75.3274 70.6557 75.3274 70.6557C75.3274 70.6557 75.3274 70.6557 75.3274 70.6557C75.3274 70.6557 75.3274 70.6557 75.3274 70.6557C75.3274 70.6557 75.3274 70.6557 75.3274 70.6557C75.3274 70.6557 75.3274 70.6557 75.3274 70.6557C75.3274 70.6557 75.3274 70.6557 75.3274 70.6557C75.3274 70.6557 75.3274 70.6557 75.3274 70.6557C75.3274 70.6557 75.3274 70.6557 75.3274 70.6557C75.3274 70.6557 75.3274 70.6557 75.3274 70.6557C75.3274 70.6557 75.3274 70.6557 75.3274 70.6557C75.3274 70.6557 75.3274 70.6557 75.3274 70.6557C75.3274 70.6557 75.3274 70.6557 75.3274 70.6557C75.3274 70.6557 75.3274 70.6557 75.3274 70.6557C75.3274 70.6557 75.3274 70.6557 75.3274 70.6557C75.3274 70.6557 75.3274 70.6557 75.3274 70.6557C75.3274 70.6557 75.3274 70.6557 75.3274 70.6557C75.3274 70.6557 75.3274 70.6557 75.3274 70.6557C75.3274 70.6557 75.3274 70.6557 75.3274 70.6557C75.3274 70.6557 75.3274 70.6557 75.3274 70.6557C75.3274 70.6557 75.3274 70.6557 75.3274 70.6557C75.3274 70.6557 75.3274 70.6557 75.3274 70.6557C75.3274 70.6557 75.3274 70.6557 75.3274 70.6557C75.3274 70.6557 75.3274 70.6557 75.3274 70.6557C75.3274 70.6557 75.3274 70.6557 75.3274 70.6557C75.3274 70.6557 75.3274 70.6557 75.3274 70.6557C75.3274 70.6557 75.3274 70.6557 75.3274 70.6557C75.3274 70.6557 75.3274 70.6557 75.3274 70.6557C75.3274 70.6557 75.3274 70.6557 75.3274 70.6557C75.3274 70.6557 75.3274 70.6557 75.3274 70.6557C75.3274 70.6557 75.3274 70.6557 75.3274 70.6557C75.3274 70.6557 75.3274 70.6557 75.3274 70.6557C75.3274 70.6557 75.3274 70.6557 75.3274 70.6557C75.3274 70.6557 75.3274 70.6557 75.3274 70.6557C75.3274 70.6557 75.3274 70.6557 75.3274 70.6557C75.3274 70.6557 75.3274 70.6557 75.3274 70.6557C75.3274 70.6557 75.3274 70.6557 75.3274 70.6557C75.3274 70.6557 75.3274 70.6557 75.3274 70.6557C75.3274 70.6557 75.3274 70.6557 75.3274 70.6557C75.3274 70.6557 75.3274 70.6557 75.3274 70.6557C75.3274 70.6557 75.3274 70.6557 75.3274 70.6557C75.3274 70.6557 75.3274 70.6557 75.3274 70.6557C75.3274 70.6557 75.3274 70.6557 75.3274 70.6557C75.3274 70.6557 75.3274 70.6557 75.3274 70.6557C75.3274 70.6557 75.3274 70.6557 75.3274 70.6557C75.3274 70.6557 75.3274 70.6557 75.3274 70.6557C75.3274 70.6557 75.3274 70.6557 75.3274 70.6557C75.3274 70.6557 75.3274 70.6557 75.3274 70.6557C75.3274 70.6557 75.3274 70.6557 75.3274 70.6557C75.3274 70.6557 75.3274 70.6557 75.3274 70.6557C75.3274 70.6557 75.3274 70.6557 75.3274 70.6557C75.3274 70.6557 75.3274 70.6557 75.3274 70.6557C75.3274 70.6557 75.3274 70.6557 75.3274 70.6557C75.3274 70.6557 75.3274 70.6557 75.3274 70.6557C75.3274 70.6557 75.3274 70.6557 75.3274 70.6557C75.3274 70.6557 75.3274 70.6557 75.3274 70.6557L75.3274 70.6557L75.3274 70.6557L75.3274 70.6557L75.3274 70.6557L75.3274 70.6557L75.3274 70.6557L75.3274 70.6557L75.3274 70.6557L75.3274 70.6557L75.3274 70.6557L75.3274 70.6557L75.3274 70.6557L75.3274 70.6557L75.3274 70.6557L75.3274 70.6557L75.3274 70.6557L75.3274 70.6557L75.3274 70.6557L75.3274 70.6557L75.3274 70.6557L75.3274 70.6557L75.3274 70.6557L75.3274 70.6557L75.3274 70.6557L75.3274 70.6558L75.3274 70.6558L75.3274 70.6558L75.3275 70.6558L72.4115 73.5717L72.4115 73.5717L72.4115 73.5717L72.4115 73.5717L72.4115 73.5717L72.4115 73.5717L72.4115 73.5717L72.4115 73.5717L72.4115 73.5717L72.4115 73.5717L72.4115 73.5717L72.4115 73.5717L72.4115 73.5717L72.4115 73.5717L72.4115 73.5717L72.4115 73.5717L72.4115 73.5717L72.4115 73.5717L72.4115 73.5717L72.4115 73.5717L72.4115 73.5717L72.4115 73.5717L72.4115 73.5717L72.4115 73.5717L72.4115 73.5717L72.4115 73.5717L72.4115 73.5717L72.4115 73.5717L72.4115 73.5717C72.4115 73.5717 72.4115 73.5717 72.4115 73.5717C72.4115 73.5717 72.4115 73.5717 72.4115 73.5717C72.4115 73.5717 72.4115 73.5717 72.4115 73.5717C72.4115 73.5717 72.4115 73.5717 72.4115 73.5717C72.4115 73.5717 72.4115 73.5717 72.4115 73.5717C72.4115 73.5717 72.4115 73.5717 72.4115 73.5717C72.4115 73.5717 72.4115 73.5717 72.4115 73.5717C72.4115 73.5717 72.4115 73.5717 72.4115 73.5717C72.4115 73.5717 72.4115 73.5717 72.4115 73.5717C72.4115 73.5717 72.4115 73.5717 72.4115 73.5717C72.4115 73.5717 72.4115 73.5717 72.4115 73.5717C72.4115 73.5717 72.4115 73.5717 72.4115 73.5717C72.4115 73.5717 72.4115 73.5717 72.4115 73.5717C72.4115 73.5717 72.4115 73.5717 72.4115 73.5717C72.4115 73.5717 72.4115 73.5717 72.4115 73.5717C72.4115 73.5717 72.4115 73.5717 72.4115 73.5717C72.4115 73.5717 72.4115 73.5717 72.4115 73.5717C72.4115 73.5717 72.4115 73.5717 72.4115 73.5717C72.4115 73.5717 72.4115 73.5717 72.4115 73.5717C72.4115 73.5717 72.4115 73.5717 72.4115 73.5717C72.4115 73.5717 72.4115 73.5717 72.4115 73.5717C72.4115 73.5717 72.4115 73.5717 72.4115 73.5717C72.4115 73.5717 72.4115 73.5717 72.4115 73.5717C72.4115 73.5717 72.4115 73.5717 72.4115 73.5717C72.4115 73.5717 72.4115 73.5717 72.4115 73.5717C72.4115 73.5717 72.4115 73.5717 72.4115 73.5717C72.4115 73.5717 72.4115 73.5717 72.4115 73.5717C72.4115 73.5717 72.4115 73.5717 72.4115 73.5717C72.4115 73.5717 72.4115 73.5717 72.4115 73.5717C72.4115 73.5717 72.4115 73.5717 72.4115 73.5717C72.4115 73.5717 72.4115 73.5717 72.4115 73.5717C72.4115 73.5717 72.4115 73.5717 72.4115 73.5717C72.4115 73.5717 72.4115 73.5717 72.4115 73.5717C72.4115 73.5717 72.4115 73.5717 72.4115 73.5717C72.4115 73.5717 72.4115 73.5717 72.4115 73.5717C72.4115 73.5717 72.4115 73.5717 72.4115 73.5717C72.4115 73.5716 72.4115 73.5716 72.4115 73.5716C72.4115 73.5716 72.4115 73.5716 72.4115 73.5716C72.4115 73.5716 72.4115 73.5716 72.4115 73.5716C72.4115 73.5716 72.4115 73.5716 72.4115 73.5716C72.4115 73.5716 72.4115 73.5716 72.4115 73.5716C72.4115 73.5716 72.4115 73.5716 72.4115 73.5716C72.4115 73.5716 72.4115 73.5716 72.4115 73.5716C72.4115 73.5716 72.4115 73.5716 72.4115 73.5716C72.4115 73.5716 72.4115 73.5716 72.4115 73.5716C72.4115 73.5716 72.4115 73.5716 72.4115 73.5716C72.4115 73.5716 72.4115 73.5716 72.4115 73.5716C72.4115 73.5716 72.4115 73.5716 72.4115 73.5716C72.4115 73.5716 72.4115 73.5716 72.4115 73.5716C72.4115 73.5716 72.4115 73.5716 72.4115 73.5716C72.4115 73.5716 72.4115 73.5716 72.4115 73.5716C72.4115 73.5716 72.4115 73.5716 72.4115 73.5716C72.4115 73.5716 72.4115 73.5716 72.4115 73.5716C72.4115 73.5716 72.4115 73.5716 72.4115 73.5716C72.4115 73.5716 72.4115 73.5716 72.4115 73.5716C72.4115 73.5716 72.4115 73.5716 72.4115 73.5716C72.4115 73.5716 72.4115 73.5716 72.4115 73.5716C72.4115 73.5716 72.4115 73.5716 72.4115 73.5716C72.4115 73.5716 72.4115 73.5716 72.4115 73.5716C72.4115 73.5716 72.4115 73.5716 72.4114 73.5716C72.4114 73.5716 72.4114 73.5716 72.4114 73.5716C72.4114 73.5716 72.4114 73.5716 72.4114 73.5716C72.4114 73.5716 72.4114 73.5716 72.4114 73.5716C72.4114 73.5716 72.4114 73.5716 72.4114 73.5716C72.4114 73.5716 72.4114 73.5716 72.4114 73.5716C72.4114 73.5716 72.4114 73.5716 72.4114 73.5716C72.4114 73.5716 72.4114 73.5716 72.4114 73.5716C72.4114 73.5716 72.4114 73.5716 72.4114 73.5716C72.4114 73.5716 72.4114 73.5716 72.4114 73.5716C72.4114 73.5716 72.4114 73.5716 72.4114 73.5716C72.4114 73.5716 72.4114 73.5716 72.4114 73.5716C72.4114 73.5716 72.4114 73.5716 72.4114 73.5716C72.4114 73.5716 72.4114 73.5716 72.4114 73.5716C72.4114 73.5716 72.4114 73.5716 72.4114 73.5716C72.4114 73.5716 72.4114 73.5716 72.4114 73.5716C72.4114 73.5716 72.4114 73.5716 72.4114 73.5716C72.4114 73.5716 72.4114 73.5716 72.4114 73.5716C72.4114 73.5716 72.4114 73.5716 72.4114 73.5716C72.4114 73.5716 72.4114 73.5716 72.4114 73.5716C72.4114 73.5716 72.4114 73.5716 72.4114 73.5716C72.4114 73.5716 72.4114 73.5716 72.4114 73.5716C72.4114 73.5716 72.4114 73.5716 72.4114 73.5716C72.4114 73.5716 72.4114 73.5716 72.4114 73.5716C72.4114 73.5716 72.4114 73.5716 72.4114 73.5716C72.4114 73.5716 72.4114 73.5716 72.4114 73.5716C72.4114 73.5716 72.4114 73.5716 72.4114 73.5716C72.4114 73.5716 72.4114 73.5716 72.4114 73.5716C72.4114 73.5716 72.4114 73.5716 72.4114 73.5716C72.4114 73.5716 72.4114 73.5716 72.4114 73.5716C72.4114 73.5716 72.4114 73.5716 72.4114 73.5716C72.4114 73.5716 72.4114 73.5716 72.4114 73.5716C72.4114 73.5716 72.4114 73.5716 72.4114 73.5716C72.4114 73.5716 72.4114 73.5716 72.4114 73.5716C72.4114 73.5716 72.4114 73.5716 72.4114 73.5716C72.4114 73.5716 72.4114 73.5716 72.4114 73.5716C72.4114 73.5716 72.4114 73.5716 72.4114 73.5716C72.4114 73.5716 72.4114 73.5716 72.4114 73.5716C72.4114 73.5716 72.4114 73.5716 72.4114 73.5716C72.4114 73.5716 72.4114 73.5716 72.4114 73.5716C72.4114 73.5716 72.4114 73.5716 72.4114 73.5716C72.4114 73.5716 72.4114 73.5716 72.4114 73.5716C72.4114 73.5716 72.4114 73.5716 72.4114 73.5716C72.4114 73.5716 72.4114 73.5716 72.4114 73.5716C72.4114 73.5716 72.4114 73.5716 72.4114 73.5716C72.4114 73.5716 72.4114 73.5716 72.4114 73.5716C72.4114 73.5716 72.4114 73.5716 72.4114 73.5716C72.4114 73.5716 72.4114 73.5716 72.4114 73.5716C72.4114 73.5716 72.4114 73.5716 72.4114 73.5716C72.4114 73.5716 72.4114 73.5716 72.4114 73.5716C72.4114 73.5716 72.4114 73.5716 72.4114 73.5716C72.4114 73.5716 72.4114 73.5716 72.4114 73.5716C72.4114 73.5716 72.4114 73.5716 72.4114 73.5716C72.4114 73.5716 72.4114 73.5716 72.4114 73.5716C72.4114 73.5716 72.4114 73.5716 72.4114 73.5716L72.4114 73.5716L72.4114 73.5716L72.4114 73.5716L72.4114 73.5716L72.4114 73.5716L72.4114 73.5716L72.4114 73.5716L72.4114 73.5716L72.4114 73.5716L72.4114 73.5716L72.4114 73.5716L72.4114 73.5716L72.4114 73.5716L72.4114 73.5716L72.4114 73.5716L72.4114 73.5716L72.4114 73.5716L72.4114 73.5716L72.4114 73.5716L72.4114 73.5716L72.4114 73.5716L72.4114 73.5716L72.4114 73.5716L72.4114 73.5716L72.4114 73.5716L72.4114 73.5716L72.4114 73.5716L72.4114 73.5716L72.4114 73.5716L75.3273 70.6556ZM81.5288 47.8797C77.3488 52.0597 74.6729 56.8123 73.6535 61.0358C72.6243 65.2997 73.3364 68.6647 75.3273 70.6556L72.4114 73.5716C69.0202 70.1804 68.4295 65.103 69.6448 60.0682C70.8699 54.9931 73.9858 49.5908 78.6129 44.9637L81.5288 47.8797ZM104.305 41.6782C102.314 39.6872 98.9489 38.9751 94.685 40.0043C90.4615 41.0238 85.7088 43.6997 81.5288 47.8797L78.6129 44.9637C83.24 40.3366 88.6423 37.2207 93.7174 35.9956C98.7522 34.7804 103.83 35.371 107.221 38.7622L104.305 41.6782ZM104.32 41.6938C104.315 41.6886 104.31 41.6834 104.305 41.6782L107.221 38.7622C107.229 38.7707 107.238 38.7792 107.246 38.7877L104.32 41.6938ZM106.785 44.1589L104.325 41.6987L107.241 38.7828L109.701 41.243L106.785 44.1589ZM100.584 66.9349C104.764 62.7549 107.44 58.0023 108.459 53.7787C109.489 49.5149 108.776 46.1499 106.785 44.1589L109.701 41.243C113.093 44.6341 113.683 49.7115 112.468 54.7463C111.243 59.8214 108.127 65.2237 103.5 69.8508L100.584 66.9349ZM77.808 73.1364C79.799 75.1273 83.164 75.8395 87.4278 74.8103C91.6514 73.7908 96.404 71.1149 100.584 66.9349L103.5 69.8508C98.8728 74.478 93.4705 77.5939 88.3954 78.8189C83.3606 80.0342 78.2832 79.4435 74.8921 76.0523L77.808 73.1364ZM75.3274 70.6558L77.808 73.1364L74.8921 76.0523L72.4115 73.5717L75.3274 70.6558ZM75.3275 73.5717L75.3274 73.5717L72.4115 70.6558L72.4115 70.6558L75.3275 73.5717Z" mask="url(#path-10-outside-2)"/><path fill="#FEDC90" d="M76.3496 74.594C81.7318 79.9761 93.2344 77.1996 102.042 68.3925C110.849 59.5854 113.625 48.0827 108.243 42.7006L105.762 40.22L73.869 72.1134L76.3496 74.594Z"/><path fill="#D1884F" d="M73.8694 72.1136C79.2515 77.4957 90.7542 74.7192 99.5613 65.9121C108.368 57.105 111.145 45.6023 105.763 40.2202C100.381 34.8381 88.878 37.6146 80.0709 46.4217C71.2637 55.2288 68.4872 66.7315 73.8694 72.1136Z"/><mask id="path-14-outside-3" width="62.225" height="62.225" x="112.577" y="-1.652" fill="#000" maskUnits="userSpaceOnUse"><rect width="62.225" height="62.225" x="112.577" y="-1.652" fill="#fff"/><path fill-rule="evenodd" d="M158.514 46.6039C158.496 46.6226 158.477 46.6412 158.459 46.6597C153.077 52.0418 141.574 49.2653 132.767 40.4582C123.96 31.6512 121.183 20.1488 126.565 14.7666L126.565 14.7663L129.045 12.2857C134.427 6.9036 145.93 9.68011 154.737 18.4872C163.544 27.2944 166.321 38.797 160.939 44.1792L158.514 46.6039Z" clip-rule="evenodd"/></mask><path fill="#612F01" d="M158.514 46.6039L157.043 45.1594L157.049 45.1526L157.056 45.1459L158.514 46.6039ZM126.565 14.7666L128.023 13.3086L129.481 14.7665L128.023 16.2245L126.565 14.7666ZM126.565 14.7663L125.107 16.2243L123.649 14.7663L125.107 13.3084L126.565 14.7663ZM157.001 45.2017C157.015 45.1876 157.029 45.1735 157.043 45.1594L159.985 48.0484C159.962 48.0717 159.94 48.0948 159.917 48.1177L157.001 45.2017ZM134.225 39.0002C138.405 43.1802 143.157 45.8561 147.381 46.8756C151.645 47.9048 155.01 47.1927 157.001 45.2017L159.917 48.1177C156.526 51.5088 151.448 52.0995 146.413 50.8842C141.338 49.6592 135.936 46.5433 131.309 41.9162L134.225 39.0002ZM128.023 16.2245C126.032 18.2155 125.32 21.5805 126.349 25.8443C127.369 30.0678 130.045 34.8203 134.225 39.0002L131.309 41.9162C126.682 37.2891 123.566 31.887 122.341 26.812C121.125 21.7773 121.716 16.6999 125.107 13.3087L128.023 16.2245ZM128.023 13.3084L128.023 13.3086L125.107 16.2246L125.107 16.2243L128.023 13.3084ZM130.503 13.7437L128.023 16.2243L125.107 13.3084L127.587 10.8278L130.503 13.7437ZM153.279 19.9452C149.099 15.7652 144.347 13.0893 140.123 12.0698C135.859 11.0406 132.494 11.7527 130.503 13.7437L127.587 10.8278C130.979 7.43658 136.056 6.8459 141.091 8.06119C146.166 9.28622 151.568 12.4021 156.195 17.0293L153.279 19.9452ZM159.481 42.7212C161.472 40.7302 162.184 37.3652 161.155 33.1014C160.135 28.8778 157.459 24.1252 153.279 19.9452L156.195 17.0293C160.822 21.6564 163.938 27.0587 165.163 32.1338C166.379 37.1686 165.788 42.246 162.397 45.6371L159.481 42.7212ZM157.056 45.1459L159.481 42.7212L162.397 45.6371L159.972 48.0619L157.056 45.1459Z" mask="url(#path-14-outside-3)"/><path fill="#D1884F" d="M160.939 44.1785C166.321 38.7963 163.545 27.2937 154.738 18.4865C145.931 9.6794 134.428 6.9029 129.046 12.285L126.565 14.7656L158.459 46.6591L160.939 44.1785Z"/><path fill="#FEDC90" d="M158.459 46.6596C163.841 41.2774 161.064 29.7748 152.257 20.9676C143.45 12.1605 131.947 9.38401 126.565 14.7661C121.183 20.1483 123.96 31.6509 132.767 40.4581C141.574 49.2652 153.077 52.0417 158.459 46.6596Z"/><path fill="#8F80BA" d="M40.767 18.4553C40.6336 17.5797 39.3717 17.5797 39.2382 18.4553L38.4482 23.6402C38.3972 23.9747 38.1347 24.2372 37.8003 24.2881L32.6154 25.0782C31.7397 25.2116 31.7397 26.4735 32.6154 26.607L37.8003 27.397C38.1347 27.448 38.3972 27.7105 38.4482 28.0449L39.2382 33.2299C39.3717 34.1055 40.6336 34.1055 40.767 33.2299L41.5571 28.0449C41.608 27.7105 41.8705 27.448 42.205 27.397L47.3899 26.607C48.2655 26.4735 48.2655 25.2116 47.3899 25.0782L42.205 24.2881C41.8705 24.2372 41.608 23.9747 41.5571 23.6402L40.767 18.4553Z" opacity=".5"/><path fill="#8F80BA" d="M153.339 71.5398C153.206 70.6642 151.944 70.6642 151.811 71.5398L151.02 76.7247C150.969 77.0592 150.707 77.3217 150.373 77.3726L145.188 78.1627C144.312 78.2961 144.312 79.558 145.188 79.6914L150.373 80.4815C150.707 80.5325 150.969 80.795 151.02 81.1294L151.811 86.3143C151.944 87.19 153.206 87.19 153.339 86.3143L154.129 81.1294C154.18 80.795 154.443 80.5325 154.777 80.4815L159.962 79.6914C160.838 79.558 160.838 78.2961 159.962 78.1627L154.777 77.3726C154.443 77.3217 154.18 77.0592 154.129 76.7247L153.339 71.5398Z" opacity=".5"/><path fill="#8F80BA" d="M71.878 6.11024C72.0115 5.2346 73.2734 5.2346 73.4068 6.11024L73.6667 7.81603C73.7177 8.15049 73.9802 8.41298 74.3146 8.46394L76.0204 8.72387C76.8961 8.85729 76.8961 10.1192 76.0204 10.2526L74.3146 10.5126C73.9802 10.5635 73.7177 10.826 73.6667 11.1605L73.4068 12.8663C73.2734 13.7419 72.0115 13.7419 71.878 12.8663L71.6181 11.1605C71.5672 10.826 71.3047 10.5635 70.9702 10.5126L69.2644 10.2526C68.3888 10.1192 68.3888 8.85729 69.2644 8.72387L70.9702 8.46394C71.3047 8.41298 71.5672 8.15049 71.6181 7.81603L71.878 6.11024Z" opacity=".5"/></g><g clip-path="url(#clip1)"><path fill="#8F80BA" d="M203.239 52.6332C203.105 51.7575 201.843 51.7575 201.71 52.6332L200.92 57.8181C200.869 58.1526 200.606 58.415 200.272 58.466L195.087 59.2561C194.211 59.3895 194.211 60.6514 195.087 60.7848L200.272 61.5749C200.606 61.6259 200.869 61.8883 200.92 62.2228L201.71 67.4077C201.843 68.2834 203.105 68.2834 203.239 67.4077L204.029 62.2228C204.08 61.8883 204.342 61.6259 204.677 61.5749L209.862 60.7848C210.737 60.6514 210.737 59.3895 209.862 59.2561L204.677 58.466C204.342 58.415 204.08 58.1526 204.029 57.8181L203.239 52.6332Z" opacity=".5"/><path fill="#8F80BA" d="M302.281 36.126C302.148 35.2503 300.886 35.2503 300.753 36.126L299.963 41.3109C299.912 41.6454 299.649 41.9078 299.315 41.9588L294.13 42.7489C293.254 42.8823 293.254 44.1442 294.13 44.2776L299.315 45.0677C299.649 45.1187 299.912 45.3811 299.963 45.7156L300.753 50.9005C300.886 51.7762 302.148 51.7762 302.281 50.9005L303.071 45.7156C303.122 45.3811 303.385 45.1187 303.719 45.0677L308.904 44.2776C309.78 44.1442 309.78 42.8823 308.904 42.7489L303.719 41.9588C303.385 41.9078 303.122 41.6454 303.071 41.3109L302.281 36.126Z" opacity=".5"/><path fill="#8F80BA" d="M238.334 6.28614C238.467 5.4105 239.729 5.4105 239.862 6.28614L240.122 7.99194C240.173 8.32639 240.436 8.58888 240.77 8.63984L242.476 8.89977C243.352 9.0332 243.352 10.2951 242.476 10.4285L240.77 10.6885C240.436 10.7394 240.173 11.0019 240.122 11.3364L239.862 13.0422C239.729 13.9178 238.467 13.9178 238.334 13.0422L238.074 11.3364C238.023 11.0019 237.76 10.7394 237.426 10.6885L235.72 10.4285C234.844 10.2951 234.844 9.0332 235.72 8.89977L237.426 8.63984C237.76 8.58888 238.023 8.32639 238.074 7.99194L238.334 6.28614Z" opacity=".5"/><mask id="path-24-outside-4" width="61" height="41" x="252.769" y="70.998" fill="#000" maskUnits="userSpaceOnUse"><rect width="61" height="41" x="252.769" y="70.998" fill="#fff"/><path fill-rule="evenodd" d="M310.906 90.865V92.6651C310.906 101.97 298.563 109.513 283.338 109.513C268.112 109.513 255.769 101.97 255.769 92.6651V90.8458H255.769C255.769 90.8455 255.769 90.8452 255.769 90.845C255.769 81.5404 268.112 73.9976 283.338 73.9976C298.563 73.9976 310.906 81.5404 310.906 90.845C310.906 90.8517 310.906 90.8583 310.906 90.865Z" clip-rule="evenodd"/></mask><path fill="#606063" d="M310.906 90.865L308.844 90.8615V90.865H310.906ZM255.769 90.8458V88.7839H253.707V90.8458H255.769ZM255.769 90.8458V92.9076H257.831L257.831 90.8456L255.769 90.8458ZM308.844 90.865V92.6651H312.968V90.865H308.844ZM308.844 92.6651C308.844 96.3273 306.407 99.9767 301.756 102.819C297.141 105.639 290.634 107.451 283.338 107.451V111.574C291.267 111.574 298.544 109.615 303.907 106.337C309.234 103.082 312.968 98.3075 312.968 92.6651H308.844ZM283.338 107.451C276.041 107.451 269.534 105.639 264.919 102.819C260.269 99.9767 257.831 96.3273 257.831 92.6651H253.707C253.707 98.3075 257.441 103.082 262.769 106.337C268.131 109.615 275.409 111.574 283.338 111.574V107.451ZM257.831 92.6651V90.8458H253.707V92.6651H257.831ZM255.769 92.9076H255.769V88.7839H255.769V92.9076ZM257.831 90.8456C257.831 90.8454 257.831 90.8452 257.831 90.845H253.707C253.707 90.8453 253.707 90.8456 253.707 90.8459L257.831 90.8456ZM257.831 90.845C257.831 87.1828 260.269 83.5334 264.919 80.6914C269.534 77.871 276.041 76.0594 283.338 76.0594V71.9357C275.409 71.9357 268.131 73.8955 262.769 77.1727C257.441 80.4282 253.707 85.2026 253.707 90.845H257.831ZM283.338 76.0594C290.634 76.0594 297.141 77.871 301.757 80.6914C306.407 83.5334 308.844 87.1828 308.844 90.845H312.968C312.968 85.2026 309.234 80.4282 303.907 77.1727C298.544 73.8955 291.267 71.9357 283.338 71.9357V76.0594ZM308.844 90.845C308.844 90.8501 308.844 90.8555 308.844 90.8615L312.968 90.8685C312.968 90.8611 312.968 90.8532 312.968 90.845H308.844Z" mask="url(#path-24-outside-4)"/><path fill="#BDC2C4" d="M310.906 92.6651C310.906 101.97 298.563 109.513 283.338 109.513C268.112 109.513 255.769 101.97 255.769 92.6651V90.8457H310.906V92.6651Z"/><path fill="#FAF9FA" d="M310.906 90.845C310.906 100.15 298.563 107.692 283.338 107.692C268.112 107.692 255.769 100.15 255.769 90.845C255.769 81.5404 268.112 73.9976 283.338 73.9976C298.563 73.9976 310.906 81.5404 310.906 90.845Z"/><mask id="path-28-outside-5" width="51" height="37" x="257.864" y="69.061" fill="#000" maskUnits="userSpaceOnUse"><rect width="51" height="37" x="257.864" y="69.061" fill="#fff"/><path fill-rule="evenodd" d="M305.968 85.9364C305.968 85.9051 305.968 85.8739 305.968 85.8426C305.968 78.2311 295.871 72.0608 283.416 72.0608C270.961 72.0608 260.864 78.2311 260.864 85.8426C260.864 85.8428 260.864 85.8431 260.864 85.8433H260.864V89.3514C260.864 96.9629 270.961 103.133 283.416 103.133C295.871 103.133 305.968 96.9629 305.968 89.3514V85.9364Z" clip-rule="evenodd"/></mask><path fill="#612F01" d="M305.968 85.9364L303.906 85.914L303.906 85.9252V85.9364H305.968ZM260.864 85.8433V87.9052H262.926L262.926 85.8431L260.864 85.8433ZM260.864 85.8433V83.7814H258.802V85.8433H260.864ZM303.907 85.8426C303.907 85.8663 303.906 85.8901 303.906 85.914L308.03 85.9588C308.03 85.9202 308.03 85.8814 308.03 85.8426H303.907ZM283.416 74.1227C289.328 74.1227 294.581 75.5911 298.288 77.8568C302.031 80.144 303.907 83.027 303.907 85.8426H308.03C308.03 81.0468 304.858 77.0388 300.438 74.338C295.983 71.6156 289.96 69.9989 283.416 69.9989V74.1227ZM262.926 85.8426C262.926 83.027 264.802 80.144 268.545 77.8568C272.252 75.5911 277.505 74.1227 283.416 74.1227V69.9989C276.873 69.9989 270.849 71.6156 266.394 74.338C261.975 77.0388 258.802 81.0468 258.802 85.8426H262.926ZM262.926 85.8431C262.926 85.8429 262.926 85.8428 262.926 85.8426H258.802C258.802 85.8429 258.802 85.8432 258.802 85.8434L262.926 85.8431ZM260.864 87.9052H260.864V83.7814H260.864V87.9052ZM262.926 89.3514V85.8433H258.802V89.3514H262.926ZM283.416 101.071C277.504 101.071 272.252 99.6028 268.544 97.3372C264.802 95.05 262.926 92.167 262.926 89.3514H258.802C258.802 94.1472 261.974 98.1552 266.394 100.856C270.849 103.578 276.872 105.195 283.416 105.195V101.071ZM303.906 89.3514C303.906 92.167 302.03 95.05 298.287 97.3372C294.58 99.6028 289.327 101.071 283.416 101.071V105.195C289.96 105.195 295.983 103.578 300.438 100.856C304.857 98.1552 308.03 94.1472 308.03 89.3514H303.906ZM303.906 85.9364V89.3514H308.03V85.9364H303.906Z" mask="url(#path-28-outside-5)"/><path fill="#FEDC90" d="M305.968 89.3514C305.968 96.9628 295.871 103.133 283.416 103.133C270.961 103.133 260.864 96.9628 260.864 89.3514V85.8433H305.968V89.3514Z"/><path fill="#D1884F" d="M305.968 85.8426C305.968 93.4541 295.871 99.6244 283.416 99.6244C270.96 99.6244 260.864 93.4541 260.864 85.8426C260.864 78.2311 270.96 72.0608 283.416 72.0608C295.871 72.0608 305.968 78.2311 305.968 85.8426Z"/><mask id="path-32-outside-6" width="51" height="37" x="261.567" y="64.517" fill="#000" maskUnits="userSpaceOnUse"><rect width="51" height="37" x="261.567" y="64.517" fill="#fff"/><path fill-rule="evenodd" d="M309.671 81.4412C309.672 81.3938 309.672 81.3463 309.672 81.2988C309.672 73.6873 299.575 67.517 287.12 67.517C274.665 67.517 264.569 73.6868 264.568 81.2978H264.567V84.8059C264.567 92.4174 274.664 98.5877 287.119 98.5877C299.574 98.5877 309.671 92.4174 309.671 84.8059V81.4412Z" clip-rule="evenodd"/></mask><path fill="#612F01" d="M309.671 81.4412L307.609 81.407L307.609 81.4241V81.4412H309.671ZM264.568 81.2978V83.3597H266.63L266.63 81.2981L264.568 81.2978ZM264.567 81.2978V79.2359H262.505V81.2978H264.567ZM307.61 81.2988C307.61 81.3349 307.61 81.371 307.609 81.407L311.733 81.4753C311.734 81.4165 311.734 81.3577 311.734 81.2988H307.61ZM287.12 69.5788C293.032 69.5788 298.284 71.0473 301.992 73.3129C305.734 75.6002 307.61 78.4831 307.61 81.2988H311.734C311.734 76.5029 308.561 72.495 304.142 69.7942C299.687 67.0718 293.664 65.4551 287.12 65.4551V69.5788ZM266.63 81.2981C266.63 78.4826 268.506 75.5997 272.249 73.3127C275.956 71.0472 281.209 69.5788 287.12 69.5788V65.4551C280.577 65.4551 274.554 67.0717 270.099 69.7939C265.679 72.4944 262.507 76.5021 262.506 81.2976L266.63 81.2981ZM264.567 83.3597H264.568V79.2359H264.567V83.3597ZM266.629 84.8059V81.2978H262.505V84.8059H266.629ZM287.119 96.5259C281.208 96.5259 275.955 95.0574 272.247 92.7918C268.505 90.5045 266.629 87.6216 266.629 84.8059H262.505C262.505 89.6018 265.678 93.6097 270.097 96.3105C274.552 99.0329 280.575 100.65 287.119 100.65V96.5259ZM307.609 84.8059C307.609 87.6216 305.733 90.5045 301.99 92.7918C298.283 95.0574 293.03 96.5259 287.119 96.5259V100.65C293.663 100.65 299.686 99.0329 304.141 96.3105C308.56 93.6097 311.733 89.6018 311.733 84.8059H307.609ZM307.609 81.4412V84.8059H311.733V81.4412H307.609Z" mask="url(#path-32-outside-6)"/><path fill="#FEDC90" d="M309.671 84.8061C309.671 92.4176 299.574 98.5879 287.119 98.5879C274.664 98.5879 264.567 92.4176 264.567 84.8061V81.298H309.671V84.8061Z"/><path fill="#D1884F" d="M309.671 81.2991C309.671 88.9106 299.574 95.081 287.119 95.081C274.664 95.081 264.567 88.9106 264.567 81.2991C264.567 73.6877 274.664 67.5173 287.119 67.5173C299.574 67.5173 309.671 73.6877 309.671 81.2991Z"/><mask id="path-36-outside-7" width="51" height="37" x="252.464" y="57.95" fill="#000" maskUnits="userSpaceOnUse"><rect width="51" height="37" x="252.464" y="57.95" fill="#fff"/><path fill-rule="evenodd" d="M300.568 74.82C300.569 74.7907 300.569 74.7614 300.569 74.732C300.569 67.1205 290.472 60.9502 278.017 60.9502C265.562 60.9502 255.465 67.1205 255.465 74.732C255.465 74.7322 255.465 74.7324 255.465 74.7325H255.464V78.2406C255.464 85.8521 265.561 92.0224 278.016 92.0224C290.472 92.0224 300.568 85.8521 300.568 78.2406V74.82Z" clip-rule="evenodd"/></mask><path fill="#612F01" d="M300.568 74.82L298.507 74.7988L298.507 74.8094V74.82H300.568ZM255.465 74.7325V76.7944H257.527L257.527 74.7324L255.465 74.7325ZM255.464 74.7325V72.6707H253.402V74.7325H255.464ZM298.507 74.732C298.507 74.7544 298.507 74.7767 298.507 74.7988L302.63 74.8412C302.631 74.8047 302.631 74.7683 302.631 74.732H298.507ZM278.017 63.0121C283.928 63.0121 289.181 64.4805 292.888 66.7462C296.631 69.0334 298.507 71.9164 298.507 74.732H302.631C302.631 69.9362 299.458 65.9282 295.039 63.2274C290.584 60.505 284.561 58.8883 278.017 58.8883V63.0121ZM257.527 74.732C257.527 71.9164 259.403 69.0334 263.145 66.7462C266.853 64.4805 272.105 63.0121 278.017 63.0121V58.8883C271.473 58.8883 265.45 60.505 260.995 63.2274C256.576 65.9282 253.403 69.9362 253.403 74.732H257.527ZM257.527 74.7324C257.527 74.7323 257.527 74.7321 257.527 74.732H253.403C253.403 74.7322 253.403 74.7324 253.403 74.7327L257.527 74.7324ZM255.464 76.7944H255.465V72.6707H255.464V76.7944ZM257.526 78.2406V74.7325H253.402V78.2406H257.526ZM278.016 89.9606C272.105 89.9606 266.852 88.4921 263.145 86.2265C259.402 83.9392 257.526 81.0563 257.526 78.2406H253.402C253.402 83.0365 256.575 87.0444 260.995 89.7452C265.449 92.4676 271.473 94.0843 278.016 94.0843V89.9606ZM298.507 78.2406C298.507 81.0563 296.631 83.9392 292.888 86.2265C289.181 88.4921 283.928 89.9606 278.016 89.9606V94.0843C284.56 94.0843 290.583 92.4676 295.038 89.7452C299.458 87.0444 302.63 83.0365 302.63 78.2406H298.507ZM298.507 74.82V78.2406H302.63V74.82H298.507Z" mask="url(#path-36-outside-7)"/><path fill="#FEDC90" d="M300.568 78.2406C300.568 85.8521 290.472 92.0225 278.016 92.0225C265.561 92.0225 255.464 85.8521 255.464 78.2406V74.7325H300.568V78.2406Z"/><path fill="#D1884F" d="M300.569 74.732C300.569 82.3435 290.472 88.5138 278.017 88.5138C265.561 88.5138 255.465 82.3435 255.465 74.732C255.465 67.1205 265.561 60.9502 278.017 60.9502C290.472 60.9502 300.569 67.1205 300.569 74.732Z"/><mask id="path-40-outside-8" width="62.667" height="57.543" x="213.944" y="15.698" fill="#000" maskUnits="userSpaceOnUse"><rect width="62.667" height="57.543" x="213.944" y="15.698" fill="#fff"/><path fill-rule="evenodd" d="M265.677 34.5943C265.689 34.6146 265.701 34.6349 265.713 34.6553C269.518 41.2471 263.859 51.6392 253.073 57.8668C242.287 64.0942 230.458 63.7992 226.652 57.2078L226.651 57.2079L224.897 54.1698C221.092 47.5781 226.751 37.186 237.537 30.9584C248.323 24.7308 260.153 25.026 263.959 31.6178L265.677 34.5943Z" clip-rule="evenodd"/></mask><path fill="#612F01" d="M265.677 34.5943L263.9 35.64L263.896 35.6326L263.891 35.6253L265.677 34.5943ZM226.652 57.2078L225.621 55.4221L227.406 54.3912L228.437 56.1767L226.652 57.2078ZM226.651 57.2079L227.682 58.9936L225.897 60.0245L224.866 58.2389L226.651 57.2079ZM263.927 35.6863C263.918 35.6707 263.909 35.6553 263.9 35.64L267.454 33.5487C267.469 33.5739 267.484 33.5992 267.498 33.6244L263.927 35.6863ZM252.042 56.0811C257.161 53.1254 260.976 49.2273 263.054 45.4116C265.152 41.5594 265.335 38.1247 263.927 35.6863L267.498 33.6244C269.896 37.7777 269.153 42.835 266.676 47.3837C264.179 51.9688 259.771 56.3805 254.104 59.6524L252.042 56.0811ZM228.437 56.1767C229.845 58.615 232.911 60.1737 237.296 60.2831C241.639 60.3914 246.923 59.0368 252.042 56.0811L254.104 59.6524C248.437 62.9242 242.412 64.5358 237.193 64.4056C232.016 64.2764 227.264 62.3919 224.866 58.2388L228.437 56.1767ZM225.62 55.4223L225.621 55.4221L227.683 58.9934L227.682 58.9936L225.62 55.4223ZM226.683 53.1389L228.437 56.177L224.866 58.2389L223.112 55.2008L226.683 53.1389ZM238.568 32.744C233.449 35.6997 229.634 39.5979 227.556 43.4136C225.458 47.2658 225.275 50.7005 226.683 53.1389L223.112 55.2008C220.714 51.0474 221.457 45.9902 223.934 41.4415C226.431 36.8564 230.839 32.4446 236.506 29.1728L238.568 32.744ZM262.173 32.6487C260.765 30.2103 257.699 28.6515 253.314 28.5421C248.971 28.4337 243.687 29.7883 238.568 32.744L236.506 29.1728C242.173 25.9009 248.198 24.2894 253.417 24.4196C258.595 24.5488 263.346 26.4335 265.744 30.5868L262.173 32.6487ZM263.891 35.6253L262.173 32.6487L265.744 30.5868L267.463 33.5634L263.891 35.6253Z" mask="url(#path-40-outside-8)"/><path fill="#D1884F" d="M263.958 31.6171C260.152 25.0254 248.323 24.7302 237.536 30.9578C226.75 37.1853 221.091 47.5774 224.897 54.1692L226.651 57.2073L265.712 34.6552L263.958 31.6171Z"/><path fill="#FEDC90" d="M265.712 34.6555C261.907 28.0638 250.077 27.7685 239.291 33.9961C228.504 40.2237 222.845 50.6158 226.651 57.2075C230.457 63.7993 242.286 64.0945 253.073 57.8669C263.859 51.6393 269.518 41.2472 265.712 34.6555Z"/><mask id="path-44-outside-9" width="62.225" height="62.225" x="165.316" y="-5.174" fill="#000" maskUnits="userSpaceOnUse"><rect width="62.225" height="62.225" x="165.316" y="-5.174" fill="#fff"/><path fill-rule="evenodd" d="M179.231 40.707C179.231 40.707 179.231 40.7069 179.231 40.7069C173.849 35.3247 176.625 23.8221 185.432 15.0149C194.239 6.20782 205.742 3.43132 211.124 8.81345C211.13 8.81961 211.136 8.82577 211.143 8.83194L213.605 11.2942C218.987 16.6763 216.21 28.179 207.403 36.9861C198.596 45.7932 187.094 48.5698 181.711 43.1876L179.231 40.707L179.231 40.707Z" clip-rule="evenodd"/></mask><path fill="#612F01" d="M179.231 40.707L180.689 39.249L182.147 40.707L180.689 42.165L179.231 40.707ZM211.143 8.83194L209.685 10.2899L209.68 10.2855L211.143 8.83194ZM181.711 43.1876L183.169 41.7297L181.711 43.1876ZM179.231 40.707L177.773 42.165L176.315 40.707L177.773 39.249L179.231 40.707ZM180.689 39.2489L180.689 39.2489C180.689 39.2489 180.689 39.2489 180.689 39.2489C180.689 39.2489 180.689 39.2489 180.689 39.2489C180.689 39.2489 180.689 39.2489 180.689 39.2489C180.689 39.2489 180.689 39.2489 180.689 39.2489L180.689 39.2489L180.689 39.2489C180.689 39.2489 180.689 39.2489 180.689 39.2489C180.689 39.2489 180.689 39.2489 180.689 39.2489C180.689 39.2489 180.689 39.2489 180.689 39.2489C180.689 39.2489 180.689 39.2489 180.689 39.2489C180.689 39.2489 180.689 39.2489 180.689 39.2489L180.689 39.2489L180.689 39.2489C180.689 39.2489 180.689 39.2489 180.689 39.2489C180.689 39.2489 180.689 39.2489 180.689 39.2489C180.689 39.2489 180.689 39.2489 180.689 39.2489C180.689 39.2489 180.689 39.2489 180.689 39.2489L180.689 39.2489L180.689 39.2489C180.689 39.2489 180.689 39.2489 180.689 39.2489C180.689 39.2489 180.689 39.2489 180.689 39.2489C180.689 39.2489 180.689 39.2489 180.689 39.2489C180.689 39.2489 180.689 39.2489 180.689 39.2489L180.689 39.2489L180.689 39.2489C180.689 39.2489 180.689 39.2489 180.689 39.2489C180.689 39.2489 180.689 39.2489 180.689 39.2489C180.689 39.2489 180.689 39.2489 180.689 39.2489C180.689 39.2489 180.689 39.2489 180.689 39.2489L180.689 39.2489L180.689 39.2489C180.689 39.2489 180.689 39.2489 180.689 39.2489C180.689 39.2489 180.689 39.2489 180.689 39.2489C180.689 39.2489 180.689 39.2489 180.689 39.2489C180.689 39.2489 180.689 39.2489 180.689 39.2489L180.689 39.2489L180.689 39.2489C180.689 39.2489 180.689 39.2489 180.689 39.2489C180.689 39.2489 180.689 39.2489 180.689 39.2489C180.689 39.2489 180.689 39.2489 180.689 39.2489L180.689 39.2489L180.689 39.2489C180.689 39.2489 180.689 39.2489 180.689 39.2489C180.689 39.2489 180.689 39.2489 180.689 39.2489C180.689 39.2489 180.689 39.2489 180.689 39.2489C180.689 39.2489 180.689 39.2489 180.689 39.2489L180.689 39.2489L180.689 39.2489C180.689 39.2489 180.689 39.2489 180.689 39.2489C180.689 39.2489 180.689 39.2489 180.689 39.2489C180.689 39.2489 180.689 39.2489 180.689 39.2489C180.689 39.2489 180.689 39.2489 180.689 39.2489L180.689 39.2489L180.689 39.2489C180.689 39.2489 180.689 39.2489 180.689 39.2489C180.689 39.2489 180.689 39.2489 180.689 39.2489C180.689 39.2489 180.689 39.2489 180.689 39.2489C180.689 39.2489 180.689 39.2489 180.689 39.2489L180.689 39.2489L180.689 39.2489C180.689 39.2489 180.689 39.2489 180.689 39.2489C180.689 39.2489 180.689 39.2489 180.689 39.2489C180.689 39.2489 180.689 39.2489 180.689 39.2489L180.689 39.2489L180.689 39.2489C180.689 39.2489 180.689 39.2489 180.689 39.2489C180.689 39.2489 180.689 39.2489 180.689 39.2489C180.689 39.2489 180.689 39.2489 180.689 39.2489C180.689 39.2489 180.689 39.2489 180.689 39.2489L180.689 39.2489L180.689 39.2489C180.689 39.2489 180.689 39.2489 180.689 39.2489C180.689 39.2489 180.689 39.2489 180.689 39.2489C180.689 39.2489 180.689 39.2489 180.689 39.2489C180.689 39.2489 180.689 39.2489 180.689 39.2489L180.689 39.249C180.689 39.249 180.689 39.249 180.689 39.249C180.689 39.249 180.689 39.249 180.689 39.249C180.689 39.249 180.689 39.249 180.689 39.249C180.689 39.249 180.689 39.249 180.689 39.249L180.689 39.249L180.689 39.249C180.689 39.249 180.689 39.249 180.689 39.249C180.689 39.249 180.689 39.249 180.689 39.249C180.689 39.249 180.689 39.249 180.689 39.249C180.689 39.249 180.689 39.249 180.689 39.249L180.689 39.249L180.689 39.249C180.689 39.249 180.689 39.249 180.689 39.249C180.689 39.249 180.689 39.249 180.689 39.249C180.689 39.249 180.689 39.249 180.689 39.249L180.689 39.249L180.689 39.249C180.689 39.249 180.689 39.249 180.689 39.249C180.689 39.249 180.689 39.249 180.689 39.249C180.689 39.249 180.689 39.249 180.689 39.249C180.689 39.249 180.689 39.249 180.689 39.249L180.689 39.249L180.689 39.249C180.689 39.249 180.689 39.249 180.689 39.249C180.689 39.249 180.689 39.249 180.689 39.249C180.689 39.249 180.689 39.249 180.689 39.249C180.689 39.249 180.689 39.249 180.689 39.249L180.689 39.249C180.689 39.249 180.689 39.249 180.689 39.249C180.689 39.249 180.689 39.249 180.689 39.249C180.689 39.249 180.689 39.249 180.689 39.249C180.689 39.249 180.689 39.249 180.689 39.249L180.689 39.249L180.689 39.249C180.689 39.249 180.689 39.249 180.689 39.249C180.689 39.249 180.689 39.249 180.689 39.249C180.689 39.249 180.689 39.249 180.689 39.249C180.689 39.249 180.689 39.249 180.689 39.249L180.689 39.249L180.689 39.249C180.689 39.249 180.689 39.249 180.689 39.249C180.689 39.249 180.689 39.249 180.689 39.249C180.689 39.249 180.689 39.249 180.689 39.249L180.689 39.249L180.689 39.249C180.689 39.249 180.689 39.249 180.689 39.249C180.689 39.249 180.689 39.249 180.689 39.249C180.689 39.249 180.689 39.249 180.689 39.249C180.689 39.249 180.689 39.249 180.689 39.249L180.689 39.249L180.689 39.249C180.689 39.249 180.689 39.249 180.689 39.249C180.689 39.249 180.689 39.249 180.689 39.249C180.689 39.249 180.689 39.249 180.689 39.249C180.689 39.249 180.689 39.249 180.689 39.249L180.689 39.249L180.689 39.249C180.689 39.249 180.689 39.249 180.689 39.249C180.689 39.249 180.689 39.249 180.689 39.249C180.689 39.249 180.689 39.249 180.689 39.249C180.689 39.249 180.689 39.249 180.689 39.249L180.689 39.249L180.689 39.249C180.689 39.249 180.689 39.249 180.689 39.249C180.689 39.249 180.689 39.249 180.689 39.249C180.689 39.249 180.689 39.249 180.689 39.249L180.689 39.249L180.689 39.249C180.689 39.249 180.689 39.249 180.689 39.249C180.689 39.249 180.689 39.249 180.689 39.249C180.689 39.249 180.689 39.249 180.689 39.249C180.689 39.249 180.689 39.249 180.689 39.249L180.689 39.249L180.689 39.249C180.689 39.249 180.689 39.249 180.689 39.249C180.689 39.249 180.689 39.249 180.689 39.249C180.689 39.249 180.689 39.249 180.689 39.249C180.689 39.249 180.689 39.249 180.689 39.249L180.689 39.249L180.689 39.249C180.689 39.249 180.689 39.249 180.689 39.249C180.689 39.249 180.689 39.249 180.689 39.249C180.689 39.249 180.689 39.249 180.689 39.249C180.689 39.249 180.689 39.249 180.689 39.249L180.689 39.249L180.689 39.249C180.689 39.249 180.689 39.249 180.689 39.249C180.689 39.249 180.689 39.249 180.689 39.249C180.689 39.249 180.689 39.249 180.689 39.249C180.689 39.249 180.689 39.249 180.689 39.249L180.689 39.249L180.689 39.249C180.689 39.249 180.689 39.249 180.689 39.249C180.689 39.249 180.689 39.249 180.689 39.249C180.689 39.249 180.689 39.249 180.689 39.249C180.689 39.249 180.689 39.249 180.689 39.249C180.689 39.249 180.689 39.249 180.689 39.249L180.689 39.249L180.689 39.249C180.689 39.249 180.689 39.249 180.689 39.249C180.689 39.249 180.689 39.249 180.689 39.249C180.689 39.249 180.689 39.249 180.689 39.249C180.689 39.249 180.689 39.249 180.689 39.249L180.689 39.249L177.773 42.165L177.773 42.165C177.773 42.165 177.773 42.165 177.773 42.165C177.773 42.165 177.773 42.165 177.773 42.165C177.773 42.165 177.773 42.165 177.773 42.165C177.773 42.165 177.773 42.165 177.773 42.165L177.773 42.165L177.773 42.165C177.773 42.165 177.773 42.165 177.773 42.165C177.773 42.165 177.773 42.165 177.773 42.165C177.773 42.165 177.773 42.165 177.773 42.165C177.773 42.165 177.773 42.165 177.773 42.165C177.773 42.165 177.773 42.165 177.773 42.165L177.773 42.165L177.773 42.165C177.773 42.165 177.773 42.165 177.773 42.165C177.773 42.165 177.773 42.165 177.773 42.165C177.773 42.165 177.773 42.165 177.773 42.165C177.773 42.165 177.773 42.165 177.773 42.1649L177.773 42.1649L177.773 42.1649C177.773 42.1649 177.773 42.1649 177.773 42.1649C177.773 42.1649 177.773 42.1649 177.773 42.1649C177.773 42.1649 177.773 42.1649 177.773 42.1649C177.773 42.1649 177.773 42.1649 177.773 42.1649L177.773 42.1649L177.773 42.1649C177.773 42.1649 177.773 42.1649 177.773 42.1649C177.773 42.1649 177.773 42.1649 177.773 42.1649C177.773 42.1649 177.773 42.1649 177.773 42.1649C177.773 42.1649 177.773 42.1649 177.773 42.1649L177.773 42.1649L177.773 42.1649C177.773 42.1649 177.773 42.1649 177.773 42.1649C177.773 42.1649 177.773 42.1649 177.773 42.1649C177.773 42.1649 177.773 42.1649 177.773 42.1649C177.773 42.1649 177.773 42.1649 177.773 42.1649L177.773 42.1649L177.773 42.1649C177.773 42.1649 177.773 42.1649 177.773 42.1649C177.773 42.1649 177.773 42.1649 177.773 42.1649C177.773 42.1649 177.773 42.1649 177.773 42.1649L177.773 42.1649L177.773 42.1649C177.773 42.1649 177.773 42.1649 177.773 42.1649C177.773 42.1649 177.773 42.1649 177.773 42.1649C177.773 42.1649 177.773 42.1649 177.773 42.1649C177.773 42.1649 177.773 42.1649 177.773 42.1649L177.773 42.1649L177.773 42.1649C177.773 42.1649 177.773 42.1649 177.773 42.1649C177.773 42.1649 177.773 42.1649 177.773 42.1649C177.773 42.1649 177.773 42.1649 177.773 42.1649C177.773 42.1649 177.773 42.1649 177.773 42.1649L177.773 42.1649L177.773 42.1649C177.773 42.1649 177.773 42.1649 177.773 42.1649C177.773 42.1649 177.773 42.1649 177.773 42.1649C177.773 42.1649 177.773 42.1649 177.773 42.1649C177.773 42.1649 177.773 42.1649 177.773 42.1649L177.773 42.1649L177.773 42.1649C177.773 42.1649 177.773 42.1649 177.773 42.1649C177.773 42.1649 177.773 42.1649 177.773 42.1649C177.773 42.1649 177.773 42.1649 177.773 42.1649L177.773 42.1649L177.773 42.1649C177.773 42.1649 177.773 42.1649 177.773 42.1649C177.773 42.1649 177.773 42.1649 177.773 42.1649C177.773 42.1649 177.773 42.1649 177.773 42.1649C177.773 42.1649 177.773 42.1649 177.773 42.1649L177.773 42.1649L177.773 42.1649C177.773 42.1649 177.773 42.1649 177.773 42.1649C177.773 42.1649 177.773 42.1649 177.773 42.1649C177.773 42.1649 177.773 42.1649 177.773 42.1649C177.773 42.1649 177.773 42.1649 177.773 42.1649L177.773 42.1649C177.773 42.1649 177.773 42.1649 177.773 42.1649C177.773 42.1649 177.773 42.1649 177.773 42.1649C177.773 42.1649 177.773 42.1649 177.773 42.1649C177.773 42.1649 177.773 42.1649 177.773 42.1649L177.773 42.1649L177.773 42.1649C177.773 42.1649 177.773 42.1649 177.773 42.1649C177.773 42.1649 177.773 42.1649 177.773 42.1649C177.773 42.1649 177.773 42.1649 177.773 42.1649C177.773 42.1649 177.773 42.1649 177.773 42.1649L177.773 42.1649L177.773 42.1649C177.773 42.1649 177.773 42.1649 177.773 42.1649C177.773 42.1649 177.773 42.1649 177.773 42.1649C177.773 42.1649 177.773 42.1649 177.773 42.1649L177.773 42.1649L177.773 42.1649C177.773 42.1649 177.773 42.1649 177.773 42.1649C177.773 42.1649 177.773 42.1649 177.773 42.1649C177.773 42.1649 177.773 42.1649 177.773 42.1649C177.773 42.1649 177.773 42.1649 177.773 42.1649L177.773 42.1649L177.773 42.1649C177.773 42.1649 177.773 42.1649 177.773 42.1649C177.773 42.1649 177.773 42.1649 177.773 42.1649C177.773 42.1649 177.773 42.1649 177.773 42.1649C177.773 42.1649 177.773 42.1649 177.773 42.1649L177.773 42.1649C177.773 42.1649 177.773 42.1649 177.773 42.1649C177.773 42.1649 177.773 42.1649 177.773 42.1649C177.773 42.1649 177.773 42.1649 177.773 42.1649C177.773 42.1649 177.773 42.1649 177.773 42.1649L177.773 42.1649L177.773 42.1649C177.773 42.1649 177.773 42.1649 177.773 42.1649C177.773 42.1649 177.773 42.1649 177.773 42.1649C177.773 42.1649 177.773 42.1649 177.773 42.1649C177.773 42.1649 177.773 42.1649 177.773 42.1649L177.773 42.1649L177.773 42.1649C177.773 42.1649 177.773 42.1649 177.773 42.1649C177.773 42.1649 177.773 42.1649 177.773 42.1649C177.773 42.1649 177.773 42.1649 177.773 42.1649L177.773 42.1649L177.773 42.1649C177.773 42.1649 177.773 42.1649 177.773 42.1649C177.773 42.1649 177.773 42.1649 177.773 42.1649C177.773 42.1649 177.773 42.1649 177.773 42.1649C177.773 42.1649 177.773 42.1649 177.773 42.1649L177.773 42.1649L177.773 42.1649C177.773 42.1649 177.773 42.1649 177.773 42.1649C177.773 42.1649 177.773 42.1649 177.773 42.1649C177.773 42.1649 177.773 42.1649 177.773 42.1649C177.773 42.1649 177.773 42.1649 177.773 42.1649L177.773 42.1649L177.773 42.1649C177.773 42.1649 177.773 42.1649 177.773 42.1649C177.773 42.1649 177.773 42.1649 177.773 42.1649C177.773 42.1649 177.773 42.1649 177.773 42.1649C177.773 42.1649 177.773 42.1649 177.773 42.1649L177.773 42.1649L177.773 42.1649C177.773 42.1649 177.773 42.1649 177.773 42.1649C177.773 42.1649 177.773 42.1649 177.773 42.1649C177.773 42.1649 177.773 42.1649 177.773 42.1649L177.773 42.1649L177.773 42.1649C177.773 42.1649 177.773 42.1649 177.773 42.1649C177.773 42.1649 177.773 42.1649 177.773 42.1649C177.773 42.1649 177.773 42.1649 177.773 42.1649C177.773 42.1649 177.773 42.1649 177.773 42.1649L177.773 42.1649L177.773 42.1649C177.773 42.1649 177.773 42.1649 177.773 42.1649C177.773 42.1649 177.773 42.1649 177.773 42.1649C177.773 42.1649 177.773 42.1649 177.773 42.1649C177.773 42.1649 177.773 42.1649 177.773 42.1649L177.773 42.1649L177.773 42.1649C177.773 42.1649 177.773 42.1649 177.773 42.1649C177.773 42.1649 177.773 42.1649 177.773 42.1649C177.773 42.1649 177.773 42.1649 177.773 42.1649C177.773 42.1649 177.773 42.1649 177.773 42.1649L177.773 42.1649L177.773 42.1649C177.773 42.1649 177.773 42.1649 177.773 42.1649C177.773 42.1649 177.773 42.1649 177.773 42.1649C177.773 42.1649 177.773 42.1649 177.773 42.1648C177.773 42.1648 177.773 42.1648 177.773 42.1648L177.773 42.1648L177.773 42.1648C177.773 42.1648 177.773 42.1648 177.773 42.1648C177.773 42.1648 177.773 42.1648 177.773 42.1648C177.773 42.1648 177.773 42.1648 177.773 42.1648C177.773 42.1648 177.773 42.1648 177.773 42.1648C177.773 42.1648 177.773 42.1648 177.773 42.1648L177.773 42.1648L177.773 42.1648C177.773 42.1648 177.773 42.1648 177.773 42.1648C177.773 42.1648 177.773 42.1648 177.773 42.1648C177.773 42.1648 177.773 42.1648 177.773 42.1648C177.773 42.1648 177.773 42.1648 177.773 42.1648L177.773 42.1648L180.689 39.2489ZM186.89 16.4729C182.71 20.6529 180.034 25.4055 179.015 29.6291C177.986 33.8929 178.698 37.2579 180.689 39.2489L177.773 42.1648C174.382 38.7737 173.791 33.6963 175.006 28.6615C176.231 23.5864 179.347 18.1841 183.974 13.557L186.89 16.4729ZM209.666 10.2714C207.675 8.28047 204.31 7.56834 200.046 8.59755C195.823 9.61702 191.07 12.2929 186.89 16.4729L183.974 13.557C188.601 8.92985 194.004 5.81393 199.079 4.58891C204.114 3.37361 209.191 3.9643 212.582 7.35548L209.666 10.2714ZM209.68 10.2855C209.676 10.2808 209.671 10.2761 209.666 10.2714L212.582 7.35548C212.59 7.36311 212.597 7.37075 212.605 7.3784L209.68 10.2855ZM212.147 12.7522L209.685 10.2899L212.601 7.37397L215.063 9.83623L212.147 12.7522ZM205.945 35.5282C210.125 31.3482 212.801 26.5955 213.821 22.372C214.85 18.1081 214.138 14.7431 212.147 12.7522L215.063 9.83623C218.454 13.2274 219.045 18.3048 217.829 23.3396C216.604 28.4147 213.488 33.817 208.861 38.4441L205.945 35.5282ZM183.169 41.7297C185.16 43.7206 188.525 44.4327 192.789 43.4035C197.013 42.384 201.765 39.7081 205.945 35.5282L208.861 38.4441C204.234 43.0712 198.832 46.1871 193.757 47.4122C188.722 48.6275 183.645 48.0368 180.253 44.6456L183.169 41.7297ZM180.689 39.2491L183.169 41.7297L180.253 44.6456L177.773 42.165L180.689 39.2491ZM180.689 42.165L180.689 42.165L177.773 39.249L177.773 39.249L180.689 42.165Z" mask="url(#path-44-outside-9)"/><path fill="#FEDC90" d="M181.711 43.1873C187.093 48.5694 198.596 45.7929 207.403 36.9858C216.21 28.1786 218.987 16.676 213.605 11.2938L211.124 8.81323L179.231 40.7067L181.711 43.1873Z"/><path fill="#D1884F" d="M179.231 40.7069C184.613 46.089 196.115 43.3125 204.923 34.5054C213.73 25.6982 216.506 14.1956 211.124 8.81345C205.742 3.43132 194.239 6.20782 185.432 15.0149C176.625 23.8221 173.849 35.3247 179.231 40.7069Z"/></g><defs><linearGradient id="paint0_linear" x1="35.595" x2="35.595" y1="0" y2="32.566" gradientUnits="userSpaceOnUse"><stop stop-color="#404042"/><stop offset="1" stop-color="#48484B"/></linearGradient><linearGradient id="paint1_linear" x1="33.456" x2="28.171" y1="65.91" y2="75.048" gradientUnits="userSpaceOnUse"><stop stop-color="#404042"/><stop offset="1" stop-color="#48484B"/></linearGradient><linearGradient id="paint2_linear" x1="50.657" x2="46.564" y1="54.398" y2="105.498" gradientUnits="userSpaceOnUse"><stop stop-color="#404042"/><stop offset="1" stop-color="#48484B"/></linearGradient><clipPath id="clip0"><rect width="168.881" height="111.741" fill="#fff" transform="translate(0 0.00012207)"/></clipPath><clipPath id="clip1"><rect width="168.881" height="111.741" fill="#fff" transform="translate(169.119)"/></clipPath></defs></svg>