<svg xmlns="http://www.w3.org/2000/svg" xmlns:xlink="http://www.w3.org/1999/xlink" viewBox="0 0 1468.73 225.24"><defs><style>.cls-1{fill:#fff;}.cls-2{fill:url(#무제_그라디언트_4);}.cls-3{fill:#3b3cbd;}.cls-4{fill:#f7f8f8;}</style><linearGradient id="무제_그라디언트_4" y1="113.24" x2="1468" y2="113.24" gradientUnits="userSpaceOnUse"><stop offset="0" stop-color="#27b7bc"/><stop offset="1" stop-color="#6c21da"/></linearGradient></defs><title>자산 1IHO_DST_1</title><g id="레이어_2" data-name="레이어 2"><g id="레이어_1-2" data-name="레이어 1"><rect class="cls-1" x="1.23" y="0.5" width="1467" height="223"/><path d="M1467.73,1V223H1.73V1h1466m1-1H.73V224h1468V0Z"/><rect class="cls-2" y="1.24" width="1468" height="224"/><path class="cls-3" d="M485.67,113.24a62.75,62.75,0,1,1-62.75-62.75,62.75,62.75,0,0,1,62.75,62.75"/><path class="cls-1" d="M451.05,92a20.26,20.26,0,0,0-9.09-8.4,32.9,32.9,0,0,0-14.38-2.88H405.33v21.32a11,11,0,0,1,0,21.39v25.95h22.2a32.34,32.34,0,0,0,14.52-3,20.52,20.52,0,0,0,9-8.5,26.61,26.61,0,0,0,3.07-13.13V105.36A26.72,26.72,0,0,0,451.05,92m-8.5,33.16q0,6.42-3.85,9.91t-10.84,3.5H416.62v-47h11.24q7,0,10.84,3.5t3.85,9.91Z"/><path class="cls-1" d="M407.91,112.78a7.38,7.38,0,1,0-5.67,7.16,7.37,7.37,0,0,0,5.67-7.16"/><path class="cls-4" d="M519.46,84.87h22.75c19.13,0,28.38,11.15,28.38,28.42,0,18.89-10.23,30.48-28.66,30.48H519.46Zm16.3,47.21h5.39c8.54,0,12.55-5.73,12.55-18.55,0-11.09-3.34-16.9-12.38-16.9h-5.56Z"/><path class="cls-4" d="M592.19,124.45c0,5.13,1.63,9.45,6.58,9.45,4,0,5.18-2.36,5.78-4.4h15.11c-1.81,6.83-6.78,15.17-21.3,15.17-16.17,0-22.07-10.61-22.07-23.42,0-11.43,5.78-23.55,22.53-23.55,16.44,0,21.38,11.23,21.38,23,0,.45-.05,3.26-.11,3.76Zm12.42-8.72c-.11-4.26-1.37-7.76-6-7.76-4.84,0-6.17,3.76-6.28,7.76Z"/><path class="cls-4" d="M650.59,115.25v12.21H627.06V115.25Z"/><path class="cls-4" d="M658.62,84.87h40.71V97.1H674.54v11.62h23.24V120.9H674.54v22.87H658.62Z"/><path class="cls-4" d="M705.69,81.65h15.75v11.4H705.69Zm0,17h15.75v45.13H705.69Z"/><path class="cls-4" d="M764.05,125.77c.63,4.79,3.42,7.71,8.77,7.71S780,131.22,780,128c0-4.26-2.82-6.17-10.85-8.37-14.66-4-19.06-9.56-19.06-17.81,0-11.87,9.66-18,22-18,14.57,0,22.13,7,22.79,17.91H779.47C779,98.05,777.31,95,772.1,95c-4,0-6.16,1.85-6.16,5,0,3.65,2.62,4.71,10.5,6.94,15.53,4.42,19.85,10.31,19.85,19.25,0,11.22-8.34,18.62-23.95,18.62-14.56,0-23.13-7.3-23.79-19Z"/><path class="cls-4" d="M814.8,97.13H799.6V84.87h46.58V97.13H831.07v46.64H814.8Z"/><path class="cls-4" d="M861.36,131.84l-3,11.93H842.46l16.48-58.9h21.85L898,143.77H881.15l-3.28-11.93Zm13.83-12.65c-2.39-8.86-4.43-17.36-5.66-23.43h-.24c-1.19,6.48-3.2,15-5.4,23.43Z"/><path class="cls-4" d="M920.09,121.14v22.63H904.28V84.87h26.86c12.94,0,20,6.8,20,16.14,0,7.92-4,11.88-9.06,13.89,6.13,2.35,7.95,7.33,7.95,14.11v1.82a92.46,92.46,0,0,0,.69,12.94H935.13c-.86-2.43-1.15-6.2-1.15-13v-1.66c0-6.16-2-8-8.28-8Zm0-11.56h6.82c4.83,0,8.24-1.83,8.24-6.82,0-4.61-3.09-6.39-7.21-6.39h-7.85Z"/><path class="cls-4" d="M971.76,97.13H956.55V84.87h46.59V97.13H988v46.64H971.76Z"/><path class="cls-4" d="M1050.55,119.56h-24.69v12h27.51l-1.83,12.18H1010.2V84.87h41.35V97.13h-25.69V107.3h24.69Z"/><path class="cls-4" d="M1076.78,121.14v22.63H1061V84.87h26.87c12.93,0,20,6.8,20,16.14,0,7.92-4,11.88-9.06,13.89,6.12,2.35,8,7.33,8,14.11v1.82a92.69,92.69,0,0,0,.68,12.94h-15.58c-.86-2.43-1.15-6.2-1.15-13v-1.66c0-6.16-2-8-8.28-8Zm0-11.56h6.83c4.82,0,8.23-1.83,8.23-6.82,0-4.61-3.08-6.39-7.2-6.39h-7.86Z"/></g></g></svg>