<svg xmlns="http://www.w3.org/2000/svg" width="266" height="176" fill="none" viewBox="0 0 266 176"><g clip-path="url(#clip0)"><ellipse fill="#606063" rx="46.522" ry="22.068" transform="matrix(-0.868567 -0.495572 -0.495572 0.868567 91.9976 139.476)"/><path fill="#606063" d="M127.302 167.171L145.865 155.788L50.5455 101.403L50.4118 123.3L127.302 167.171Z"/><path fill="#606063" d="M55.1662 106.319L9.48797 80.2568C8.40914 79.6413 7.03476 80.0525 6.47136 81.1595L3.93045 86.1518C2.6365 88.6942 3.52699 91.8043 5.9704 93.2765L53.2283 121.751L55.1662 106.319Z"/><ellipse fill="url(#paint0_linear)" rx="56.065" ry="25.647" transform="matrix(-0.868567 -0.495572 -0.495572 0.868567 100.865 123.935)"/><path stroke="#606063" stroke-width="2.175" d="M133.744 158.548C135.273 147.657 122.671 131.569 102.934 120.307C83.1966 109.046 62.9346 106.383 54.3362 113.241"/><path stroke="#979797" stroke-width="2.175" d="M53.1135 96.6894C49.9433 102.246 51.8642 110.414 58.3275 119.405C64.7295 128.31 75.3509 137.653 88.6941 145.266C102.037 152.879 115.484 157.269 126.408 158.249C137.437 159.238 145.446 156.736 148.616 151.18C151.786 145.623 149.866 137.455 143.402 128.464C137 119.559 126.379 110.217 113.036 102.603C99.6925 94.9903 86.2456 90.6 75.3216 89.6201C64.2927 88.6307 56.2837 91.1331 53.1135 96.6894Z"/><path stroke="url(#paint1_linear)" stroke-width="3.225" d="M48.7109 101.51L48.3545 120.51"/><mask id="path-8-outside-1" width="166.515" height="100.494" x="-6.653" y="75.306" fill="#000" maskUnits="userSpaceOnUse"><rect width="166.515" height="100.494" x="-6.653" y="75.306" fill="#fff"/><path fill-rule="evenodd" d="M81.061 158.642C61.4542 147.455 48.8885 131.505 50.2224 120.618C50.2687 120.24 50.0999 119.866 49.7739 119.669L5.96974 93.2757C3.52632 91.8034 2.63584 88.6933 3.92979 86.151L6.4707 81.1586C7.0341 80.0517 8.40848 79.6404 9.48732 80.256L50.1457 103.454C50.3182 103.553 50.5329 103.429 50.5341 103.23C50.52 102.802 50.5225 102.38 50.5418 101.964L50.5451 101.422C50.5452 101.414 50.5543 101.409 50.5617 101.413C50.5688 101.417 50.5776 101.412 50.5783 101.404C50.738 99.5077 51.2591 97.7438 52.1687 96.1496C59.1881 83.847 86.6805 86.3131 113.575 101.658C140.469 117.003 156.58 139.415 149.561 151.718C148.651 153.312 147.398 154.658 145.847 155.76C145.84 155.765 145.841 155.775 145.848 155.78C145.855 155.784 145.855 155.794 145.848 155.799L145.134 156.237C145.038 156.297 144.941 156.357 144.843 156.416L129.555 165.79C120.898 172.545 100.719 169.858 81.061 158.642Z" clip-rule="evenodd"/></mask><path fill="url(#paint2_linear)" d="M81.061 158.642L82.6592 155.841L81.061 158.642ZM5.96974 93.2757L4.3054 96.0379L4.3054 96.0379L5.96974 93.2757ZM3.92979 86.151L6.80386 87.6138L3.92979 86.151ZM6.4707 81.1586L9.34477 82.6214L9.34477 82.6214L6.4707 81.1586ZM9.48732 80.256L11.0855 77.4549L11.0855 77.4549L9.48732 80.256ZM50.5418 101.964L53.7632 102.114L53.7662 102.049L53.7666 101.984L50.5418 101.964ZM52.1687 96.1496L49.3677 94.5514L49.3677 94.5514L52.1687 96.1496ZM113.575 101.658L115.173 98.8568L113.575 101.658ZM149.561 151.718L146.76 150.12L146.76 150.12L149.561 151.718ZM145.134 156.237L143.448 153.488L143.433 153.497L143.418 153.506L145.134 156.237ZM144.843 156.416L143.186 153.648L143.172 153.657L143.157 153.666L144.843 156.416ZM129.555 165.79L127.869 163.041L127.714 163.136L127.571 163.248L129.555 165.79ZM145.848 155.799L147.534 158.548L145.848 155.799ZM145.847 155.76L143.979 153.132L145.847 155.76ZM50.5451 101.422L47.3203 101.403L50.5451 101.422ZM50.1457 103.454L51.7438 100.653L50.1457 103.454ZM50.5783 101.404L53.7918 101.675L50.5783 101.404ZM50.2224 120.618L53.4234 121.01L50.2224 120.618ZM49.7739 119.669L48.1096 122.431L49.7739 119.669ZM47.0215 120.225C46.1956 126.966 49.6574 134.552 55.2758 141.539C60.9937 148.649 69.3667 155.683 79.4628 161.443L82.6592 155.841C73.1485 150.415 65.4352 143.88 60.3021 137.497C55.0694 130.99 52.9154 125.157 53.4234 121.01L47.0215 120.225ZM4.3054 96.0379L48.1096 122.431L51.4382 116.907L7.63409 90.5134L4.3054 96.0379ZM1.05572 84.6882C-1.00556 88.7382 0.41299 93.6926 4.3054 96.0379L7.63409 90.5134C6.63966 89.9142 6.27724 88.6485 6.80386 87.6138L1.05572 84.6882ZM3.59663 79.6958L1.05572 84.6882L6.80386 87.6138L9.34477 82.6214L3.59663 79.6958ZM11.0855 77.4549C8.40724 75.9268 4.9953 76.9478 3.59663 79.6958L9.34477 82.6214C9.07291 83.1556 8.40972 83.354 7.88914 83.057L11.0855 77.4549ZM51.7438 100.653L11.0855 77.4549L7.88914 83.057L48.5475 106.255L51.7438 100.653ZM47.3204 101.815C47.297 102.319 47.2942 102.826 47.3109 103.336L53.7572 103.124C53.7459 102.779 53.748 102.442 53.7632 102.114L47.3204 101.815ZM47.3203 101.403L47.3169 101.945L53.7666 101.984L53.77 101.442L47.3203 101.403ZM49.3677 94.5514C48.2065 96.5866 47.5604 98.8101 47.3648 101.133L53.7918 101.675C53.9155 100.205 54.3118 98.901 54.9698 97.7477L49.3677 94.5514ZM115.173 98.8568C101.418 91.0088 87.3772 86.3708 75.7068 85.3239C64.3473 84.305 53.8841 86.6357 49.3677 94.5514L54.9698 97.7477C57.4728 93.3608 64.2654 90.7733 75.1305 91.748C85.6847 92.6947 98.8373 96.9622 111.976 104.459L115.173 98.8568ZM152.362 153.316C156.878 145.4 153.561 135.207 146.904 125.946C140.064 116.432 128.928 106.705 115.173 98.8568L111.976 104.459C125.116 111.956 135.482 121.107 141.667 129.711C148.034 138.569 149.263 145.733 146.76 150.12L152.362 153.316ZM147.715 158.389C149.615 157.039 151.201 155.351 152.362 153.316L146.76 150.12C146.102 151.273 145.181 152.278 143.979 153.132L147.715 158.389ZM146.819 158.986L147.534 158.548L144.162 153.05L143.448 153.488L146.819 158.986ZM143.418 153.506C143.342 153.554 143.265 153.602 143.186 153.648L146.499 159.183C146.616 159.112 146.733 159.041 146.849 158.968L143.418 153.506ZM131.24 168.539L146.528 159.165L143.157 153.666L127.869 163.041L131.24 168.539ZM79.4628 161.443C89.5851 167.219 99.9283 170.852 108.976 172.148C117.864 173.421 126.171 172.521 131.538 168.333L127.571 163.248C124.281 165.814 118.17 166.949 109.89 165.763C101.77 164.6 92.1949 161.282 82.6592 155.841L79.4628 161.443ZM144.249 158.58C142.127 157.369 142.079 154.327 144.162 153.05L147.534 158.548C149.632 157.262 149.583 154.198 147.446 152.979L144.249 158.58ZM143.979 153.132C142.064 154.492 142.182 157.401 144.249 158.58L147.446 152.979C149.499 154.15 149.616 157.038 147.715 158.389L143.979 153.132ZM53.77 101.442C53.7549 103.9 51.0986 105.432 48.9636 104.214L52.1598 98.6117C50.0101 97.3852 47.3354 98.9278 47.3203 101.403L53.77 101.442ZM48.5475 106.255C50.8623 107.576 53.7426 105.915 53.7589 103.25L47.3092 103.21C47.3231 100.943 49.774 99.5292 51.7438 100.653L48.5475 106.255ZM48.9636 104.214C51.0308 105.393 53.5948 104.015 53.7918 101.675L47.3648 101.133C47.5605 98.8089 50.1068 97.4404 52.1598 98.6117L48.9636 104.214ZM53.4234 121.01C53.6139 119.455 52.9257 117.803 51.4382 116.907L48.1096 122.431C47.2741 121.928 46.9236 121.025 47.0215 120.225L53.4234 121.01Z" mask="url(#path-8-outside-1)"/><mask id="path-10-outside-2" width="96.166" height="96.166" x="95.373" y="42.343" fill="#000" maskUnits="userSpaceOnUse"><rect width="96.166" height="96.166" x="95.373" y="42.343" fill="#fff"/><path fill-rule="evenodd" d="M116.349 113.584C116.349 113.584 116.349 113.584 116.349 113.584C107.872 105.107 112.245 86.9894 126.117 73.1175C139.989 59.2456 158.107 54.8724 166.584 63.3497C166.591 63.3568 166.598 63.364 166.605 63.3712L170.491 67.257C178.968 75.7342 174.595 93.8518 160.723 107.724C146.851 121.596 128.734 125.969 120.257 117.491L116.349 113.584Z" clip-rule="evenodd"/></mask><path fill="#612F01" d="M166.605 63.3712L164.309 65.6676L164.304 65.6624L166.605 63.3712ZM118.646 111.288C118.747 111.39 118.83 111.486 118.896 111.569C118.929 111.611 118.959 111.65 118.984 111.686C119.01 111.721 119.032 111.754 119.051 111.783C119.071 111.812 119.087 111.837 119.101 111.859C119.114 111.88 119.126 111.899 119.134 111.913C119.143 111.928 119.149 111.939 119.154 111.946C119.156 111.95 119.157 111.953 119.158 111.954C119.159 111.955 119.159 111.956 119.16 111.956C119.16 111.957 119.16 111.957 119.16 111.957C119.16 111.957 119.16 111.957 119.16 111.957C119.16 111.957 119.16 111.957 119.16 111.957C119.16 111.957 119.16 111.957 119.16 111.957C119.16 111.957 119.159 111.956 119.158 111.954C119.157 111.953 119.156 111.95 119.154 111.946C119.149 111.939 119.143 111.928 119.134 111.913C119.126 111.899 119.114 111.88 119.101 111.859C119.087 111.837 119.071 111.812 119.052 111.783C119.032 111.754 119.01 111.722 118.984 111.686C118.959 111.65 118.929 111.611 118.896 111.57C118.831 111.486 118.748 111.39 118.646 111.288L114.053 115.881C113.951 115.779 113.868 115.682 113.802 115.599C113.769 115.557 113.74 115.518 113.714 115.483C113.689 115.447 113.666 115.415 113.647 115.386C113.628 115.357 113.612 115.331 113.598 115.31C113.584 115.288 113.573 115.27 113.565 115.255C113.556 115.241 113.549 115.229 113.545 115.222C113.543 115.219 113.541 115.216 113.54 115.214C113.54 115.213 113.539 115.213 113.539 115.212C113.539 115.212 113.539 115.212 113.539 115.212C113.539 115.212 113.539 115.212 113.539 115.211C113.539 115.211 113.539 115.211 113.539 115.211C113.539 115.211 113.539 115.211 113.539 115.211C113.539 115.211 113.539 115.213 113.54 115.214C113.541 115.216 113.543 115.219 113.545 115.222C113.549 115.229 113.556 115.241 113.565 115.255C113.573 115.269 113.584 115.288 113.598 115.31C113.612 115.331 113.628 115.357 113.647 115.386C113.666 115.414 113.689 115.447 113.714 115.483C113.74 115.518 113.769 115.557 113.802 115.599C113.868 115.682 113.951 115.779 114.053 115.881L118.646 111.288ZM128.414 75.4139C121.83 81.9977 117.615 89.4835 116.009 96.1359C114.388 102.852 115.51 108.152 118.646 111.288L114.053 115.881C108.712 110.539 107.781 102.542 109.695 94.6118C111.625 86.6181 116.533 78.1092 123.821 70.8211L128.414 75.4139ZM164.287 65.6461C161.151 62.5102 155.851 61.3885 149.135 63.0096C142.483 64.6154 134.997 68.8301 128.414 75.4139L123.821 70.8211C131.109 63.533 139.618 58.6252 147.611 56.6957C155.542 54.7815 163.539 55.7119 168.88 61.0533L164.287 65.6461ZM164.304 65.6624C164.298 65.657 164.293 65.6515 164.287 65.6461L168.88 61.0533C168.889 61.0621 168.898 61.071 168.907 61.0799L164.304 65.6624ZM168.195 69.5534L164.309 65.6676L168.902 61.0748L172.787 64.9605L168.195 69.5534ZM158.427 105.427C165.011 98.8434 169.225 91.3577 170.831 84.7053C172.452 77.9894 171.331 72.6893 168.195 69.5534L172.787 64.9605C178.129 70.3019 179.059 78.2992 177.145 86.2294C175.215 94.223 170.308 102.732 163.02 110.02L158.427 105.427ZM122.553 115.195C125.689 118.331 130.989 119.453 137.705 117.832C144.357 116.226 151.843 112.011 158.427 105.427L163.02 110.02C155.732 117.308 147.223 122.216 139.229 124.145C131.299 126.06 123.301 125.129 117.96 119.788L122.553 115.195ZM118.646 111.288L122.553 115.195L117.96 119.788L114.053 115.881L118.646 111.288Z" mask="url(#path-10-outside-2)"/><path fill="#FEDC90" d="M120.256 117.491C128.733 125.968 146.851 121.595 160.723 107.723C174.595 93.8513 178.968 75.7338 170.491 67.2565L166.583 63.3494L116.349 113.584L120.256 117.491Z"/><path fill="#D1884F" d="M116.349 113.584C124.827 122.061 142.944 117.688 156.816 103.816C170.688 89.9445 175.061 71.8269 166.584 63.3497C158.107 54.8724 139.989 59.2456 126.117 73.1175C112.245 86.9894 107.872 105.107 116.349 113.584Z"/><mask id="path-14-outside-3" width="96.166" height="96.166" x="178.343" y="-1.698" fill="#000" maskUnits="userSpaceOnUse"><rect width="96.166" height="96.166" x="178.343" y="-1.698" fill="#fff"/><path fill-rule="evenodd" d="M249.649 73.4269C249.627 73.4488 249.606 73.4705 249.584 73.4923C241.107 81.9695 222.989 77.5963 209.117 63.7244C195.246 49.8528 190.872 31.7358 199.349 23.2583L199.349 23.258L203.256 19.3509C211.733 10.8737 229.851 15.2469 243.722 29.1187C257.594 42.9906 261.968 61.1082 253.49 69.5855L249.649 73.4269Z" clip-rule="evenodd"/></mask><path fill="#612F01" d="M249.649 73.4269L247.337 71.146L247.345 71.1382L247.352 71.1305L249.649 73.4269ZM199.349 23.2583L201.645 20.9619L203.942 23.2581L201.645 25.5545L199.349 23.2583ZM199.349 23.258L197.052 25.5545L194.756 23.258L197.052 20.9616L199.349 23.258ZM247.288 71.1958C247.304 71.1794 247.32 71.1628 247.337 71.146L251.961 75.7079C251.934 75.7347 251.907 75.7616 251.88 75.7887L247.288 71.1958ZM211.414 61.428C217.997 68.0118 225.483 72.2266 232.136 73.8323C238.851 75.4534 244.152 74.3317 247.288 71.1958L251.88 75.7887C246.539 81.13 238.542 82.0604 230.612 80.1462C222.618 78.2167 214.109 73.3089 206.821 66.0208L211.414 61.428ZM201.645 25.5545C198.51 28.6906 197.388 33.9907 199.009 40.7065C200.615 47.3588 204.83 54.8443 211.414 61.428L206.821 66.0208C199.533 58.7329 194.625 50.2241 192.696 42.2306C190.781 34.3006 191.711 26.3035 197.052 20.962L201.645 25.5545ZM201.645 20.9616L201.645 20.9619L197.052 25.5547L197.052 25.5545L201.645 20.9616ZM205.552 21.6473L201.645 25.5545L197.052 20.9616L200.959 17.0545L205.552 21.6473ZM241.426 31.4152C234.842 24.8313 227.357 20.6166 220.704 19.0109C213.988 17.3898 208.688 18.5114 205.552 21.6473L200.959 17.0545C206.301 11.7131 214.298 10.7828 222.228 12.697C230.222 14.6265 238.731 19.5343 246.019 26.8223L241.426 31.4152ZM251.194 67.289C254.33 64.1531 255.451 58.853 253.83 52.1371C252.225 45.4847 248.01 37.999 241.426 31.4152L246.019 26.8223C253.307 34.1104 258.215 42.6194 260.144 50.6131C262.058 58.5432 261.128 66.5405 255.787 71.8819L251.194 67.289ZM247.352 71.1305L251.194 67.289L255.787 71.8819L251.945 75.7233L247.352 71.1305Z" mask="url(#path-14-outside-3)"/><path fill="#D1884F" d="M253.491 69.5841C261.968 61.1069 257.595 42.9893 243.723 29.1174C229.851 15.2455 211.734 10.8723 203.256 19.3496L199.349 23.2567L249.584 73.4912L253.491 69.5841Z"/><path fill="#FEDC90" d="M249.584 73.492C258.061 65.0148 253.688 46.8972 239.816 33.0253C225.944 19.1534 207.826 14.7802 199.349 23.2575C190.872 31.7348 195.245 49.8523 209.117 63.7242C222.989 77.5961 241.106 81.9693 249.584 73.492Z"/><path fill="#8F80BA" d="M64.2108 29.0683C64.0006 27.6891 62.013 27.6891 61.8029 29.0683L60.5584 37.2349C60.4782 37.7617 60.0647 38.1751 59.5379 38.2554L51.3713 39.4998C49.9921 39.71 49.9921 41.6976 51.3713 41.9077L59.5379 43.1521C60.0647 43.2324 60.4782 43.6458 60.5584 44.1726L61.8029 52.3393C62.013 53.7185 64.0006 53.7185 64.2108 52.3393L65.4552 44.1726C65.5355 43.6458 65.9489 43.2324 66.4757 43.1521L74.6423 41.9077C76.0215 41.6976 76.0215 39.71 74.6423 39.4998L66.4757 38.2554C65.9489 38.1751 65.5355 37.7617 65.4552 37.2349L64.2108 29.0683Z" opacity=".5"/><path fill="#8F80BA" d="M241.521 112.68C241.31 111.301 239.323 111.301 239.113 112.68L237.868 120.847C237.788 121.374 237.375 121.787 236.848 121.868L228.681 123.112C227.302 123.322 227.302 125.31 228.681 125.52L236.848 126.764C237.375 126.845 237.788 127.258 237.868 127.785L239.113 135.951C239.323 137.331 241.31 137.331 241.521 135.951L242.765 127.785C242.845 127.258 243.259 126.845 243.785 126.764L251.952 125.52C253.331 125.31 253.331 123.322 251.952 123.112L243.785 121.868C243.259 121.787 242.845 121.374 242.765 120.847L241.521 112.68Z" opacity=".5"/><path fill="#8F80BA" d="M113.213 9.62393C113.423 8.24473 115.411 8.24473 115.621 9.62393L116.03 12.3107C116.11 12.8375 116.524 13.2509 117.051 13.3312L119.737 13.7406C121.117 13.9507 121.117 15.9383 119.737 16.1485L117.051 16.5579C116.524 16.6382 116.11 17.0516 116.03 17.5784L115.621 20.2652C115.411 21.6444 113.423 21.6444 113.213 20.2652L112.803 17.5784C112.723 17.0516 112.31 16.6382 111.783 16.5579L109.096 16.1485C107.717 15.9383 107.717 13.9507 109.096 13.7406L111.783 13.3312C112.31 13.2509 112.723 12.8375 112.803 12.3107L113.213 9.62393Z" opacity=".5"/></g><defs><linearGradient id="paint0_linear" x1="56.065" x2="56.065" y1="0" y2="51.293" gradientUnits="userSpaceOnUse"><stop stop-color="#404042"/><stop offset="1" stop-color="#48484B"/></linearGradient><linearGradient id="paint1_linear" x1="52.694" x2="44.371" y1="103.814" y2="118.206" gradientUnits="userSpaceOnUse"><stop stop-color="#404042"/><stop offset="1" stop-color="#48484B"/></linearGradient><linearGradient id="paint2_linear" x1="79.788" x2="73.341" y1="85.68" y2="166.167" gradientUnits="userSpaceOnUse"><stop stop-color="#404042"/><stop offset="1" stop-color="#48484B"/></linearGradient><clipPath id="clip0"><rect width="266" height="176" fill="#fff"/></clipPath></defs></svg>