<svg xmlns="http://www.w3.org/2000/svg" width="266" height="176" fill="none" viewBox="0 0 266 176"><g clip-path="url(#clip0)"><path fill="#8F80BA" d="M53.7406 82.9012C53.5304 81.522 51.5428 81.5219 51.3326 82.9011L50.0882 91.0678C50.008 91.5946 49.5945 92.008 49.0677 92.0883L40.9011 93.3327C39.5219 93.5428 39.5219 95.5304 40.9011 95.7406L49.0677 96.985C49.5945 97.0653 50.008 97.4787 50.0882 98.0055L51.3326 106.172C51.5428 107.551 53.5304 107.551 53.7406 106.172L54.985 98.0055C55.0652 97.4787 55.4787 97.0653 56.0055 96.985L64.1721 95.7406C65.5513 95.5304 65.5513 93.5428 64.1721 93.3327L56.0055 92.0883C55.4787 92.008 55.0652 91.5946 54.985 91.0678L53.7406 82.9012Z" opacity=".5"/><path fill="#8F80BA" d="M209.741 56.9012C209.53 55.522 207.543 55.5219 207.333 56.9011L206.088 65.0678C206.008 65.5946 205.595 66.008 205.068 66.0883L196.901 67.3327C195.522 67.5428 195.522 69.5304 196.901 69.7406L205.068 70.985C205.595 71.0653 206.008 71.4787 206.088 72.0055L207.333 80.1721C207.543 81.5513 209.53 81.5513 209.741 80.1721L210.985 72.0055C211.065 71.4787 211.479 71.0653 212.005 70.985L220.172 69.7406C221.551 69.5304 221.551 67.5428 220.172 67.3327L212.005 66.0883C211.479 66.008 211.065 65.5946 210.985 65.0678L209.741 56.9012Z" opacity=".5"/><path fill="#8F80BA" d="M109.018 9.90115C109.228 8.52195 111.216 8.52195 111.426 9.90115L111.835 12.5879C111.915 13.1147 112.329 13.5281 112.856 13.6084L115.542 14.0178C116.922 14.228 116.922 16.2156 115.542 16.4257L112.856 16.8351C112.329 16.9154 111.915 17.3288 111.835 17.8556L111.426 20.5424C111.216 21.9216 109.228 21.9216 109.018 20.5424L108.608 17.8556C108.528 17.3288 108.115 16.9154 107.588 16.8351L104.901 16.4257C103.522 16.2156 103.522 14.228 104.901 14.0178L107.588 13.6084C108.115 13.5281 108.528 13.1147 108.608 12.5879L109.018 9.90115Z" opacity=".5"/><mask id="path-4-outside-1" width="95" height="64" x="132.48" y="112.552" fill="#000" maskUnits="userSpaceOnUse"><rect width="95" height="64" x="132.48" y="112.552" fill="#fff"/><path fill-rule="evenodd" d="M223.325 143.127V145.955C223.325 160.61 203.884 172.491 179.903 172.491C155.921 172.491 136.48 160.61 136.48 145.955V143.089H136.48C136.48 143.088 136.48 143.088 136.48 143.088C136.48 128.432 155.921 116.552 179.903 116.552C203.884 116.552 223.325 128.432 223.325 143.088C223.325 143.101 223.325 143.114 223.325 143.127Z" clip-rule="evenodd"/></mask><path fill="#606063" d="M223.325 143.127L220.078 143.119V143.127H223.325ZM136.48 143.089V139.841H133.233V143.089H136.48ZM136.48 143.089V146.337H139.728L139.728 143.089L136.48 143.089ZM220.078 143.127V145.955H226.573V143.127H220.078ZM220.078 145.955C220.078 151.723 216.238 157.471 208.914 161.947C201.644 166.389 191.395 169.243 179.903 169.243V175.738C192.391 175.738 203.854 172.651 212.3 167.489C220.691 162.362 226.573 154.842 226.573 145.955H220.078ZM179.903 169.243C168.41 169.243 158.161 166.389 150.892 161.947C143.567 157.471 139.728 151.723 139.728 145.955H133.233C133.233 154.842 139.114 162.362 147.505 167.489C155.951 172.651 167.414 175.738 179.903 175.738V169.243ZM139.728 145.955V143.089H133.233V145.955H139.728ZM136.48 146.337H136.48V139.841H136.48V146.337ZM139.728 143.089C139.728 143.088 139.728 143.088 139.728 143.088H133.233C133.233 143.088 133.233 143.089 133.233 143.089L139.728 143.089ZM139.728 143.088C139.728 137.319 143.567 131.571 150.892 127.095C158.161 122.653 168.41 119.799 179.903 119.799V113.304C167.414 113.304 155.952 116.391 147.505 121.553C139.114 126.681 133.233 134.201 133.233 143.088H139.728ZM179.903 119.799C191.396 119.799 201.644 122.653 208.914 127.095C216.239 131.571 220.078 137.319 220.078 143.088H226.573C226.573 134.201 220.691 126.681 212.301 121.553C203.854 116.391 192.391 113.304 179.903 113.304V119.799ZM220.078 143.088C220.078 143.098 220.078 143.109 220.078 143.119L226.573 143.134C226.573 143.119 226.573 143.103 226.573 143.088H220.078Z" mask="url(#path-4-outside-1)"/><path fill="#BDC2C4" d="M223.325 145.955C223.325 160.61 203.884 172.49 179.903 172.49C155.921 172.49 136.48 160.61 136.48 145.955V143.089H223.325V145.955Z"/><path fill="#FAF9FA" d="M223.325 143.088C223.325 157.743 203.884 169.624 179.903 169.624C155.921 169.624 136.48 157.743 136.48 143.088C136.48 128.432 155.921 116.552 179.903 116.552C203.884 116.552 223.325 128.432 223.325 143.088Z"/><mask id="path-8-outside-2" width="79" height="57" x="140.504" y="109.501" fill="#000" maskUnits="userSpaceOnUse"><rect width="79" height="57" x="140.504" y="109.501" fill="#fff"/><path fill-rule="evenodd" d="M215.547 135.31C215.547 135.276 215.547 135.242 215.547 135.208C215.547 123.22 199.644 113.501 180.026 113.501C160.408 113.501 144.505 123.22 144.505 135.208C144.505 135.209 144.505 135.209 144.505 135.21H144.504V140.735C144.504 152.724 160.408 162.442 180.026 162.442C199.643 162.442 215.547 152.724 215.547 140.735V135.31Z" clip-rule="evenodd"/></mask><path fill="#612F01" d="M215.547 135.31L212.299 135.286L212.299 135.298V135.31H215.547ZM144.505 135.21V138.457H147.753L147.752 135.209L144.505 135.21ZM144.504 135.21V131.962H141.257V135.21H144.504ZM212.3 135.208C212.3 135.234 212.299 135.26 212.299 135.286L218.794 135.334C218.795 135.293 218.795 135.251 218.795 135.208H212.3ZM180.026 116.749C189.337 116.749 197.61 119.062 203.45 122.63C209.345 126.233 212.3 130.774 212.3 135.208H218.795C218.795 127.655 213.798 121.342 206.837 117.088C199.82 112.8 190.333 110.253 180.026 110.253V116.749ZM147.752 135.208C147.752 130.774 150.707 126.233 156.602 122.63C162.442 119.062 170.715 116.749 180.026 116.749V110.253C169.719 110.253 160.232 112.8 153.215 117.088C146.254 121.342 141.257 127.655 141.257 135.208H147.752ZM147.752 135.209C147.752 135.209 147.752 135.209 147.752 135.208H141.257C141.257 135.209 141.257 135.209 141.257 135.21L147.752 135.209ZM144.504 138.457H144.505V131.962H144.504V138.457ZM147.752 140.735V135.21H141.257V140.735H147.752ZM180.026 159.195C170.715 159.195 162.441 156.882 156.602 153.313C150.707 149.711 147.752 145.17 147.752 140.735H141.257C141.257 148.289 146.254 154.602 153.215 158.856C160.232 163.144 169.719 165.69 180.026 165.69V159.195ZM212.299 140.735C212.299 145.17 209.344 149.711 203.449 153.313C197.61 156.882 189.336 159.195 180.026 159.195V165.69C190.332 165.69 199.82 163.144 206.836 158.856C213.797 154.602 218.794 148.289 218.794 140.735H212.299ZM212.299 135.31V140.735H218.794V135.31H212.299Z" mask="url(#path-8-outside-2)"/><path fill="#FEDC90" d="M215.547 140.735C215.547 152.724 199.643 162.442 180.025 162.442C160.408 162.442 144.504 152.724 144.504 140.735V135.21H215.547V140.735Z"/><path fill="#D1884F" d="M215.546 135.208C215.546 147.197 199.643 156.916 180.025 156.916C160.407 156.916 144.504 147.197 144.504 135.208C144.504 123.22 160.407 113.501 180.025 113.501C199.643 113.501 215.546 123.22 215.546 135.208Z"/><mask id="path-12-outside-3" width="79" height="57" x="146.337" y="102.344" fill="#000" maskUnits="userSpaceOnUse"><rect width="79" height="57" x="146.337" y="102.344" fill="#fff"/><path fill-rule="evenodd" d="M221.38 128.232C221.381 128.172 221.381 128.112 221.381 128.052C221.381 116.063 205.478 106.344 185.86 106.344C166.243 106.344 150.34 116.062 150.339 128.05H150.337V133.576C150.337 145.564 166.241 155.283 185.859 155.283C205.476 155.283 221.38 145.564 221.38 133.576V128.232Z" clip-rule="evenodd"/></mask><path fill="#612F01" d="M221.38 128.232L218.132 128.189L218.132 128.211V128.232H221.38ZM150.339 128.05V131.298H153.586L153.586 128.05L150.339 128.05ZM150.337 128.05V124.803H147.09V128.05H150.337ZM218.133 128.052C218.133 128.097 218.133 128.143 218.132 128.189L224.627 128.276C224.628 128.201 224.629 128.126 224.629 128.052H218.133ZM185.86 109.592C195.171 109.592 203.444 111.905 209.284 115.473C215.179 119.076 218.133 123.617 218.133 128.052H224.629C224.629 120.498 219.632 114.185 212.671 109.931C205.654 105.643 196.167 103.097 185.86 103.097V109.592ZM153.586 128.05C153.587 123.616 156.542 119.075 162.437 115.473C168.276 111.905 176.549 109.592 185.86 109.592V103.097C175.553 103.097 166.067 105.643 159.05 109.931C152.089 114.184 147.092 120.496 147.091 128.05L153.586 128.05ZM150.337 131.298H150.339V124.803H150.337V131.298ZM153.585 133.576V128.05H147.09V133.576H153.585ZM185.859 152.035C176.548 152.035 168.274 149.722 162.435 146.154C156.54 142.551 153.585 138.01 153.585 133.576H147.09C147.09 141.129 152.087 147.442 159.048 151.696C166.065 155.984 175.552 158.531 185.859 158.531V152.035ZM218.132 133.576C218.132 138.01 215.177 142.551 209.282 146.154C203.443 149.722 195.169 152.035 185.859 152.035V158.531C196.165 158.531 205.653 155.984 212.669 151.696C219.63 147.442 224.627 141.129 224.627 133.576H218.132ZM218.132 128.232V133.576H224.627V128.232H218.132Z" mask="url(#path-12-outside-3)"/><path fill="#FEDC90" d="M221.38 133.576C221.38 145.565 205.476 155.283 185.859 155.283C166.241 155.283 150.337 145.565 150.337 133.576V128.05H221.38V133.576Z"/><path fill="#D1884F" d="M221.38 128.052C221.38 140.041 205.477 149.759 185.859 149.759C166.241 149.759 150.338 140.041 150.338 128.052C150.338 116.063 166.241 106.345 185.859 106.345C205.477 106.345 221.38 116.063 221.38 128.052Z"/><mask id="path-16-outside-4" width="79" height="57" x="132" y="92.001" fill="#000" maskUnits="userSpaceOnUse"><rect width="79" height="57" x="132" y="92.001" fill="#fff"/><path fill-rule="evenodd" d="M207.042 117.82C207.043 117.783 207.043 117.746 207.043 117.708C207.043 105.72 191.139 96.0011 171.522 96.0011C151.904 96.0011 136 105.72 136 117.708C136 117.709 136 117.709 136 117.709H136V123.235C136 135.224 151.903 144.942 171.521 144.942C191.139 144.942 207.042 135.224 207.042 123.235V117.82Z" clip-rule="evenodd"/></mask><path fill="#612F01" d="M207.042 117.82L203.795 117.793L203.795 117.807V117.82H207.042ZM136 117.709V120.957H139.248L139.248 117.709L136 117.709ZM136 117.709V114.462H132.752V117.709H136ZM203.795 117.708C203.795 117.737 203.795 117.765 203.795 117.793L210.29 117.847C210.29 117.801 210.29 117.755 210.29 117.708H203.795ZM171.522 99.2487C180.833 99.2487 189.106 101.562 194.945 105.13C200.841 108.733 203.795 113.274 203.795 117.708H210.29C210.29 110.155 205.293 103.842 198.332 99.5879C191.316 95.2999 181.829 92.7535 171.522 92.7535V99.2487ZM139.248 117.708C139.248 113.274 142.203 108.733 148.098 105.13C153.937 101.562 162.211 99.2487 171.522 99.2487V92.7535C161.215 92.7535 151.728 95.2999 144.711 99.5879C137.75 103.842 132.753 110.155 132.753 117.708H139.248ZM139.248 117.709C139.248 117.709 139.248 117.709 139.248 117.708H132.753C132.753 117.709 132.753 117.709 132.753 117.71L139.248 117.709ZM136 120.957H136V114.462H136V120.957ZM139.248 123.235V117.709H132.752V123.235H139.248ZM171.521 141.695C162.21 141.695 153.937 139.382 148.097 135.813C142.202 132.211 139.248 127.67 139.248 123.235H132.752C132.752 130.789 137.749 137.102 144.71 141.355C151.727 145.643 161.214 148.19 171.521 148.19V141.695ZM203.795 123.235C203.795 127.67 200.84 132.211 194.945 135.813C189.106 139.382 180.832 141.695 171.521 141.695V148.19C181.828 148.19 191.315 145.643 198.332 141.355C205.293 137.102 210.29 130.789 210.29 123.235H203.795ZM203.795 117.82V123.235H210.29V117.82H203.795Z" mask="url(#path-16-outside-4)"/><path fill="#FEDC90" d="M207.042 123.235C207.042 135.224 191.139 144.942 171.521 144.942C151.903 144.942 136 135.224 136 123.235V117.709H207.042V123.235Z"/><path fill="#D1884F" d="M207.043 117.708C207.043 129.697 191.139 139.416 171.521 139.416C151.904 139.416 136 129.697 136 117.708C136 105.72 151.904 96.0011 171.521 96.0011C191.139 96.0011 207.043 105.72 207.043 117.708Z"/><mask id="path-20-outside-5" width="96.916" height="88.863" x="71.507" y="25.506" fill="#000" maskUnits="userSpaceOnUse"><rect width="96.916" height="88.863" x="71.507" y="25.506" fill="#fff"/><path fill-rule="evenodd" d="M152.096 54.5052C152.111 54.5317 152.127 54.5582 152.142 54.5848C158.136 64.9673 149.223 81.3356 132.233 91.1445C115.244 100.953 96.6127 100.488 90.6179 90.1066L90.6176 90.1068L87.8549 85.3216C81.8606 74.9391 90.7739 58.5707 107.763 48.7618C124.753 38.9529 143.385 39.4179 149.379 49.8004L152.096 54.5052Z" clip-rule="evenodd"/></mask><path fill="#612F01" d="M152.096 54.5052L149.294 56.1479L149.289 56.1385L149.283 56.129L152.096 54.5052ZM90.6179 90.1066L88.9941 87.2941L91.8065 85.6704L93.4303 88.4827L90.6179 90.1066ZM90.6176 90.1068L92.2415 92.9193L89.4289 94.5431L87.8051 91.7306L90.6176 90.1068ZM87.8549 85.3216L90.6674 83.6978L87.8549 85.3216ZM149.379 49.8004L152.192 48.1766L149.379 49.8004ZM149.329 56.2086C149.318 56.1885 149.306 56.1683 149.294 56.1479L154.897 52.8626C154.916 52.8951 154.935 52.9279 154.955 52.961L149.329 56.2086ZM130.61 88.332C138.673 83.6766 144.682 77.5368 147.955 71.5266C151.259 65.4591 151.547 60.0493 149.329 56.2086L154.955 52.961C158.731 59.5028 157.56 67.4684 153.659 74.6329C149.726 81.8548 142.783 88.8036 133.857 93.9571L130.61 88.332ZM93.4303 88.4827C95.6479 92.3231 100.477 94.7782 107.384 94.9504C114.225 95.1211 122.546 92.9874 130.61 88.332L133.857 93.9571C124.931 99.1104 115.442 101.649 107.222 101.444C99.0666 101.24 91.5826 98.272 87.8055 91.7306L93.4303 88.4827ZM88.9938 87.2943L88.9941 87.2941L92.2417 92.9192L92.2415 92.9193L88.9938 87.2943ZM90.6674 83.6978L93.4302 88.483L87.8051 91.7306L85.0424 86.9454L90.6674 83.6978ZM109.387 51.5743C101.324 56.2298 95.3152 62.3696 92.0424 68.3797C88.7383 74.4472 88.45 79.8571 90.6674 83.6978L85.0424 86.9454C81.2655 80.4036 82.4366 72.438 86.3381 65.2735C90.2707 58.0516 97.2136 51.1028 106.14 45.9493L109.387 51.5743ZM146.567 51.4242C144.349 47.5835 139.52 45.1283 132.614 44.9559C125.772 44.7852 117.451 46.9189 109.387 51.5743L106.14 45.9493C115.066 40.7959 124.555 38.2576 132.776 38.4627C140.931 38.6663 148.415 41.6348 152.192 48.1766L146.567 51.4242ZM149.283 56.129L146.567 51.4242L152.192 48.1766L154.908 52.8814L149.283 56.129Z" mask="url(#path-20-outside-5)"/><path fill="#D1884F" d="M149.378 49.7994C143.384 39.4169 124.752 38.952 107.762 48.7609C90.7727 58.5698 81.8594 74.9381 87.8537 85.3206L90.6165 90.1058L152.141 54.5847L149.378 49.7994Z"/><path fill="#FEDC90" d="M152.142 54.5849C146.147 44.2025 127.515 43.7375 110.526 53.5464C93.5363 63.3553 84.6229 79.7236 90.6173 90.1061C96.6116 100.489 115.244 100.954 132.233 91.1447C149.223 81.3358 158.136 64.9674 152.142 54.5849Z"/><mask id="path-24-outside-6" width="96.166" height="96.166" x="-5.05" y="-7.124" fill="#000" maskUnits="userSpaceOnUse"><rect width="96.166" height="96.166" x="-5.05" y="-7.124" fill="#fff"/><path fill-rule="evenodd" d="M15.9268 64.1166C15.9267 64.1165 15.9267 64.1165 15.9267 64.1164C7.44941 55.6392 11.8226 37.5216 25.6945 23.6497C39.5664 9.77785 57.6839 5.40465 66.1612 13.8819C66.1684 13.8891 66.1755 13.8962 66.1827 13.9034L70.0684 17.7892C78.5457 26.2664 74.1725 44.384 60.3006 58.2559C46.4287 72.1278 28.3112 76.501 19.8339 68.0237L15.9268 64.1166Z" clip-rule="evenodd"/></mask><path fill="#612F01" d="M66.1827 13.9034L63.8862 16.1998L63.8811 16.1947L66.1827 13.9034ZM18.2231 61.82C18.3249 61.9218 18.4078 62.0183 18.4737 62.1016C18.5068 62.1434 18.5361 62.1826 18.5617 62.2181C18.5873 62.2536 18.6097 62.2863 18.6289 62.315C18.648 62.3437 18.6645 62.3694 18.6781 62.3911C18.6916 62.4126 18.7029 62.4312 18.7115 62.4456C18.7201 62.4598 18.7269 62.4714 18.7309 62.4784C18.733 62.482 18.7347 62.4848 18.7357 62.4866C18.7362 62.4875 18.7366 62.4882 18.7369 62.4886C18.737 62.4889 18.7371 62.489 18.7372 62.4892C18.7372 62.4892 18.7373 62.4893 18.7373 62.4893C18.7373 62.4893 18.7373 62.4893 18.7373 62.4893C18.7373 62.4893 18.7373 62.4893 18.7373 62.4893C18.7374 62.4896 18.7366 62.4882 18.7357 62.4866C18.7347 62.4849 18.733 62.482 18.7309 62.4784C18.7269 62.4714 18.7201 62.4599 18.7115 62.4456C18.7029 62.4313 18.6916 62.4127 18.6781 62.3911C18.6645 62.3695 18.6481 62.3438 18.6289 62.3151C18.6098 62.2864 18.5874 62.2537 18.5618 62.2182C18.5362 62.1827 18.5069 62.1435 18.4738 62.1017C18.4079 62.0184 18.3249 61.9219 18.2232 61.8202L13.6304 66.413C13.5286 66.3112 13.4456 66.2147 13.3797 66.1314C13.3466 66.0896 13.3174 66.0504 13.2917 66.0149C13.2661 65.9794 13.2437 65.9467 13.2246 65.918C13.2054 65.8893 13.1889 65.8636 13.1754 65.842C13.1619 65.8204 13.1505 65.8018 13.1419 65.7874C13.1334 65.7732 13.1266 65.7616 13.1225 65.7546C13.1204 65.7511 13.1187 65.7482 13.1177 65.7464C13.1172 65.7455 13.1168 65.7448 13.1165 65.7444C13.1164 65.7441 13.1163 65.744 13.1162 65.7439C13.1162 65.7438 13.1162 65.7438 13.1162 65.7437C13.1162 65.7437 13.1162 65.7437 13.1162 65.7437C13.1162 65.7437 13.1161 65.7437 13.1161 65.7437C13.116 65.7434 13.1168 65.7448 13.1177 65.7464C13.1187 65.7481 13.1204 65.751 13.1225 65.7546C13.1266 65.7616 13.1334 65.7731 13.1419 65.7874C13.1505 65.8017 13.1618 65.8203 13.1754 65.8419C13.1889 65.8635 13.2054 65.8892 13.2245 65.9179C13.2437 65.9467 13.2661 65.9793 13.2917 66.0148C13.3173 66.0504 13.3466 66.0895 13.3796 66.1313C13.4455 66.2146 13.5285 66.3111 13.6303 66.4128L18.2231 61.82ZM27.9909 25.9461C21.4071 32.53 17.1924 40.0157 15.5866 46.6681C13.9655 53.384 15.0872 58.6841 18.2231 61.82L13.6303 66.4128C8.2889 61.0715 7.35853 53.0742 9.27271 45.144C11.2022 37.1504 16.11 28.6414 23.3981 21.3533L27.9909 25.9461ZM63.8648 16.1783C60.7289 13.0424 55.4288 11.9208 48.7129 13.5418C42.0605 15.1476 34.5747 19.3623 27.9909 25.9461L23.3981 21.3533C30.6862 14.0652 39.1951 9.15745 47.1888 7.22794C55.119 5.31376 63.1163 6.24414 68.4576 11.5855L63.8648 16.1783ZM63.8811 16.1947C63.8757 16.1892 63.8702 16.1838 63.8648 16.1783L68.4576 11.5855C68.4665 11.5944 68.4754 11.6033 68.4842 11.6122L63.8811 16.1947ZM67.772 20.0856L63.8862 16.1998L68.4791 11.607L72.3648 15.4928L67.772 20.0856ZM58.0042 55.9595C64.588 49.3757 68.8027 41.8899 70.4085 35.2375C72.0296 28.5216 70.9079 23.2215 67.772 20.0856L72.3648 15.4928C77.7062 20.8341 78.6366 28.8314 76.7224 36.7616C74.7929 44.7552 69.8851 53.2642 62.597 60.5523L58.0042 55.9595ZM22.1303 65.7273C25.2662 68.8632 30.5664 69.9848 37.2822 68.3638C43.9346 66.758 51.4204 62.5433 58.0042 55.9595L62.597 60.5523C55.3089 67.8404 46.8 72.7482 38.8063 74.6777C30.8761 76.5919 22.8788 75.6615 17.5375 70.3201L22.1303 65.7273ZM18.2232 61.8202L22.1303 65.7273L17.5375 70.3201L13.6304 66.413L18.2232 61.8202Z" mask="url(#path-24-outside-6)"/><path fill="#FEDC90" d="M19.8335 68.0232C28.3107 76.5005 46.4283 72.1273 60.3002 58.2554C74.1721 44.3835 78.5453 26.266 70.068 17.7887L66.1609 13.8816L15.9264 64.1161L19.8335 68.0232Z"/><path fill="#D1884F" d="M15.9267 64.1164C24.4039 72.5937 42.5215 68.2205 56.3934 54.3486C70.2653 40.4767 74.6385 22.3592 66.1612 13.8819C57.6839 5.40466 39.5664 9.77786 25.6945 23.6497C11.8226 37.5216 7.44941 55.6392 15.9267 64.1164Z"/></g><defs><clipPath id="clip0"><rect width="266" height="176" fill="#fff"/></clipPath></defs></svg>